%TF.GenerationSoftware,KiCad,Pcbnew,(6.0.5-0)*%
%TF.CreationDate,2023-11-24T08:12:00-08:00*%
%TF.ProjectId,pio-sp-clone,70696f2d-7370-42d6-936c-6f6e652e6b69,ISS01*%
%TF.SameCoordinates,Original*%
%TF.FileFunction,Legend,Bot*%
%TF.FilePolarity,Positive*%
%FSLAX46Y46*%
G04 Gerber Fmt 4.6, Leading zero omitted, Abs format (unit mm)*
G04 Created by KiCad (PCBNEW (6.0.5-0)) date 2023-11-24 08:12:00*
%MOMM*%
%LPD*%
G01*
G04 APERTURE LIST*
%ADD10C,0.150000*%
%ADD11C,0.120000*%
G04 APERTURE END LIST*
D10*
X182984404Y-64772380D02*
X182984404Y-63772380D01*
X182555833Y-64724761D02*
X182412976Y-64772380D01*
X182174880Y-64772380D01*
X182079642Y-64724761D01*
X182032023Y-64677142D01*
X181984404Y-64581904D01*
X181984404Y-64486666D01*
X182032023Y-64391428D01*
X182079642Y-64343809D01*
X182174880Y-64296190D01*
X182365357Y-64248571D01*
X182460595Y-64200952D01*
X182508214Y-64153333D01*
X182555833Y-64058095D01*
X182555833Y-63962857D01*
X182508214Y-63867619D01*
X182460595Y-63820000D01*
X182365357Y-63772380D01*
X182127261Y-63772380D01*
X181984404Y-63820000D01*
X181603452Y-64724761D02*
X181460595Y-64772380D01*
X181222500Y-64772380D01*
X181127261Y-64724761D01*
X181079642Y-64677142D01*
X181032023Y-64581904D01*
X181032023Y-64486666D01*
X181079642Y-64391428D01*
X181127261Y-64343809D01*
X181222500Y-64296190D01*
X181412976Y-64248571D01*
X181508214Y-64200952D01*
X181555833Y-64153333D01*
X181603452Y-64058095D01*
X181603452Y-63962857D01*
X181555833Y-63867619D01*
X181508214Y-63820000D01*
X181412976Y-63772380D01*
X181174880Y-63772380D01*
X181032023Y-63820000D01*
X180412976Y-63772380D02*
X180317738Y-63772380D01*
X180222500Y-63820000D01*
X180174880Y-63867619D01*
X180127261Y-63962857D01*
X180079642Y-64153333D01*
X180079642Y-64391428D01*
X180127261Y-64581904D01*
X180174880Y-64677142D01*
X180222500Y-64724761D01*
X180317738Y-64772380D01*
X180412976Y-64772380D01*
X180508214Y-64724761D01*
X180555833Y-64677142D01*
X180603452Y-64581904D01*
X180651071Y-64391428D01*
X180651071Y-64153333D01*
X180603452Y-63962857D01*
X180555833Y-63867619D01*
X180508214Y-63820000D01*
X180412976Y-63772380D01*
X179127261Y-64772380D02*
X179698690Y-64772380D01*
X179412976Y-64772380D02*
X179412976Y-63772380D01*
X179508214Y-63915238D01*
X179603452Y-64010476D01*
X179698690Y-64058095D01*
X123924000Y-127092000D02*
X124432000Y-127092000D01*
X124432000Y-127092000D02*
X124432000Y-127600000D01*
X124432000Y-127600000D02*
X123924000Y-127600000D01*
X123924000Y-127600000D02*
X123924000Y-127092000D01*
G36*
X123924000Y-127092000D02*
G01*
X124432000Y-127092000D01*
X124432000Y-127600000D01*
X123924000Y-127600000D01*
X123924000Y-127092000D01*
G37*
X123924000Y-124552000D02*
X124432000Y-124552000D01*
X124432000Y-124552000D02*
X124432000Y-125060000D01*
X124432000Y-125060000D02*
X123924000Y-125060000D01*
X123924000Y-125060000D02*
X123924000Y-124552000D01*
G36*
X123924000Y-124552000D02*
G01*
X124432000Y-124552000D01*
X124432000Y-125060000D01*
X123924000Y-125060000D01*
X123924000Y-124552000D01*
G37*
X123924000Y-129632000D02*
X124432000Y-129632000D01*
X124432000Y-129632000D02*
X124432000Y-130140000D01*
X124432000Y-130140000D02*
X123924000Y-130140000D01*
X123924000Y-130140000D02*
X123924000Y-129632000D01*
G36*
X123924000Y-129632000D02*
G01*
X124432000Y-129632000D01*
X124432000Y-130140000D01*
X123924000Y-130140000D01*
X123924000Y-129632000D01*
G37*
X183032023Y-69467380D02*
X183032023Y-70276904D01*
X182993928Y-70372142D01*
X182955833Y-70419761D01*
X182879642Y-70467380D01*
X182727261Y-70467380D01*
X182651071Y-70419761D01*
X182612976Y-70372142D01*
X182574880Y-70276904D01*
X182574880Y-69467380D01*
X182232023Y-70419761D02*
X182155833Y-70467380D01*
X182003452Y-70467380D01*
X181927261Y-70419761D01*
X181889166Y-70324523D01*
X181889166Y-70276904D01*
X181927261Y-70181666D01*
X182003452Y-70134047D01*
X182117738Y-70134047D01*
X182193928Y-70086428D01*
X182232023Y-69991190D01*
X182232023Y-69943571D01*
X182193928Y-69848333D01*
X182117738Y-69800714D01*
X182003452Y-69800714D01*
X181927261Y-69848333D01*
X181241547Y-70419761D02*
X181317738Y-70467380D01*
X181470119Y-70467380D01*
X181546309Y-70419761D01*
X181584404Y-70324523D01*
X181584404Y-69943571D01*
X181546309Y-69848333D01*
X181470119Y-69800714D01*
X181317738Y-69800714D01*
X181241547Y-69848333D01*
X181203452Y-69943571D01*
X181203452Y-70038809D01*
X181584404Y-70134047D01*
X179946309Y-70419761D02*
X180022499Y-70467380D01*
X180174880Y-70467380D01*
X180251071Y-70419761D01*
X180289166Y-70324523D01*
X180289166Y-69943571D01*
X180251071Y-69848333D01*
X180174880Y-69800714D01*
X180022499Y-69800714D01*
X179946309Y-69848333D01*
X179908214Y-69943571D01*
X179908214Y-70038809D01*
X180289166Y-70134047D01*
X179565357Y-70467380D02*
X179565357Y-69800714D01*
X179565357Y-69467380D02*
X179603452Y-69515000D01*
X179565357Y-69562619D01*
X179527261Y-69515000D01*
X179565357Y-69467380D01*
X179565357Y-69562619D01*
X179298690Y-69800714D02*
X178993928Y-69800714D01*
X179184404Y-69467380D02*
X179184404Y-70324523D01*
X179146309Y-70419761D01*
X179070119Y-70467380D01*
X178993928Y-70467380D01*
X178727261Y-70467380D02*
X178727261Y-69467380D01*
X178384404Y-70467380D02*
X178384404Y-69943571D01*
X178422499Y-69848333D01*
X178498690Y-69800714D01*
X178612976Y-69800714D01*
X178689166Y-69848333D01*
X178727261Y-69895952D01*
X177698690Y-70419761D02*
X177774880Y-70467380D01*
X177927261Y-70467380D01*
X178003452Y-70419761D01*
X178041547Y-70324523D01*
X178041547Y-69943571D01*
X178003452Y-69848333D01*
X177927261Y-69800714D01*
X177774880Y-69800714D01*
X177698690Y-69848333D01*
X177660595Y-69943571D01*
X177660595Y-70038809D01*
X178041547Y-70134047D01*
X177317738Y-70467380D02*
X177317738Y-69800714D01*
X177317738Y-69991190D02*
X177279642Y-69895952D01*
X177241547Y-69848333D01*
X177165357Y-69800714D01*
X177089166Y-69800714D01*
X176212976Y-70467380D02*
X176212976Y-69467380D01*
X176022499Y-69467380D01*
X175908214Y-69515000D01*
X175832023Y-69610238D01*
X175793928Y-69705476D01*
X175755833Y-69895952D01*
X175755833Y-70038809D01*
X175793928Y-70229285D01*
X175832023Y-70324523D01*
X175908214Y-70419761D01*
X176022499Y-70467380D01*
X176212976Y-70467380D01*
X175412976Y-70467380D02*
X175412976Y-69467380D01*
X175032023Y-70467380D02*
X175032023Y-69467380D01*
X174727261Y-69467380D01*
X174651071Y-69515000D01*
X174612976Y-69562619D01*
X174574880Y-69657857D01*
X174574880Y-69800714D01*
X174612976Y-69895952D01*
X174651071Y-69943571D01*
X174727261Y-69991190D01*
X175032023Y-69991190D01*
X174232023Y-70086428D02*
X173622499Y-70086428D01*
X172822499Y-70467380D02*
X173279642Y-70467380D01*
X173051071Y-70467380D02*
X173051071Y-69467380D01*
X173127261Y-69610238D01*
X173203452Y-69705476D01*
X173279642Y-69753095D01*
X172136785Y-69467380D02*
X172289166Y-69467380D01*
X172365357Y-69515000D01*
X172403452Y-69562619D01*
X172479642Y-69705476D01*
X172517738Y-69895952D01*
X172517738Y-70276904D01*
X172479642Y-70372142D01*
X172441547Y-70419761D01*
X172365357Y-70467380D01*
X172212976Y-70467380D01*
X172136785Y-70419761D01*
X172098690Y-70372142D01*
X172060595Y-70276904D01*
X172060595Y-70038809D01*
X172098690Y-69943571D01*
X172136785Y-69895952D01*
X172212976Y-69848333D01*
X172365357Y-69848333D01*
X172441547Y-69895952D01*
X172479642Y-69943571D01*
X172517738Y-70038809D01*
X171146309Y-70419761D02*
X171070119Y-70467380D01*
X170917738Y-70467380D01*
X170841547Y-70419761D01*
X170803452Y-70324523D01*
X170803452Y-70276904D01*
X170841547Y-70181666D01*
X170917738Y-70134047D01*
X171032023Y-70134047D01*
X171108214Y-70086428D01*
X171146309Y-69991190D01*
X171146309Y-69943571D01*
X171108214Y-69848333D01*
X171032023Y-69800714D01*
X170917738Y-69800714D01*
X170841547Y-69848333D01*
X170346309Y-70467380D02*
X170422499Y-70419761D01*
X170460595Y-70372142D01*
X170498690Y-70276904D01*
X170498690Y-69991190D01*
X170460595Y-69895952D01*
X170422499Y-69848333D01*
X170346309Y-69800714D01*
X170232023Y-69800714D01*
X170155833Y-69848333D01*
X170117738Y-69895952D01*
X170079642Y-69991190D01*
X170079642Y-70276904D01*
X170117738Y-70372142D01*
X170155833Y-70419761D01*
X170232023Y-70467380D01*
X170346309Y-70467380D01*
X169393928Y-70419761D02*
X169470119Y-70467380D01*
X169622499Y-70467380D01*
X169698690Y-70419761D01*
X169736785Y-70372142D01*
X169774880Y-70276904D01*
X169774880Y-69991190D01*
X169736785Y-69895952D01*
X169698690Y-69848333D01*
X169622499Y-69800714D01*
X169470119Y-69800714D01*
X169393928Y-69848333D01*
X169051071Y-70467380D02*
X169051071Y-69467380D01*
X168974880Y-70086428D02*
X168746309Y-70467380D01*
X168746309Y-69800714D02*
X169051071Y-70181666D01*
X168098690Y-70419761D02*
X168174880Y-70467380D01*
X168327261Y-70467380D01*
X168403452Y-70419761D01*
X168441547Y-70324523D01*
X168441547Y-69943571D01*
X168403452Y-69848333D01*
X168327261Y-69800714D01*
X168174880Y-69800714D01*
X168098690Y-69848333D01*
X168060595Y-69943571D01*
X168060595Y-70038809D01*
X168441547Y-70134047D01*
X167832023Y-69800714D02*
X167527261Y-69800714D01*
X167717738Y-69467380D02*
X167717738Y-70324523D01*
X167679642Y-70419761D01*
X167603452Y-70467380D01*
X167527261Y-70467380D01*
X167298690Y-70419761D02*
X167222499Y-70467380D01*
X167070119Y-70467380D01*
X166993928Y-70419761D01*
X166955833Y-70324523D01*
X166955833Y-70276904D01*
X166993928Y-70181666D01*
X167070119Y-70134047D01*
X167184404Y-70134047D01*
X167260595Y-70086428D01*
X167298690Y-69991190D01*
X167298690Y-69943571D01*
X167260595Y-69848333D01*
X167184404Y-69800714D01*
X167070119Y-69800714D01*
X166993928Y-69848333D01*
X165889166Y-70467380D02*
X165965357Y-70419761D01*
X166003452Y-70372142D01*
X166041547Y-70276904D01*
X166041547Y-69991190D01*
X166003452Y-69895952D01*
X165965357Y-69848333D01*
X165889166Y-69800714D01*
X165774880Y-69800714D01*
X165698690Y-69848333D01*
X165660595Y-69895952D01*
X165622499Y-69991190D01*
X165622499Y-70276904D01*
X165660595Y-70372142D01*
X165698690Y-70419761D01*
X165774880Y-70467380D01*
X165889166Y-70467380D01*
X165279642Y-70467380D02*
X165279642Y-69800714D01*
X165279642Y-69991190D02*
X165241547Y-69895952D01*
X165203452Y-69848333D01*
X165127261Y-69800714D01*
X165051071Y-69800714D01*
X164212976Y-69562619D02*
X164174880Y-69515000D01*
X164098690Y-69467380D01*
X163908214Y-69467380D01*
X163832023Y-69515000D01*
X163793928Y-69562619D01*
X163755833Y-69657857D01*
X163755833Y-69753095D01*
X163793928Y-69895952D01*
X164251071Y-70467380D01*
X163755833Y-70467380D01*
X163260595Y-69467380D02*
X163184404Y-69467380D01*
X163108214Y-69515000D01*
X163070119Y-69562619D01*
X163032023Y-69657857D01*
X162993928Y-69848333D01*
X162993928Y-70086428D01*
X163032023Y-70276904D01*
X163070119Y-70372142D01*
X163108214Y-70419761D01*
X163184404Y-70467380D01*
X163260595Y-70467380D01*
X163336785Y-70419761D01*
X163374880Y-70372142D01*
X163412976Y-70276904D01*
X163451071Y-70086428D01*
X163451071Y-69848333D01*
X163412976Y-69657857D01*
X163374880Y-69562619D01*
X163336785Y-69515000D01*
X163260595Y-69467380D01*
X162727261Y-69467380D02*
X162536785Y-70467380D01*
X162384404Y-69753095D01*
X162232023Y-70467380D01*
X162041547Y-69467380D01*
X161127261Y-70467380D02*
X161127261Y-69467380D01*
X160746309Y-70467380D02*
X160746309Y-69467380D01*
X160555833Y-69467380D01*
X160441547Y-69515000D01*
X160365357Y-69610238D01*
X160327261Y-69705476D01*
X160289166Y-69895952D01*
X160289166Y-70038809D01*
X160327261Y-70229285D01*
X160365357Y-70324523D01*
X160441547Y-70419761D01*
X160555833Y-70467380D01*
X160746309Y-70467380D01*
X159489166Y-70372142D02*
X159527261Y-70419761D01*
X159641547Y-70467380D01*
X159717738Y-70467380D01*
X159832023Y-70419761D01*
X159908214Y-70324523D01*
X159946309Y-70229285D01*
X159984404Y-70038809D01*
X159984404Y-69895952D01*
X159946309Y-69705476D01*
X159908214Y-69610238D01*
X159832023Y-69515000D01*
X159717738Y-69467380D01*
X159641547Y-69467380D01*
X159527261Y-69515000D01*
X159489166Y-69562619D01*
X158536785Y-70467380D02*
X158536785Y-69467380D01*
X158193928Y-70467380D02*
X158193928Y-69943571D01*
X158232023Y-69848333D01*
X158308214Y-69800714D01*
X158422499Y-69800714D01*
X158498690Y-69848333D01*
X158536785Y-69895952D01*
X157508214Y-70419761D02*
X157584404Y-70467380D01*
X157736785Y-70467380D01*
X157812976Y-70419761D01*
X157851071Y-70324523D01*
X157851071Y-69943571D01*
X157812976Y-69848333D01*
X157736785Y-69800714D01*
X157584404Y-69800714D01*
X157508214Y-69848333D01*
X157470119Y-69943571D01*
X157470119Y-70038809D01*
X157851071Y-70134047D01*
X156784404Y-70467380D02*
X156784404Y-69943571D01*
X156822499Y-69848333D01*
X156898690Y-69800714D01*
X157051071Y-69800714D01*
X157127261Y-69848333D01*
X156784404Y-70419761D02*
X156860595Y-70467380D01*
X157051071Y-70467380D01*
X157127261Y-70419761D01*
X157165357Y-70324523D01*
X157165357Y-70229285D01*
X157127261Y-70134047D01*
X157051071Y-70086428D01*
X156860595Y-70086428D01*
X156784404Y-70038809D01*
X156060595Y-70467380D02*
X156060595Y-69467380D01*
X156060595Y-70419761D02*
X156136785Y-70467380D01*
X156289166Y-70467380D01*
X156365357Y-70419761D01*
X156403452Y-70372142D01*
X156441547Y-70276904D01*
X156441547Y-69991190D01*
X156403452Y-69895952D01*
X156365357Y-69848333D01*
X156289166Y-69800714D01*
X156136785Y-69800714D01*
X156060595Y-69848333D01*
X155374880Y-70419761D02*
X155451071Y-70467380D01*
X155603452Y-70467380D01*
X155679642Y-70419761D01*
X155717738Y-70324523D01*
X155717738Y-69943571D01*
X155679642Y-69848333D01*
X155603452Y-69800714D01*
X155451071Y-69800714D01*
X155374880Y-69848333D01*
X155336785Y-69943571D01*
X155336785Y-70038809D01*
X155717738Y-70134047D01*
X154993928Y-70467380D02*
X154993928Y-69800714D01*
X154993928Y-69991190D02*
X154955833Y-69895952D01*
X154917738Y-69848333D01*
X154841547Y-69800714D01*
X154765357Y-69800714D01*
X154498690Y-70372142D02*
X154460595Y-70419761D01*
X154498690Y-70467380D01*
X154536785Y-70419761D01*
X154498690Y-70372142D01*
X154498690Y-70467380D01*
X182765357Y-71553571D02*
X183032023Y-71553571D01*
X183032023Y-72077380D02*
X183032023Y-71077380D01*
X182651071Y-71077380D01*
X182346309Y-72077380D02*
X182346309Y-71410714D01*
X182346309Y-71077380D02*
X182384404Y-71125000D01*
X182346309Y-71172619D01*
X182308214Y-71125000D01*
X182346309Y-71077380D01*
X182346309Y-71172619D01*
X182079642Y-71410714D02*
X181774880Y-71410714D01*
X181965357Y-71077380D02*
X181965357Y-71934523D01*
X181927261Y-72029761D01*
X181851071Y-72077380D01*
X181774880Y-72077380D01*
X180441547Y-71982142D02*
X180479642Y-72029761D01*
X180593928Y-72077380D01*
X180670119Y-72077380D01*
X180784404Y-72029761D01*
X180860595Y-71934523D01*
X180898690Y-71839285D01*
X180936785Y-71648809D01*
X180936785Y-71505952D01*
X180898690Y-71315476D01*
X180860595Y-71220238D01*
X180784404Y-71125000D01*
X180670119Y-71077380D01*
X180593928Y-71077380D01*
X180479642Y-71125000D01*
X180441547Y-71172619D01*
X179679642Y-72077380D02*
X180136785Y-72077380D01*
X179908214Y-72077380D02*
X179908214Y-71077380D01*
X179984404Y-71220238D01*
X180060595Y-71315476D01*
X180136785Y-71363095D01*
X179336785Y-71696428D02*
X178727261Y-71696428D01*
X177889166Y-71982142D02*
X177927261Y-72029761D01*
X178041547Y-72077380D01*
X178117738Y-72077380D01*
X178232023Y-72029761D01*
X178308214Y-71934523D01*
X178346309Y-71839285D01*
X178384404Y-71648809D01*
X178384404Y-71505952D01*
X178346309Y-71315476D01*
X178308214Y-71220238D01*
X178232023Y-71125000D01*
X178117738Y-71077380D01*
X178041547Y-71077380D01*
X177927261Y-71125000D01*
X177889166Y-71172619D01*
X177165357Y-71077380D02*
X177546309Y-71077380D01*
X177584404Y-71553571D01*
X177546309Y-71505952D01*
X177470119Y-71458333D01*
X177279642Y-71458333D01*
X177203452Y-71505952D01*
X177165357Y-71553571D01*
X177127261Y-71648809D01*
X177127261Y-71886904D01*
X177165357Y-71982142D01*
X177203452Y-72029761D01*
X177279642Y-72077380D01*
X177470119Y-72077380D01*
X177546309Y-72029761D01*
X177584404Y-71982142D01*
X175832023Y-72077380D02*
X175832023Y-71553571D01*
X175870119Y-71458333D01*
X175946309Y-71410714D01*
X176098690Y-71410714D01*
X176174880Y-71458333D01*
X175832023Y-72029761D02*
X175908214Y-72077380D01*
X176098690Y-72077380D01*
X176174880Y-72029761D01*
X176212976Y-71934523D01*
X176212976Y-71839285D01*
X176174880Y-71744047D01*
X176098690Y-71696428D01*
X175908214Y-71696428D01*
X175832023Y-71648809D01*
X175451071Y-71410714D02*
X175451071Y-72077380D01*
X175451071Y-71505952D02*
X175412976Y-71458333D01*
X175336785Y-71410714D01*
X175222500Y-71410714D01*
X175146309Y-71458333D01*
X175108214Y-71553571D01*
X175108214Y-72077380D01*
X174384404Y-72077380D02*
X174384404Y-71077380D01*
X174384404Y-72029761D02*
X174460595Y-72077380D01*
X174612976Y-72077380D01*
X174689166Y-72029761D01*
X174727261Y-71982142D01*
X174765357Y-71886904D01*
X174765357Y-71601190D01*
X174727261Y-71505952D01*
X174689166Y-71458333D01*
X174612976Y-71410714D01*
X174460595Y-71410714D01*
X174384404Y-71458333D01*
X173165357Y-71077380D02*
X173165357Y-71791666D01*
X173203452Y-71934523D01*
X173279642Y-72029761D01*
X173393928Y-72077380D01*
X173470119Y-72077380D01*
X172784404Y-72077380D02*
X172784404Y-71077380D01*
X172479642Y-71077380D01*
X172403452Y-71125000D01*
X172365357Y-71172619D01*
X172327261Y-71267857D01*
X172327261Y-71410714D01*
X172365357Y-71505952D01*
X172403452Y-71553571D01*
X172479642Y-71601190D01*
X172784404Y-71601190D01*
X171565357Y-72077380D02*
X172022500Y-72077380D01*
X171793928Y-72077380D02*
X171793928Y-71077380D01*
X171870119Y-71220238D01*
X171946309Y-71315476D01*
X172022500Y-71363095D01*
X170727261Y-71410714D02*
X170422500Y-71410714D01*
X170612976Y-71077380D02*
X170612976Y-71934523D01*
X170574880Y-72029761D01*
X170498690Y-72077380D01*
X170422500Y-72077380D01*
X170041547Y-72077380D02*
X170117738Y-72029761D01*
X170155833Y-71982142D01*
X170193928Y-71886904D01*
X170193928Y-71601190D01*
X170155833Y-71505952D01*
X170117738Y-71458333D01*
X170041547Y-71410714D01*
X169927261Y-71410714D01*
X169851071Y-71458333D01*
X169812976Y-71505952D01*
X169774880Y-71601190D01*
X169774880Y-71886904D01*
X169812976Y-71982142D01*
X169851071Y-72029761D01*
X169927261Y-72077380D01*
X170041547Y-72077380D01*
X168936785Y-71410714D02*
X168632023Y-71410714D01*
X168822500Y-71077380D02*
X168822500Y-71934523D01*
X168784404Y-72029761D01*
X168708214Y-72077380D01*
X168632023Y-72077380D01*
X168365357Y-72077380D02*
X168365357Y-71077380D01*
X168022500Y-72077380D02*
X168022500Y-71553571D01*
X168060595Y-71458333D01*
X168136785Y-71410714D01*
X168251071Y-71410714D01*
X168327261Y-71458333D01*
X168365357Y-71505952D01*
X167641547Y-72077380D02*
X167641547Y-71410714D01*
X167641547Y-71077380D02*
X167679642Y-71125000D01*
X167641547Y-71172619D01*
X167603452Y-71125000D01*
X167641547Y-71077380D01*
X167641547Y-71172619D01*
X167298690Y-72029761D02*
X167222500Y-72077380D01*
X167070119Y-72077380D01*
X166993928Y-72029761D01*
X166955833Y-71934523D01*
X166955833Y-71886904D01*
X166993928Y-71791666D01*
X167070119Y-71744047D01*
X167184404Y-71744047D01*
X167260595Y-71696428D01*
X167298690Y-71601190D01*
X167298690Y-71553571D01*
X167260595Y-71458333D01*
X167184404Y-71410714D01*
X167070119Y-71410714D01*
X166993928Y-71458333D01*
X165774880Y-72458333D02*
X165812976Y-72410714D01*
X165889166Y-72267857D01*
X165927261Y-72172619D01*
X165965357Y-72029761D01*
X166003452Y-71791666D01*
X166003452Y-71601190D01*
X165965357Y-71363095D01*
X165927261Y-71220238D01*
X165889166Y-71125000D01*
X165812976Y-70982142D01*
X165774880Y-70934523D01*
X165470119Y-72077380D02*
X165470119Y-71077380D01*
X165470119Y-71458333D02*
X165393928Y-71410714D01*
X165241547Y-71410714D01*
X165165357Y-71458333D01*
X165127261Y-71505952D01*
X165089166Y-71601190D01*
X165089166Y-71886904D01*
X165127261Y-71982142D01*
X165165357Y-72029761D01*
X165241547Y-72077380D01*
X165393928Y-72077380D01*
X165470119Y-72029761D01*
X164632023Y-72077380D02*
X164708214Y-72029761D01*
X164746309Y-71982142D01*
X164784404Y-71886904D01*
X164784404Y-71601190D01*
X164746309Y-71505952D01*
X164708214Y-71458333D01*
X164632023Y-71410714D01*
X164517738Y-71410714D01*
X164441547Y-71458333D01*
X164403452Y-71505952D01*
X164365357Y-71601190D01*
X164365357Y-71886904D01*
X164403452Y-71982142D01*
X164441547Y-72029761D01*
X164517738Y-72077380D01*
X164632023Y-72077380D01*
X164136785Y-71410714D02*
X163832023Y-71410714D01*
X164022500Y-71077380D02*
X164022500Y-71934523D01*
X163984404Y-72029761D01*
X163908214Y-72077380D01*
X163832023Y-72077380D01*
X163679642Y-71410714D02*
X163374880Y-71410714D01*
X163565357Y-71077380D02*
X163565357Y-71934523D01*
X163527261Y-72029761D01*
X163451071Y-72077380D01*
X163374880Y-72077380D01*
X162993928Y-72077380D02*
X163070119Y-72029761D01*
X163108214Y-71982142D01*
X163146309Y-71886904D01*
X163146309Y-71601190D01*
X163108214Y-71505952D01*
X163070119Y-71458333D01*
X162993928Y-71410714D01*
X162879642Y-71410714D01*
X162803452Y-71458333D01*
X162765357Y-71505952D01*
X162727261Y-71601190D01*
X162727261Y-71886904D01*
X162765357Y-71982142D01*
X162803452Y-72029761D01*
X162879642Y-72077380D01*
X162993928Y-72077380D01*
X162384404Y-72077380D02*
X162384404Y-71410714D01*
X162384404Y-71505952D02*
X162346309Y-71458333D01*
X162270119Y-71410714D01*
X162155833Y-71410714D01*
X162079642Y-71458333D01*
X162041547Y-71553571D01*
X162041547Y-72077380D01*
X162041547Y-71553571D02*
X162003452Y-71458333D01*
X161927261Y-71410714D01*
X161812976Y-71410714D01*
X161736785Y-71458333D01*
X161698690Y-71553571D01*
X161698690Y-72077380D01*
X161393928Y-72458333D02*
X161355833Y-72410714D01*
X161279642Y-72267857D01*
X161241547Y-72172619D01*
X161203452Y-72029761D01*
X161165357Y-71791666D01*
X161165357Y-71601190D01*
X161203452Y-71363095D01*
X161241547Y-71220238D01*
X161279642Y-71125000D01*
X161355833Y-70982142D01*
X161393928Y-70934523D01*
X160212976Y-72029761D02*
X160136785Y-72077380D01*
X159984404Y-72077380D01*
X159908214Y-72029761D01*
X159870119Y-71934523D01*
X159870119Y-71886904D01*
X159908214Y-71791666D01*
X159984404Y-71744047D01*
X160098690Y-71744047D01*
X160174880Y-71696428D01*
X160212976Y-71601190D01*
X160212976Y-71553571D01*
X160174880Y-71458333D01*
X160098690Y-71410714D01*
X159984404Y-71410714D01*
X159908214Y-71458333D01*
X159527261Y-72077380D02*
X159527261Y-71410714D01*
X159527261Y-71077380D02*
X159565357Y-71125000D01*
X159527261Y-71172619D01*
X159489166Y-71125000D01*
X159527261Y-71077380D01*
X159527261Y-71172619D01*
X158803452Y-72077380D02*
X158803452Y-71077380D01*
X158803452Y-72029761D02*
X158879642Y-72077380D01*
X159032023Y-72077380D01*
X159108214Y-72029761D01*
X159146309Y-71982142D01*
X159184404Y-71886904D01*
X159184404Y-71601190D01*
X159146309Y-71505952D01*
X159108214Y-71458333D01*
X159032023Y-71410714D01*
X158879642Y-71410714D01*
X158803452Y-71458333D01*
X158117738Y-72029761D02*
X158193928Y-72077380D01*
X158346309Y-72077380D01*
X158422500Y-72029761D01*
X158460595Y-71934523D01*
X158460595Y-71553571D01*
X158422500Y-71458333D01*
X158346309Y-71410714D01*
X158193928Y-71410714D01*
X158117738Y-71458333D01*
X158079642Y-71553571D01*
X158079642Y-71648809D01*
X158460595Y-71744047D01*
X157012976Y-72077380D02*
X157089166Y-72029761D01*
X157127261Y-71982142D01*
X157165357Y-71886904D01*
X157165357Y-71601190D01*
X157127261Y-71505952D01*
X157089166Y-71458333D01*
X157012976Y-71410714D01*
X156898690Y-71410714D01*
X156822500Y-71458333D01*
X156784404Y-71505952D01*
X156746309Y-71601190D01*
X156746309Y-71886904D01*
X156784404Y-71982142D01*
X156822500Y-72029761D01*
X156898690Y-72077380D01*
X157012976Y-72077380D01*
X156517738Y-71410714D02*
X156212976Y-71410714D01*
X156403452Y-72077380D02*
X156403452Y-71220238D01*
X156365357Y-71125000D01*
X156289166Y-71077380D01*
X156212976Y-71077380D01*
X155451071Y-71410714D02*
X155146309Y-71410714D01*
X155336785Y-71077380D02*
X155336785Y-71934523D01*
X155298690Y-72029761D01*
X155222500Y-72077380D01*
X155146309Y-72077380D01*
X154879642Y-72077380D02*
X154879642Y-71077380D01*
X154536785Y-72077380D02*
X154536785Y-71553571D01*
X154574880Y-71458333D01*
X154651071Y-71410714D01*
X154765357Y-71410714D01*
X154841547Y-71458333D01*
X154879642Y-71505952D01*
X153851071Y-72029761D02*
X153927261Y-72077380D01*
X154079642Y-72077380D01*
X154155833Y-72029761D01*
X154193928Y-71934523D01*
X154193928Y-71553571D01*
X154155833Y-71458333D01*
X154079642Y-71410714D01*
X153927261Y-71410714D01*
X153851071Y-71458333D01*
X153812976Y-71553571D01*
X153812976Y-71648809D01*
X154193928Y-71744047D01*
X152860595Y-72077380D02*
X152860595Y-71077380D01*
X152860595Y-71458333D02*
X152784404Y-71410714D01*
X152632023Y-71410714D01*
X152555833Y-71458333D01*
X152517738Y-71505952D01*
X152479642Y-71601190D01*
X152479642Y-71886904D01*
X152517738Y-71982142D01*
X152555833Y-72029761D01*
X152632023Y-72077380D01*
X152784404Y-72077380D01*
X152860595Y-72029761D01*
X152022500Y-72077380D02*
X152098690Y-72029761D01*
X152136785Y-71982142D01*
X152174880Y-71886904D01*
X152174880Y-71601190D01*
X152136785Y-71505952D01*
X152098690Y-71458333D01*
X152022500Y-71410714D01*
X151908214Y-71410714D01*
X151832023Y-71458333D01*
X151793928Y-71505952D01*
X151755833Y-71601190D01*
X151755833Y-71886904D01*
X151793928Y-71982142D01*
X151832023Y-72029761D01*
X151908214Y-72077380D01*
X152022500Y-72077380D01*
X151070119Y-72077380D02*
X151070119Y-71553571D01*
X151108214Y-71458333D01*
X151184404Y-71410714D01*
X151336785Y-71410714D01*
X151412976Y-71458333D01*
X151070119Y-72029761D02*
X151146309Y-72077380D01*
X151336785Y-72077380D01*
X151412976Y-72029761D01*
X151451071Y-71934523D01*
X151451071Y-71839285D01*
X151412976Y-71744047D01*
X151336785Y-71696428D01*
X151146309Y-71696428D01*
X151070119Y-71648809D01*
X150689166Y-72077380D02*
X150689166Y-71410714D01*
X150689166Y-71601190D02*
X150651071Y-71505952D01*
X150612976Y-71458333D01*
X150536785Y-71410714D01*
X150460595Y-71410714D01*
X149851071Y-72077380D02*
X149851071Y-71077380D01*
X149851071Y-72029761D02*
X149927261Y-72077380D01*
X150079642Y-72077380D01*
X150155833Y-72029761D01*
X150193928Y-71982142D01*
X150232023Y-71886904D01*
X150232023Y-71601190D01*
X150193928Y-71505952D01*
X150155833Y-71458333D01*
X150079642Y-71410714D01*
X149927261Y-71410714D01*
X149851071Y-71458333D01*
X149432023Y-72029761D02*
X149432023Y-72077380D01*
X149470119Y-72172619D01*
X149508214Y-72220238D01*
X149470119Y-71458333D02*
X149432023Y-71505952D01*
X149470119Y-71553571D01*
X149508214Y-71505952D01*
X149470119Y-71458333D01*
X149470119Y-71553571D01*
X148593928Y-71410714D02*
X148289166Y-71410714D01*
X148479642Y-72077380D02*
X148479642Y-71220238D01*
X148441547Y-71125000D01*
X148365357Y-71077380D01*
X148289166Y-71077380D01*
X148022500Y-72077380D02*
X148022500Y-71410714D01*
X148022500Y-71077380D02*
X148060595Y-71125000D01*
X148022500Y-71172619D01*
X147984404Y-71125000D01*
X148022500Y-71077380D01*
X148022500Y-71172619D01*
X147755833Y-71410714D02*
X147451071Y-71410714D01*
X147641547Y-71077380D02*
X147641547Y-71934523D01*
X147603452Y-72029761D01*
X147527261Y-72077380D01*
X147451071Y-72077380D01*
X146232023Y-72077380D02*
X146232023Y-71553571D01*
X146270119Y-71458333D01*
X146346309Y-71410714D01*
X146498690Y-71410714D01*
X146574880Y-71458333D01*
X146232023Y-72029761D02*
X146308214Y-72077380D01*
X146498690Y-72077380D01*
X146574880Y-72029761D01*
X146612976Y-71934523D01*
X146612976Y-71839285D01*
X146574880Y-71744047D01*
X146498690Y-71696428D01*
X146308214Y-71696428D01*
X146232023Y-71648809D01*
X145736785Y-72077380D02*
X145812976Y-72029761D01*
X145851071Y-71934523D01*
X145851071Y-71077380D01*
X145317738Y-72077380D02*
X145393928Y-72029761D01*
X145432023Y-71934523D01*
X145432023Y-71077380D01*
X144289166Y-72077380D02*
X144365357Y-72029761D01*
X144403452Y-71982142D01*
X144441547Y-71886904D01*
X144441547Y-71601190D01*
X144403452Y-71505952D01*
X144365357Y-71458333D01*
X144289166Y-71410714D01*
X144174880Y-71410714D01*
X144098690Y-71458333D01*
X144060595Y-71505952D01*
X144022500Y-71601190D01*
X144022500Y-71886904D01*
X144060595Y-71982142D01*
X144098690Y-72029761D01*
X144174880Y-72077380D01*
X144289166Y-72077380D01*
X143793928Y-71410714D02*
X143489166Y-71410714D01*
X143679642Y-71077380D02*
X143679642Y-71934523D01*
X143641547Y-72029761D01*
X143565357Y-72077380D01*
X143489166Y-72077380D01*
X143222500Y-72077380D02*
X143222500Y-71077380D01*
X142879642Y-72077380D02*
X142879642Y-71553571D01*
X142917738Y-71458333D01*
X142993928Y-71410714D01*
X143108214Y-71410714D01*
X143184404Y-71458333D01*
X143222500Y-71505952D01*
X142193928Y-72029761D02*
X142270119Y-72077380D01*
X142422500Y-72077380D01*
X142498690Y-72029761D01*
X142536785Y-71934523D01*
X142536785Y-71553571D01*
X142498690Y-71458333D01*
X142422500Y-71410714D01*
X142270119Y-71410714D01*
X142193928Y-71458333D01*
X142155833Y-71553571D01*
X142155833Y-71648809D01*
X142536785Y-71744047D01*
X141812976Y-72077380D02*
X141812976Y-71410714D01*
X141812976Y-71601190D02*
X141774880Y-71505952D01*
X141736785Y-71458333D01*
X141660595Y-71410714D01*
X141584404Y-71410714D01*
X140708214Y-71410714D02*
X140708214Y-72410714D01*
X140708214Y-71458333D02*
X140632023Y-71410714D01*
X140479642Y-71410714D01*
X140403452Y-71458333D01*
X140365357Y-71505952D01*
X140327261Y-71601190D01*
X140327261Y-71886904D01*
X140365357Y-71982142D01*
X140403452Y-72029761D01*
X140479642Y-72077380D01*
X140632023Y-72077380D01*
X140708214Y-72029761D01*
X139641547Y-72077380D02*
X139641547Y-71553571D01*
X139679642Y-71458333D01*
X139755833Y-71410714D01*
X139908214Y-71410714D01*
X139984404Y-71458333D01*
X139641547Y-72029761D02*
X139717738Y-72077380D01*
X139908214Y-72077380D01*
X139984404Y-72029761D01*
X140022500Y-71934523D01*
X140022500Y-71839285D01*
X139984404Y-71744047D01*
X139908214Y-71696428D01*
X139717738Y-71696428D01*
X139641547Y-71648809D01*
X139260595Y-72077380D02*
X139260595Y-71410714D01*
X139260595Y-71601190D02*
X139222500Y-71505952D01*
X139184404Y-71458333D01*
X139108214Y-71410714D01*
X139032023Y-71410714D01*
X138879642Y-71410714D02*
X138574880Y-71410714D01*
X138765357Y-71077380D02*
X138765357Y-71934523D01*
X138727261Y-72029761D01*
X138651071Y-72077380D01*
X138574880Y-72077380D01*
X138346309Y-72029761D02*
X138270119Y-72077380D01*
X138117738Y-72077380D01*
X138041547Y-72029761D01*
X138003452Y-71934523D01*
X138003452Y-71886904D01*
X138041547Y-71791666D01*
X138117738Y-71744047D01*
X138232023Y-71744047D01*
X138308214Y-71696428D01*
X138346309Y-71601190D01*
X138346309Y-71553571D01*
X138308214Y-71458333D01*
X138232023Y-71410714D01*
X138117738Y-71410714D01*
X138041547Y-71458333D01*
X137165357Y-71410714D02*
X136860595Y-71410714D01*
X137051071Y-71077380D02*
X137051071Y-71934523D01*
X137012976Y-72029761D01*
X136936785Y-72077380D01*
X136860595Y-72077380D01*
X136479642Y-72077380D02*
X136555833Y-72029761D01*
X136593928Y-71982142D01*
X136632023Y-71886904D01*
X136632023Y-71601190D01*
X136593928Y-71505952D01*
X136555833Y-71458333D01*
X136479642Y-71410714D01*
X136365357Y-71410714D01*
X136289166Y-71458333D01*
X136251071Y-71505952D01*
X136212976Y-71601190D01*
X136212976Y-71886904D01*
X136251071Y-71982142D01*
X136289166Y-72029761D01*
X136365357Y-72077380D01*
X136479642Y-72077380D01*
X135146309Y-72077380D02*
X135222500Y-72029761D01*
X135260595Y-71982142D01*
X135298690Y-71886904D01*
X135298690Y-71601190D01*
X135260595Y-71505952D01*
X135222500Y-71458333D01*
X135146309Y-71410714D01*
X135032023Y-71410714D01*
X134955833Y-71458333D01*
X134917738Y-71505952D01*
X134879642Y-71601190D01*
X134879642Y-71886904D01*
X134917738Y-71982142D01*
X134955833Y-72029761D01*
X135032023Y-72077380D01*
X135146309Y-72077380D01*
X134651071Y-71410714D02*
X134346309Y-71410714D01*
X134536785Y-71077380D02*
X134536785Y-71934523D01*
X134498690Y-72029761D01*
X134422500Y-72077380D01*
X134346309Y-72077380D01*
X134079642Y-72077380D02*
X134079642Y-71077380D01*
X133736785Y-72077380D02*
X133736785Y-71553571D01*
X133774880Y-71458333D01*
X133851071Y-71410714D01*
X133965357Y-71410714D01*
X134041547Y-71458333D01*
X134079642Y-71505952D01*
X133051071Y-72029761D02*
X133127261Y-72077380D01*
X133279642Y-72077380D01*
X133355833Y-72029761D01*
X133393928Y-71934523D01*
X133393928Y-71553571D01*
X133355833Y-71458333D01*
X133279642Y-71410714D01*
X133127261Y-71410714D01*
X133051071Y-71458333D01*
X133012976Y-71553571D01*
X133012976Y-71648809D01*
X133393928Y-71744047D01*
X132670119Y-72077380D02*
X132670119Y-71410714D01*
X132670119Y-71601190D02*
X132632023Y-71505952D01*
X132593928Y-71458333D01*
X132517738Y-71410714D01*
X132441547Y-71410714D01*
X131336785Y-72458333D02*
X131374880Y-72410714D01*
X131451071Y-72267857D01*
X131489166Y-72172619D01*
X131527261Y-72029761D01*
X131565357Y-71791666D01*
X131565357Y-71601190D01*
X131527261Y-71363095D01*
X131489166Y-71220238D01*
X131451071Y-71125000D01*
X131374880Y-70982142D01*
X131336785Y-70934523D01*
X131146309Y-71410714D02*
X130841547Y-71410714D01*
X131032023Y-71077380D02*
X131032023Y-71934523D01*
X130993928Y-72029761D01*
X130917738Y-72077380D01*
X130841547Y-72077380D01*
X130460595Y-72077380D02*
X130536785Y-72029761D01*
X130574880Y-71982142D01*
X130612976Y-71886904D01*
X130612976Y-71601190D01*
X130574880Y-71505952D01*
X130536785Y-71458333D01*
X130460595Y-71410714D01*
X130346309Y-71410714D01*
X130270119Y-71458333D01*
X130232023Y-71505952D01*
X130193928Y-71601190D01*
X130193928Y-71886904D01*
X130232023Y-71982142D01*
X130270119Y-72029761D01*
X130346309Y-72077380D01*
X130460595Y-72077380D01*
X129851071Y-71410714D02*
X129851071Y-72410714D01*
X129851071Y-71458333D02*
X129774880Y-71410714D01*
X129622500Y-71410714D01*
X129546309Y-71458333D01*
X129508214Y-71505952D01*
X129470119Y-71601190D01*
X129470119Y-71886904D01*
X129508214Y-71982142D01*
X129546309Y-72029761D01*
X129622500Y-72077380D01*
X129774880Y-72077380D01*
X129851071Y-72029761D01*
X129203452Y-72458333D02*
X129165357Y-72410714D01*
X129089166Y-72267857D01*
X129051071Y-72172619D01*
X129012976Y-72029761D01*
X128974880Y-71791666D01*
X128974880Y-71601190D01*
X129012976Y-71363095D01*
X129051071Y-71220238D01*
X129089166Y-71125000D01*
X129165357Y-70982142D01*
X129203452Y-70934523D01*
X128022500Y-72029761D02*
X127946309Y-72077380D01*
X127793928Y-72077380D01*
X127717738Y-72029761D01*
X127679642Y-71934523D01*
X127679642Y-71886904D01*
X127717738Y-71791666D01*
X127793928Y-71744047D01*
X127908214Y-71744047D01*
X127984404Y-71696428D01*
X128022500Y-71601190D01*
X128022500Y-71553571D01*
X127984404Y-71458333D01*
X127908214Y-71410714D01*
X127793928Y-71410714D01*
X127717738Y-71458333D01*
X127336785Y-72077380D02*
X127336785Y-71410714D01*
X127336785Y-71077380D02*
X127374880Y-71125000D01*
X127336785Y-71172619D01*
X127298690Y-71125000D01*
X127336785Y-71077380D01*
X127336785Y-71172619D01*
X126612976Y-72077380D02*
X126612976Y-71077380D01*
X126612976Y-72029761D02*
X126689166Y-72077380D01*
X126841547Y-72077380D01*
X126917738Y-72029761D01*
X126955833Y-71982142D01*
X126993928Y-71886904D01*
X126993928Y-71601190D01*
X126955833Y-71505952D01*
X126917738Y-71458333D01*
X126841547Y-71410714D01*
X126689166Y-71410714D01*
X126612976Y-71458333D01*
X125927261Y-72029761D02*
X126003452Y-72077380D01*
X126155833Y-72077380D01*
X126232023Y-72029761D01*
X126270119Y-71934523D01*
X126270119Y-71553571D01*
X126232023Y-71458333D01*
X126155833Y-71410714D01*
X126003452Y-71410714D01*
X125927261Y-71458333D01*
X125889166Y-71553571D01*
X125889166Y-71648809D01*
X126270119Y-71744047D01*
X124822500Y-72077380D02*
X124898690Y-72029761D01*
X124936785Y-71982142D01*
X124974880Y-71886904D01*
X124974880Y-71601190D01*
X124936785Y-71505952D01*
X124898690Y-71458333D01*
X124822500Y-71410714D01*
X124708214Y-71410714D01*
X124632023Y-71458333D01*
X124593928Y-71505952D01*
X124555833Y-71601190D01*
X124555833Y-71886904D01*
X124593928Y-71982142D01*
X124632023Y-72029761D01*
X124708214Y-72077380D01*
X124822500Y-72077380D01*
X124327261Y-71410714D02*
X124022500Y-71410714D01*
X124212976Y-72077380D02*
X124212976Y-71220238D01*
X124174880Y-71125000D01*
X124098690Y-71077380D01*
X124022500Y-71077380D01*
X123260595Y-71410714D02*
X122955833Y-71410714D01*
X123146309Y-71077380D02*
X123146309Y-71934523D01*
X123108214Y-72029761D01*
X123032023Y-72077380D01*
X122955833Y-72077380D01*
X122689166Y-72077380D02*
X122689166Y-71077380D01*
X122346309Y-72077380D02*
X122346309Y-71553571D01*
X122384404Y-71458333D01*
X122460595Y-71410714D01*
X122574880Y-71410714D01*
X122651071Y-71458333D01*
X122689166Y-71505952D01*
X121660595Y-72029761D02*
X121736785Y-72077380D01*
X121889166Y-72077380D01*
X121965357Y-72029761D01*
X122003452Y-71934523D01*
X122003452Y-71553571D01*
X121965357Y-71458333D01*
X121889166Y-71410714D01*
X121736785Y-71410714D01*
X121660595Y-71458333D01*
X121622500Y-71553571D01*
X121622500Y-71648809D01*
X122003452Y-71744047D01*
X120670119Y-72077380D02*
X120670119Y-71077380D01*
X120670119Y-71458333D02*
X120593928Y-71410714D01*
X120441547Y-71410714D01*
X120365357Y-71458333D01*
X120327261Y-71505952D01*
X120289166Y-71601190D01*
X120289166Y-71886904D01*
X120327261Y-71982142D01*
X120365357Y-72029761D01*
X120441547Y-72077380D01*
X120593928Y-72077380D01*
X120670119Y-72029761D01*
X119832023Y-72077380D02*
X119908214Y-72029761D01*
X119946309Y-71982142D01*
X119984404Y-71886904D01*
X119984404Y-71601190D01*
X119946309Y-71505952D01*
X119908214Y-71458333D01*
X119832023Y-71410714D01*
X119717738Y-71410714D01*
X119641547Y-71458333D01*
X119603452Y-71505952D01*
X119565357Y-71601190D01*
X119565357Y-71886904D01*
X119603452Y-71982142D01*
X119641547Y-72029761D01*
X119717738Y-72077380D01*
X119832023Y-72077380D01*
X118879642Y-72077380D02*
X118879642Y-71553571D01*
X118917738Y-71458333D01*
X118993928Y-71410714D01*
X119146309Y-71410714D01*
X119222500Y-71458333D01*
X118879642Y-72029761D02*
X118955833Y-72077380D01*
X119146309Y-72077380D01*
X119222500Y-72029761D01*
X119260595Y-71934523D01*
X119260595Y-71839285D01*
X119222500Y-71744047D01*
X119146309Y-71696428D01*
X118955833Y-71696428D01*
X118879642Y-71648809D01*
X118498690Y-72077380D02*
X118498690Y-71410714D01*
X118498690Y-71601190D02*
X118460595Y-71505952D01*
X118422500Y-71458333D01*
X118346309Y-71410714D01*
X118270119Y-71410714D01*
X117660595Y-72077380D02*
X117660595Y-71077380D01*
X117660595Y-72029761D02*
X117736785Y-72077380D01*
X117889166Y-72077380D01*
X117965357Y-72029761D01*
X118003452Y-71982142D01*
X118041547Y-71886904D01*
X118041547Y-71601190D01*
X118003452Y-71505952D01*
X117965357Y-71458333D01*
X117889166Y-71410714D01*
X117736785Y-71410714D01*
X117660595Y-71458333D01*
X117279642Y-71982142D02*
X117241547Y-72029761D01*
X117279642Y-72077380D01*
X117317738Y-72029761D01*
X117279642Y-71982142D01*
X117279642Y-72077380D01*
X182782023Y-85857380D02*
X182782023Y-84857380D01*
X182477261Y-84857380D01*
X182401071Y-84905000D01*
X182362976Y-84952619D01*
X182324880Y-85047857D01*
X182324880Y-85190714D01*
X182362976Y-85285952D01*
X182401071Y-85333571D01*
X182477261Y-85381190D01*
X182782023Y-85381190D01*
X181982023Y-85857380D02*
X181982023Y-84857380D01*
X181448690Y-84857380D02*
X181296309Y-84857380D01*
X181220119Y-84905000D01*
X181143928Y-85000238D01*
X181105833Y-85190714D01*
X181105833Y-85524047D01*
X181143928Y-85714523D01*
X181220119Y-85809761D01*
X181296309Y-85857380D01*
X181448690Y-85857380D01*
X181524880Y-85809761D01*
X181601071Y-85714523D01*
X181639166Y-85524047D01*
X181639166Y-85190714D01*
X181601071Y-85000238D01*
X181524880Y-84905000D01*
X181448690Y-84857380D01*
X180762976Y-85476428D02*
X180153452Y-85476428D01*
X179810595Y-85809761D02*
X179696309Y-85857380D01*
X179505833Y-85857380D01*
X179429642Y-85809761D01*
X179391547Y-85762142D01*
X179353452Y-85666904D01*
X179353452Y-85571666D01*
X179391547Y-85476428D01*
X179429642Y-85428809D01*
X179505833Y-85381190D01*
X179658214Y-85333571D01*
X179734404Y-85285952D01*
X179772500Y-85238333D01*
X179810595Y-85143095D01*
X179810595Y-85047857D01*
X179772500Y-84952619D01*
X179734404Y-84905000D01*
X179658214Y-84857380D01*
X179467738Y-84857380D01*
X179353452Y-84905000D01*
X179010595Y-85857380D02*
X179010595Y-84857380D01*
X178705833Y-84857380D01*
X178629642Y-84905000D01*
X178591547Y-84952619D01*
X178553452Y-85047857D01*
X178553452Y-85190714D01*
X178591547Y-85285952D01*
X178629642Y-85333571D01*
X178705833Y-85381190D01*
X179010595Y-85381190D01*
X177601071Y-85857380D02*
X177601071Y-85190714D01*
X177601071Y-84857380D02*
X177639166Y-84905000D01*
X177601071Y-84952619D01*
X177562976Y-84905000D01*
X177601071Y-84857380D01*
X177601071Y-84952619D01*
X177258214Y-85809761D02*
X177182023Y-85857380D01*
X177029642Y-85857380D01*
X176953452Y-85809761D01*
X176915357Y-85714523D01*
X176915357Y-85666904D01*
X176953452Y-85571666D01*
X177029642Y-85524047D01*
X177143928Y-85524047D01*
X177220119Y-85476428D01*
X177258214Y-85381190D01*
X177258214Y-85333571D01*
X177220119Y-85238333D01*
X177143928Y-85190714D01*
X177029642Y-85190714D01*
X176953452Y-85238333D01*
X175848690Y-85857380D02*
X175924880Y-85809761D01*
X175962976Y-85714523D01*
X175962976Y-84857380D01*
X175429642Y-85857380D02*
X175505833Y-85809761D01*
X175543928Y-85762142D01*
X175582023Y-85666904D01*
X175582023Y-85381190D01*
X175543928Y-85285952D01*
X175505833Y-85238333D01*
X175429642Y-85190714D01*
X175315357Y-85190714D01*
X175239166Y-85238333D01*
X175201071Y-85285952D01*
X175162976Y-85381190D01*
X175162976Y-85666904D01*
X175201071Y-85762142D01*
X175239166Y-85809761D01*
X175315357Y-85857380D01*
X175429642Y-85857380D01*
X174477261Y-85809761D02*
X174553452Y-85857380D01*
X174705833Y-85857380D01*
X174782023Y-85809761D01*
X174820119Y-85762142D01*
X174858214Y-85666904D01*
X174858214Y-85381190D01*
X174820119Y-85285952D01*
X174782023Y-85238333D01*
X174705833Y-85190714D01*
X174553452Y-85190714D01*
X174477261Y-85238333D01*
X173791547Y-85857380D02*
X173791547Y-85333571D01*
X173829642Y-85238333D01*
X173905833Y-85190714D01*
X174058214Y-85190714D01*
X174134404Y-85238333D01*
X173791547Y-85809761D02*
X173867738Y-85857380D01*
X174058214Y-85857380D01*
X174134404Y-85809761D01*
X174172500Y-85714523D01*
X174172500Y-85619285D01*
X174134404Y-85524047D01*
X174058214Y-85476428D01*
X173867738Y-85476428D01*
X173791547Y-85428809D01*
X173524880Y-85190714D02*
X173220119Y-85190714D01*
X173410595Y-84857380D02*
X173410595Y-85714523D01*
X173372500Y-85809761D01*
X173296309Y-85857380D01*
X173220119Y-85857380D01*
X172648690Y-85809761D02*
X172724880Y-85857380D01*
X172877261Y-85857380D01*
X172953452Y-85809761D01*
X172991547Y-85714523D01*
X172991547Y-85333571D01*
X172953452Y-85238333D01*
X172877261Y-85190714D01*
X172724880Y-85190714D01*
X172648690Y-85238333D01*
X172610595Y-85333571D01*
X172610595Y-85428809D01*
X172991547Y-85524047D01*
X171924880Y-85857380D02*
X171924880Y-84857380D01*
X171924880Y-85809761D02*
X172001071Y-85857380D01*
X172153452Y-85857380D01*
X172229642Y-85809761D01*
X172267738Y-85762142D01*
X172305833Y-85666904D01*
X172305833Y-85381190D01*
X172267738Y-85285952D01*
X172229642Y-85238333D01*
X172153452Y-85190714D01*
X172001071Y-85190714D01*
X171924880Y-85238333D01*
X170934404Y-85857380D02*
X170934404Y-85190714D01*
X170934404Y-84857380D02*
X170972500Y-84905000D01*
X170934404Y-84952619D01*
X170896309Y-84905000D01*
X170934404Y-84857380D01*
X170934404Y-84952619D01*
X170553452Y-85190714D02*
X170553452Y-85857380D01*
X170553452Y-85285952D02*
X170515357Y-85238333D01*
X170439166Y-85190714D01*
X170324880Y-85190714D01*
X170248690Y-85238333D01*
X170210595Y-85333571D01*
X170210595Y-85857380D01*
X169334404Y-85190714D02*
X169029642Y-85190714D01*
X169220119Y-84857380D02*
X169220119Y-85714523D01*
X169182023Y-85809761D01*
X169105833Y-85857380D01*
X169029642Y-85857380D01*
X168762976Y-85857380D02*
X168762976Y-84857380D01*
X168420119Y-85857380D02*
X168420119Y-85333571D01*
X168458214Y-85238333D01*
X168534404Y-85190714D01*
X168648690Y-85190714D01*
X168724880Y-85238333D01*
X168762976Y-85285952D01*
X167734404Y-85809761D02*
X167810595Y-85857380D01*
X167962976Y-85857380D01*
X168039166Y-85809761D01*
X168077261Y-85714523D01*
X168077261Y-85333571D01*
X168039166Y-85238333D01*
X167962976Y-85190714D01*
X167810595Y-85190714D01*
X167734404Y-85238333D01*
X167696309Y-85333571D01*
X167696309Y-85428809D01*
X168077261Y-85524047D01*
X166782023Y-85809761D02*
X166667738Y-85857380D01*
X166477261Y-85857380D01*
X166401071Y-85809761D01*
X166362976Y-85762142D01*
X166324880Y-85666904D01*
X166324880Y-85571666D01*
X166362976Y-85476428D01*
X166401071Y-85428809D01*
X166477261Y-85381190D01*
X166629642Y-85333571D01*
X166705833Y-85285952D01*
X166743928Y-85238333D01*
X166782023Y-85143095D01*
X166782023Y-85047857D01*
X166743928Y-84952619D01*
X166705833Y-84905000D01*
X166629642Y-84857380D01*
X166439166Y-84857380D01*
X166324880Y-84905000D01*
X165982023Y-85190714D02*
X165982023Y-86190714D01*
X165982023Y-85238333D02*
X165905833Y-85190714D01*
X165753452Y-85190714D01*
X165677261Y-85238333D01*
X165639166Y-85285952D01*
X165601071Y-85381190D01*
X165601071Y-85666904D01*
X165639166Y-85762142D01*
X165677261Y-85809761D01*
X165753452Y-85857380D01*
X165905833Y-85857380D01*
X165982023Y-85809761D01*
X164953452Y-85809761D02*
X165029642Y-85857380D01*
X165182023Y-85857380D01*
X165258214Y-85809761D01*
X165296309Y-85714523D01*
X165296309Y-85333571D01*
X165258214Y-85238333D01*
X165182023Y-85190714D01*
X165029642Y-85190714D01*
X164953452Y-85238333D01*
X164915357Y-85333571D01*
X164915357Y-85428809D01*
X165296309Y-85524047D01*
X164229642Y-85809761D02*
X164305833Y-85857380D01*
X164458214Y-85857380D01*
X164534404Y-85809761D01*
X164572500Y-85762142D01*
X164610595Y-85666904D01*
X164610595Y-85381190D01*
X164572500Y-85285952D01*
X164534404Y-85238333D01*
X164458214Y-85190714D01*
X164305833Y-85190714D01*
X164229642Y-85238333D01*
X164001071Y-85190714D02*
X163696309Y-85190714D01*
X163886785Y-84857380D02*
X163886785Y-85714523D01*
X163848690Y-85809761D01*
X163772500Y-85857380D01*
X163696309Y-85857380D01*
X163429642Y-85857380D02*
X163429642Y-85190714D01*
X163429642Y-85381190D02*
X163391547Y-85285952D01*
X163353452Y-85238333D01*
X163277261Y-85190714D01*
X163201071Y-85190714D01*
X162591547Y-85190714D02*
X162591547Y-85857380D01*
X162934404Y-85190714D02*
X162934404Y-85714523D01*
X162896309Y-85809761D01*
X162820119Y-85857380D01*
X162705833Y-85857380D01*
X162629642Y-85809761D01*
X162591547Y-85762142D01*
X162210595Y-85857380D02*
X162210595Y-85190714D01*
X162210595Y-85285952D02*
X162172500Y-85238333D01*
X162096309Y-85190714D01*
X161982023Y-85190714D01*
X161905833Y-85238333D01*
X161867738Y-85333571D01*
X161867738Y-85857380D01*
X161867738Y-85333571D02*
X161829642Y-85238333D01*
X161753452Y-85190714D01*
X161639166Y-85190714D01*
X161562976Y-85238333D01*
X161524880Y-85333571D01*
X161524880Y-85857380D01*
X161105833Y-84857380D02*
X161182023Y-85047857D01*
X160801071Y-85809761D02*
X160724880Y-85857380D01*
X160572500Y-85857380D01*
X160496309Y-85809761D01*
X160458214Y-85714523D01*
X160458214Y-85666904D01*
X160496309Y-85571666D01*
X160572500Y-85524047D01*
X160686785Y-85524047D01*
X160762976Y-85476428D01*
X160801071Y-85381190D01*
X160801071Y-85333571D01*
X160762976Y-85238333D01*
X160686785Y-85190714D01*
X160572500Y-85190714D01*
X160496309Y-85238333D01*
X159505833Y-85857380D02*
X159505833Y-84857380D01*
X158553452Y-84809761D02*
X159239166Y-86095476D01*
X158134404Y-84857380D02*
X157982023Y-84857380D01*
X157905833Y-84905000D01*
X157829642Y-85000238D01*
X157791547Y-85190714D01*
X157791547Y-85524047D01*
X157829642Y-85714523D01*
X157905833Y-85809761D01*
X157982023Y-85857380D01*
X158134404Y-85857380D01*
X158210595Y-85809761D01*
X158286785Y-85714523D01*
X158324880Y-85524047D01*
X158324880Y-85190714D01*
X158286785Y-85000238D01*
X158210595Y-84905000D01*
X158134404Y-84857380D01*
X156839166Y-85857380D02*
X156839166Y-85190714D01*
X156839166Y-85285952D02*
X156801071Y-85238333D01*
X156724880Y-85190714D01*
X156610595Y-85190714D01*
X156534404Y-85238333D01*
X156496309Y-85333571D01*
X156496309Y-85857380D01*
X156496309Y-85333571D02*
X156458214Y-85238333D01*
X156382023Y-85190714D01*
X156267738Y-85190714D01*
X156191547Y-85238333D01*
X156153452Y-85333571D01*
X156153452Y-85857380D01*
X155429642Y-85857380D02*
X155429642Y-85333571D01*
X155467738Y-85238333D01*
X155543928Y-85190714D01*
X155696309Y-85190714D01*
X155772500Y-85238333D01*
X155429642Y-85809761D02*
X155505833Y-85857380D01*
X155696309Y-85857380D01*
X155772500Y-85809761D01*
X155810595Y-85714523D01*
X155810595Y-85619285D01*
X155772500Y-85524047D01*
X155696309Y-85476428D01*
X155505833Y-85476428D01*
X155429642Y-85428809D01*
X155048690Y-85190714D02*
X155048690Y-86190714D01*
X155048690Y-85238333D02*
X154972500Y-85190714D01*
X154820119Y-85190714D01*
X154743928Y-85238333D01*
X154705833Y-85285952D01*
X154667738Y-85381190D01*
X154667738Y-85666904D01*
X154705833Y-85762142D01*
X154743928Y-85809761D01*
X154820119Y-85857380D01*
X154972500Y-85857380D01*
X155048690Y-85809761D01*
X153372500Y-85857380D02*
X153372500Y-85333571D01*
X153410595Y-85238333D01*
X153486785Y-85190714D01*
X153639166Y-85190714D01*
X153715357Y-85238333D01*
X153372500Y-85809761D02*
X153448690Y-85857380D01*
X153639166Y-85857380D01*
X153715357Y-85809761D01*
X153753452Y-85714523D01*
X153753452Y-85619285D01*
X153715357Y-85524047D01*
X153639166Y-85476428D01*
X153448690Y-85476428D01*
X153372500Y-85428809D01*
X153105833Y-85190714D02*
X152801071Y-85190714D01*
X152991547Y-84857380D02*
X152991547Y-85714523D01*
X152953452Y-85809761D01*
X152877261Y-85857380D01*
X152801071Y-85857380D01*
X151582023Y-85857380D02*
X151582023Y-85333571D01*
X151620119Y-85238333D01*
X151696309Y-85190714D01*
X151848690Y-85190714D01*
X151924880Y-85238333D01*
X151582023Y-85809761D02*
X151658214Y-85857380D01*
X151848690Y-85857380D01*
X151924880Y-85809761D01*
X151962976Y-85714523D01*
X151962976Y-85619285D01*
X151924880Y-85524047D01*
X151848690Y-85476428D01*
X151658214Y-85476428D01*
X151582023Y-85428809D01*
X150858214Y-85857380D02*
X150858214Y-84857380D01*
X150858214Y-85809761D02*
X150934404Y-85857380D01*
X151086785Y-85857380D01*
X151162976Y-85809761D01*
X151201071Y-85762142D01*
X151239166Y-85666904D01*
X151239166Y-85381190D01*
X151201071Y-85285952D01*
X151162976Y-85238333D01*
X151086785Y-85190714D01*
X150934404Y-85190714D01*
X150858214Y-85238333D01*
X150134404Y-85857380D02*
X150134404Y-84857380D01*
X150134404Y-85809761D02*
X150210595Y-85857380D01*
X150362976Y-85857380D01*
X150439166Y-85809761D01*
X150477261Y-85762142D01*
X150515357Y-85666904D01*
X150515357Y-85381190D01*
X150477261Y-85285952D01*
X150439166Y-85238333D01*
X150362976Y-85190714D01*
X150210595Y-85190714D01*
X150134404Y-85238333D01*
X149753452Y-85857380D02*
X149753452Y-85190714D01*
X149753452Y-85381190D02*
X149715357Y-85285952D01*
X149677261Y-85238333D01*
X149601071Y-85190714D01*
X149524880Y-85190714D01*
X148953452Y-85809761D02*
X149029642Y-85857380D01*
X149182023Y-85857380D01*
X149258214Y-85809761D01*
X149296309Y-85714523D01*
X149296309Y-85333571D01*
X149258214Y-85238333D01*
X149182023Y-85190714D01*
X149029642Y-85190714D01*
X148953452Y-85238333D01*
X148915357Y-85333571D01*
X148915357Y-85428809D01*
X149296309Y-85524047D01*
X148610595Y-85809761D02*
X148534404Y-85857380D01*
X148382023Y-85857380D01*
X148305833Y-85809761D01*
X148267738Y-85714523D01*
X148267738Y-85666904D01*
X148305833Y-85571666D01*
X148382023Y-85524047D01*
X148496309Y-85524047D01*
X148572500Y-85476428D01*
X148610595Y-85381190D01*
X148610595Y-85333571D01*
X148572500Y-85238333D01*
X148496309Y-85190714D01*
X148382023Y-85190714D01*
X148305833Y-85238333D01*
X147962976Y-85809761D02*
X147886785Y-85857380D01*
X147734404Y-85857380D01*
X147658214Y-85809761D01*
X147620119Y-85714523D01*
X147620119Y-85666904D01*
X147658214Y-85571666D01*
X147734404Y-85524047D01*
X147848690Y-85524047D01*
X147924880Y-85476428D01*
X147962976Y-85381190D01*
X147962976Y-85333571D01*
X147924880Y-85238333D01*
X147848690Y-85190714D01*
X147734404Y-85190714D01*
X147658214Y-85238333D01*
X146324880Y-84857380D02*
X146477261Y-84857380D01*
X146553452Y-84905000D01*
X146591547Y-84952619D01*
X146667738Y-85095476D01*
X146705833Y-85285952D01*
X146705833Y-85666904D01*
X146667738Y-85762142D01*
X146629642Y-85809761D01*
X146553452Y-85857380D01*
X146401071Y-85857380D01*
X146324880Y-85809761D01*
X146286785Y-85762142D01*
X146248690Y-85666904D01*
X146248690Y-85428809D01*
X146286785Y-85333571D01*
X146324880Y-85285952D01*
X146401071Y-85238333D01*
X146553452Y-85238333D01*
X146629642Y-85285952D01*
X146667738Y-85333571D01*
X146705833Y-85428809D01*
X145982023Y-84857380D02*
X145486785Y-84857380D01*
X145753452Y-85238333D01*
X145639166Y-85238333D01*
X145562976Y-85285952D01*
X145524880Y-85333571D01*
X145486785Y-85428809D01*
X145486785Y-85666904D01*
X145524880Y-85762142D01*
X145562976Y-85809761D01*
X145639166Y-85857380D01*
X145867738Y-85857380D01*
X145943928Y-85809761D01*
X145982023Y-85762142D01*
X144305833Y-86238333D02*
X144343928Y-86190714D01*
X144420119Y-86047857D01*
X144458214Y-85952619D01*
X144496309Y-85809761D01*
X144534404Y-85571666D01*
X144534404Y-85381190D01*
X144496309Y-85143095D01*
X144458214Y-85000238D01*
X144420119Y-84905000D01*
X144343928Y-84762142D01*
X144305833Y-84714523D01*
X143658214Y-85857380D02*
X143658214Y-84857380D01*
X143658214Y-85809761D02*
X143734404Y-85857380D01*
X143886785Y-85857380D01*
X143962976Y-85809761D01*
X144001071Y-85762142D01*
X144039166Y-85666904D01*
X144039166Y-85381190D01*
X144001071Y-85285952D01*
X143962976Y-85238333D01*
X143886785Y-85190714D01*
X143734404Y-85190714D01*
X143658214Y-85238333D01*
X142972500Y-85809761D02*
X143048690Y-85857380D01*
X143201071Y-85857380D01*
X143277261Y-85809761D01*
X143315357Y-85714523D01*
X143315357Y-85333571D01*
X143277261Y-85238333D01*
X143201071Y-85190714D01*
X143048690Y-85190714D01*
X142972500Y-85238333D01*
X142934404Y-85333571D01*
X142934404Y-85428809D01*
X143315357Y-85524047D01*
X142248690Y-85809761D02*
X142324880Y-85857380D01*
X142477261Y-85857380D01*
X142553452Y-85809761D01*
X142591547Y-85762142D01*
X142629642Y-85666904D01*
X142629642Y-85381190D01*
X142591547Y-85285952D01*
X142553452Y-85238333D01*
X142477261Y-85190714D01*
X142324880Y-85190714D01*
X142248690Y-85238333D01*
X141905833Y-85857380D02*
X141905833Y-85190714D01*
X141905833Y-84857380D02*
X141943928Y-84905000D01*
X141905833Y-84952619D01*
X141867738Y-84905000D01*
X141905833Y-84857380D01*
X141905833Y-84952619D01*
X141524880Y-85857380D02*
X141524880Y-85190714D01*
X141524880Y-85285952D02*
X141486785Y-85238333D01*
X141410595Y-85190714D01*
X141296309Y-85190714D01*
X141220119Y-85238333D01*
X141182023Y-85333571D01*
X141182023Y-85857380D01*
X141182023Y-85333571D02*
X141143928Y-85238333D01*
X141067738Y-85190714D01*
X140953452Y-85190714D01*
X140877261Y-85238333D01*
X140839166Y-85333571D01*
X140839166Y-85857380D01*
X140115357Y-85857380D02*
X140115357Y-85333571D01*
X140153452Y-85238333D01*
X140229642Y-85190714D01*
X140382023Y-85190714D01*
X140458214Y-85238333D01*
X140115357Y-85809761D02*
X140191547Y-85857380D01*
X140382023Y-85857380D01*
X140458214Y-85809761D01*
X140496309Y-85714523D01*
X140496309Y-85619285D01*
X140458214Y-85524047D01*
X140382023Y-85476428D01*
X140191547Y-85476428D01*
X140115357Y-85428809D01*
X139620119Y-85857380D02*
X139696309Y-85809761D01*
X139734404Y-85714523D01*
X139734404Y-84857380D01*
X139391547Y-86238333D02*
X139353452Y-86190714D01*
X139277261Y-86047857D01*
X139239166Y-85952619D01*
X139201071Y-85809761D01*
X139162976Y-85571666D01*
X139162976Y-85381190D01*
X139201071Y-85143095D01*
X139239166Y-85000238D01*
X139277261Y-84905000D01*
X139353452Y-84762142D01*
X139391547Y-84714523D01*
X138782023Y-85762142D02*
X138743928Y-85809761D01*
X138782023Y-85857380D01*
X138820119Y-85809761D01*
X138782023Y-85762142D01*
X138782023Y-85857380D01*
X182515357Y-86943571D02*
X182401071Y-86991190D01*
X182362976Y-87038809D01*
X182324880Y-87134047D01*
X182324880Y-87276904D01*
X182362976Y-87372142D01*
X182401071Y-87419761D01*
X182477261Y-87467380D01*
X182782023Y-87467380D01*
X182782023Y-86467380D01*
X182515357Y-86467380D01*
X182439166Y-86515000D01*
X182401071Y-86562619D01*
X182362976Y-86657857D01*
X182362976Y-86753095D01*
X182401071Y-86848333D01*
X182439166Y-86895952D01*
X182515357Y-86943571D01*
X182782023Y-86943571D01*
X181867738Y-87467380D02*
X181943928Y-87419761D01*
X181982023Y-87372142D01*
X182020119Y-87276904D01*
X182020119Y-86991190D01*
X181982023Y-86895952D01*
X181943928Y-86848333D01*
X181867738Y-86800714D01*
X181753452Y-86800714D01*
X181677261Y-86848333D01*
X181639166Y-86895952D01*
X181601071Y-86991190D01*
X181601071Y-87276904D01*
X181639166Y-87372142D01*
X181677261Y-87419761D01*
X181753452Y-87467380D01*
X181867738Y-87467380D01*
X181372500Y-86800714D02*
X181067738Y-86800714D01*
X181258214Y-86467380D02*
X181258214Y-87324523D01*
X181220119Y-87419761D01*
X181143928Y-87467380D01*
X181067738Y-87467380D01*
X180801071Y-87467380D02*
X180801071Y-86467380D01*
X180458214Y-87467380D02*
X180458214Y-86943571D01*
X180496309Y-86848333D01*
X180572500Y-86800714D01*
X180686785Y-86800714D01*
X180762976Y-86848333D01*
X180801071Y-86895952D01*
X179467738Y-86800714D02*
X179467738Y-87800714D01*
X179467738Y-86848333D02*
X179391547Y-86800714D01*
X179239166Y-86800714D01*
X179162976Y-86848333D01*
X179124880Y-86895952D01*
X179086785Y-86991190D01*
X179086785Y-87276904D01*
X179124880Y-87372142D01*
X179162976Y-87419761D01*
X179239166Y-87467380D01*
X179391547Y-87467380D01*
X179467738Y-87419761D01*
X178629642Y-87467380D02*
X178705833Y-87419761D01*
X178743928Y-87372142D01*
X178782023Y-87276904D01*
X178782023Y-86991190D01*
X178743928Y-86895952D01*
X178705833Y-86848333D01*
X178629642Y-86800714D01*
X178515357Y-86800714D01*
X178439166Y-86848333D01*
X178401071Y-86895952D01*
X178362976Y-86991190D01*
X178362976Y-87276904D01*
X178401071Y-87372142D01*
X178439166Y-87419761D01*
X178515357Y-87467380D01*
X178629642Y-87467380D01*
X178020119Y-87467380D02*
X178020119Y-86800714D01*
X178020119Y-86991190D02*
X177982023Y-86895952D01*
X177943928Y-86848333D01*
X177867738Y-86800714D01*
X177791547Y-86800714D01*
X177639166Y-86800714D02*
X177334404Y-86800714D01*
X177524880Y-86467380D02*
X177524880Y-87324523D01*
X177486785Y-87419761D01*
X177410595Y-87467380D01*
X177334404Y-87467380D01*
X177105833Y-87419761D02*
X177029642Y-87467380D01*
X176877261Y-87467380D01*
X176801071Y-87419761D01*
X176762976Y-87324523D01*
X176762976Y-87276904D01*
X176801071Y-87181666D01*
X176877261Y-87134047D01*
X176991547Y-87134047D01*
X177067738Y-87086428D01*
X177105833Y-86991190D01*
X177105833Y-86943571D01*
X177067738Y-86848333D01*
X176991547Y-86800714D01*
X176877261Y-86800714D01*
X176801071Y-86848333D01*
X175810595Y-87467380D02*
X175810595Y-86467380D01*
X175467738Y-87467380D02*
X175467738Y-86943571D01*
X175505833Y-86848333D01*
X175582023Y-86800714D01*
X175696309Y-86800714D01*
X175772500Y-86848333D01*
X175810595Y-86895952D01*
X174743928Y-87467380D02*
X174743928Y-86943571D01*
X174782023Y-86848333D01*
X174858214Y-86800714D01*
X175010595Y-86800714D01*
X175086785Y-86848333D01*
X174743928Y-87419761D02*
X174820119Y-87467380D01*
X175010595Y-87467380D01*
X175086785Y-87419761D01*
X175124880Y-87324523D01*
X175124880Y-87229285D01*
X175086785Y-87134047D01*
X175010595Y-87086428D01*
X174820119Y-87086428D01*
X174743928Y-87038809D01*
X174439166Y-86800714D02*
X174248690Y-87467380D01*
X174058214Y-86800714D01*
X173448690Y-87419761D02*
X173524880Y-87467380D01*
X173677261Y-87467380D01*
X173753452Y-87419761D01*
X173791547Y-87324523D01*
X173791547Y-86943571D01*
X173753452Y-86848333D01*
X173677261Y-86800714D01*
X173524880Y-86800714D01*
X173448690Y-86848333D01*
X173410595Y-86943571D01*
X173410595Y-87038809D01*
X173791547Y-87134047D01*
X172572500Y-86800714D02*
X172267738Y-86800714D01*
X172458214Y-86467380D02*
X172458214Y-87324523D01*
X172420119Y-87419761D01*
X172343928Y-87467380D01*
X172267738Y-87467380D01*
X172001071Y-87467380D02*
X172001071Y-86467380D01*
X171658214Y-87467380D02*
X171658214Y-86943571D01*
X171696309Y-86848333D01*
X171772500Y-86800714D01*
X171886785Y-86800714D01*
X171962976Y-86848333D01*
X172001071Y-86895952D01*
X170972500Y-87419761D02*
X171048690Y-87467380D01*
X171201071Y-87467380D01*
X171277261Y-87419761D01*
X171315357Y-87324523D01*
X171315357Y-86943571D01*
X171277261Y-86848333D01*
X171201071Y-86800714D01*
X171048690Y-86800714D01*
X170972500Y-86848333D01*
X170934404Y-86943571D01*
X170934404Y-87038809D01*
X171315357Y-87134047D01*
X170020119Y-87419761D02*
X169943928Y-87467380D01*
X169791547Y-87467380D01*
X169715357Y-87419761D01*
X169677261Y-87324523D01*
X169677261Y-87276904D01*
X169715357Y-87181666D01*
X169791547Y-87134047D01*
X169905833Y-87134047D01*
X169982023Y-87086428D01*
X170020119Y-86991190D01*
X170020119Y-86943571D01*
X169982023Y-86848333D01*
X169905833Y-86800714D01*
X169791547Y-86800714D01*
X169715357Y-86848333D01*
X168991547Y-87467380D02*
X168991547Y-86943571D01*
X169029642Y-86848333D01*
X169105833Y-86800714D01*
X169258214Y-86800714D01*
X169334404Y-86848333D01*
X168991547Y-87419761D02*
X169067738Y-87467380D01*
X169258214Y-87467380D01*
X169334404Y-87419761D01*
X169372500Y-87324523D01*
X169372500Y-87229285D01*
X169334404Y-87134047D01*
X169258214Y-87086428D01*
X169067738Y-87086428D01*
X168991547Y-87038809D01*
X168610595Y-87467380D02*
X168610595Y-86800714D01*
X168610595Y-86895952D02*
X168572500Y-86848333D01*
X168496309Y-86800714D01*
X168382023Y-86800714D01*
X168305833Y-86848333D01*
X168267738Y-86943571D01*
X168267738Y-87467380D01*
X168267738Y-86943571D02*
X168229642Y-86848333D01*
X168153452Y-86800714D01*
X168039166Y-86800714D01*
X167962976Y-86848333D01*
X167924880Y-86943571D01*
X167924880Y-87467380D01*
X167239166Y-87419761D02*
X167315357Y-87467380D01*
X167467738Y-87467380D01*
X167543928Y-87419761D01*
X167582023Y-87324523D01*
X167582023Y-86943571D01*
X167543928Y-86848333D01*
X167467738Y-86800714D01*
X167315357Y-86800714D01*
X167239166Y-86848333D01*
X167201071Y-86943571D01*
X167201071Y-87038809D01*
X167582023Y-87134047D01*
X165905833Y-87467380D02*
X165905833Y-86943571D01*
X165943928Y-86848333D01*
X166020119Y-86800714D01*
X166172500Y-86800714D01*
X166248690Y-86848333D01*
X165905833Y-87419761D02*
X165982023Y-87467380D01*
X166172500Y-87467380D01*
X166248690Y-87419761D01*
X166286785Y-87324523D01*
X166286785Y-87229285D01*
X166248690Y-87134047D01*
X166172500Y-87086428D01*
X165982023Y-87086428D01*
X165905833Y-87038809D01*
X165182023Y-87467380D02*
X165182023Y-86467380D01*
X165182023Y-87419761D02*
X165258214Y-87467380D01*
X165410595Y-87467380D01*
X165486785Y-87419761D01*
X165524880Y-87372142D01*
X165562976Y-87276904D01*
X165562976Y-86991190D01*
X165524880Y-86895952D01*
X165486785Y-86848333D01*
X165410595Y-86800714D01*
X165258214Y-86800714D01*
X165182023Y-86848333D01*
X164458214Y-87467380D02*
X164458214Y-86467380D01*
X164458214Y-87419761D02*
X164534404Y-87467380D01*
X164686785Y-87467380D01*
X164762976Y-87419761D01*
X164801071Y-87372142D01*
X164839166Y-87276904D01*
X164839166Y-86991190D01*
X164801071Y-86895952D01*
X164762976Y-86848333D01*
X164686785Y-86800714D01*
X164534404Y-86800714D01*
X164458214Y-86848333D01*
X164077261Y-87467380D02*
X164077261Y-86800714D01*
X164077261Y-86991190D02*
X164039166Y-86895952D01*
X164001071Y-86848333D01*
X163924880Y-86800714D01*
X163848690Y-86800714D01*
X163277261Y-87419761D02*
X163353452Y-87467380D01*
X163505833Y-87467380D01*
X163582023Y-87419761D01*
X163620119Y-87324523D01*
X163620119Y-86943571D01*
X163582023Y-86848333D01*
X163505833Y-86800714D01*
X163353452Y-86800714D01*
X163277261Y-86848333D01*
X163239166Y-86943571D01*
X163239166Y-87038809D01*
X163620119Y-87134047D01*
X162934404Y-87419761D02*
X162858214Y-87467380D01*
X162705833Y-87467380D01*
X162629642Y-87419761D01*
X162591547Y-87324523D01*
X162591547Y-87276904D01*
X162629642Y-87181666D01*
X162705833Y-87134047D01*
X162820119Y-87134047D01*
X162896309Y-87086428D01*
X162934404Y-86991190D01*
X162934404Y-86943571D01*
X162896309Y-86848333D01*
X162820119Y-86800714D01*
X162705833Y-86800714D01*
X162629642Y-86848333D01*
X162286785Y-87419761D02*
X162210595Y-87467380D01*
X162058214Y-87467380D01*
X161982023Y-87419761D01*
X161943928Y-87324523D01*
X161943928Y-87276904D01*
X161982023Y-87181666D01*
X162058214Y-87134047D01*
X162172500Y-87134047D01*
X162248690Y-87086428D01*
X162286785Y-86991190D01*
X162286785Y-86943571D01*
X162248690Y-86848333D01*
X162172500Y-86800714D01*
X162058214Y-86800714D01*
X161982023Y-86848333D01*
X161029642Y-87419761D02*
X160953452Y-87467380D01*
X160801071Y-87467380D01*
X160724880Y-87419761D01*
X160686785Y-87324523D01*
X160686785Y-87276904D01*
X160724880Y-87181666D01*
X160801071Y-87134047D01*
X160915357Y-87134047D01*
X160991547Y-87086428D01*
X161029642Y-86991190D01*
X161029642Y-86943571D01*
X160991547Y-86848333D01*
X160915357Y-86800714D01*
X160801071Y-86800714D01*
X160724880Y-86848333D01*
X160229642Y-87467380D02*
X160305833Y-87419761D01*
X160343928Y-87372142D01*
X160382023Y-87276904D01*
X160382023Y-86991190D01*
X160343928Y-86895952D01*
X160305833Y-86848333D01*
X160229642Y-86800714D01*
X160115357Y-86800714D01*
X160039166Y-86848333D01*
X160001071Y-86895952D01*
X159962976Y-86991190D01*
X159962976Y-87276904D01*
X160001071Y-87372142D01*
X160039166Y-87419761D01*
X160115357Y-87467380D01*
X160229642Y-87467380D01*
X158743928Y-86943571D02*
X158629642Y-86991190D01*
X158591547Y-87038809D01*
X158553452Y-87134047D01*
X158553452Y-87276904D01*
X158591547Y-87372142D01*
X158629642Y-87419761D01*
X158705833Y-87467380D01*
X159010595Y-87467380D01*
X159010595Y-86467380D01*
X158743928Y-86467380D01*
X158667738Y-86515000D01*
X158629642Y-86562619D01*
X158591547Y-86657857D01*
X158591547Y-86753095D01*
X158629642Y-86848333D01*
X158667738Y-86895952D01*
X158743928Y-86943571D01*
X159010595Y-86943571D01*
X158248690Y-87181666D02*
X157867738Y-87181666D01*
X158324880Y-87467380D02*
X158058214Y-86467380D01*
X157791547Y-87467380D01*
X157562976Y-87419761D02*
X157448690Y-87467380D01*
X157258214Y-87467380D01*
X157182023Y-87419761D01*
X157143928Y-87372142D01*
X157105833Y-87276904D01*
X157105833Y-87181666D01*
X157143928Y-87086428D01*
X157182023Y-87038809D01*
X157258214Y-86991190D01*
X157410595Y-86943571D01*
X157486785Y-86895952D01*
X157524880Y-86848333D01*
X157562976Y-86753095D01*
X157562976Y-86657857D01*
X157524880Y-86562619D01*
X157486785Y-86515000D01*
X157410595Y-86467380D01*
X157220119Y-86467380D01*
X157105833Y-86515000D01*
X156762976Y-87467380D02*
X156762976Y-86467380D01*
X155924880Y-87372142D02*
X155962976Y-87419761D01*
X156077261Y-87467380D01*
X156153452Y-87467380D01*
X156267738Y-87419761D01*
X156343928Y-87324523D01*
X156382023Y-87229285D01*
X156420119Y-87038809D01*
X156420119Y-86895952D01*
X156382023Y-86705476D01*
X156343928Y-86610238D01*
X156267738Y-86515000D01*
X156153452Y-86467380D01*
X156077261Y-86467380D01*
X155962976Y-86515000D01*
X155924880Y-86562619D01*
X154858214Y-87467380D02*
X154934404Y-87419761D01*
X154972500Y-87372142D01*
X155010595Y-87276904D01*
X155010595Y-86991190D01*
X154972500Y-86895952D01*
X154934404Y-86848333D01*
X154858214Y-86800714D01*
X154743928Y-86800714D01*
X154667738Y-86848333D01*
X154629642Y-86895952D01*
X154591547Y-86991190D01*
X154591547Y-87276904D01*
X154629642Y-87372142D01*
X154667738Y-87419761D01*
X154743928Y-87467380D01*
X154858214Y-87467380D01*
X154248690Y-87467380D02*
X154248690Y-86800714D01*
X154248690Y-86991190D02*
X154210595Y-86895952D01*
X154172500Y-86848333D01*
X154096309Y-86800714D01*
X154020119Y-86800714D01*
X153143928Y-87467380D02*
X153143928Y-86800714D01*
X153143928Y-86895952D02*
X153105833Y-86848333D01*
X153029642Y-86800714D01*
X152915357Y-86800714D01*
X152839166Y-86848333D01*
X152801071Y-86943571D01*
X152801071Y-87467380D01*
X152801071Y-86943571D02*
X152762976Y-86848333D01*
X152686785Y-86800714D01*
X152572500Y-86800714D01*
X152496309Y-86848333D01*
X152458214Y-86943571D01*
X152458214Y-87467380D01*
X151734404Y-87467380D02*
X151734404Y-86943571D01*
X151772500Y-86848333D01*
X151848690Y-86800714D01*
X152001071Y-86800714D01*
X152077261Y-86848333D01*
X151734404Y-87419761D02*
X151810595Y-87467380D01*
X152001071Y-87467380D01*
X152077261Y-87419761D01*
X152115357Y-87324523D01*
X152115357Y-87229285D01*
X152077261Y-87134047D01*
X152001071Y-87086428D01*
X151810595Y-87086428D01*
X151734404Y-87038809D01*
X151010595Y-87419761D02*
X151086785Y-87467380D01*
X151239166Y-87467380D01*
X151315357Y-87419761D01*
X151353452Y-87372142D01*
X151391547Y-87276904D01*
X151391547Y-86991190D01*
X151353452Y-86895952D01*
X151315357Y-86848333D01*
X151239166Y-86800714D01*
X151086785Y-86800714D01*
X151010595Y-86848333D01*
X150667738Y-87467380D02*
X150667738Y-86467380D01*
X150324880Y-87467380D02*
X150324880Y-86943571D01*
X150362976Y-86848333D01*
X150439166Y-86800714D01*
X150553452Y-86800714D01*
X150629642Y-86848333D01*
X150667738Y-86895952D01*
X149943928Y-87467380D02*
X149943928Y-86800714D01*
X149943928Y-86467380D02*
X149982023Y-86515000D01*
X149943928Y-86562619D01*
X149905833Y-86515000D01*
X149943928Y-86467380D01*
X149943928Y-86562619D01*
X149562976Y-86800714D02*
X149562976Y-87467380D01*
X149562976Y-86895952D02*
X149524880Y-86848333D01*
X149448690Y-86800714D01*
X149334404Y-86800714D01*
X149258214Y-86848333D01*
X149220119Y-86943571D01*
X149220119Y-87467380D01*
X148534404Y-87419761D02*
X148610595Y-87467380D01*
X148762976Y-87467380D01*
X148839166Y-87419761D01*
X148877261Y-87324523D01*
X148877261Y-86943571D01*
X148839166Y-86848333D01*
X148762976Y-86800714D01*
X148610595Y-86800714D01*
X148534404Y-86848333D01*
X148496309Y-86943571D01*
X148496309Y-87038809D01*
X148877261Y-87134047D01*
X147201071Y-87419761D02*
X147277261Y-87467380D01*
X147429642Y-87467380D01*
X147505833Y-87419761D01*
X147543928Y-87372142D01*
X147582023Y-87276904D01*
X147582023Y-86991190D01*
X147543928Y-86895952D01*
X147505833Y-86848333D01*
X147429642Y-86800714D01*
X147277261Y-86800714D01*
X147201071Y-86848333D01*
X146743928Y-87467380D02*
X146820119Y-87419761D01*
X146858214Y-87372142D01*
X146896309Y-87276904D01*
X146896309Y-86991190D01*
X146858214Y-86895952D01*
X146820119Y-86848333D01*
X146743928Y-86800714D01*
X146629642Y-86800714D01*
X146553452Y-86848333D01*
X146515357Y-86895952D01*
X146477261Y-86991190D01*
X146477261Y-87276904D01*
X146515357Y-87372142D01*
X146553452Y-87419761D01*
X146629642Y-87467380D01*
X146743928Y-87467380D01*
X145791547Y-87467380D02*
X145791547Y-86467380D01*
X145791547Y-87419761D02*
X145867738Y-87467380D01*
X146020119Y-87467380D01*
X146096309Y-87419761D01*
X146134404Y-87372142D01*
X146172500Y-87276904D01*
X146172500Y-86991190D01*
X146134404Y-86895952D01*
X146096309Y-86848333D01*
X146020119Y-86800714D01*
X145867738Y-86800714D01*
X145791547Y-86848333D01*
X145105833Y-87419761D02*
X145182023Y-87467380D01*
X145334404Y-87467380D01*
X145410595Y-87419761D01*
X145448690Y-87324523D01*
X145448690Y-86943571D01*
X145410595Y-86848333D01*
X145334404Y-86800714D01*
X145182023Y-86800714D01*
X145105833Y-86848333D01*
X145067738Y-86943571D01*
X145067738Y-87038809D01*
X145448690Y-87134047D01*
X144115357Y-87467380D02*
X144115357Y-86467380D01*
X143734404Y-87467380D02*
X143734404Y-86467380D01*
X143277261Y-87467380D01*
X143277261Y-86467380D01*
X141943928Y-87467380D02*
X141943928Y-86943571D01*
X141982023Y-86848333D01*
X142058214Y-86800714D01*
X142210595Y-86800714D01*
X142286785Y-86848333D01*
X141943928Y-87419761D02*
X142020119Y-87467380D01*
X142210595Y-87467380D01*
X142286785Y-87419761D01*
X142324880Y-87324523D01*
X142324880Y-87229285D01*
X142286785Y-87134047D01*
X142210595Y-87086428D01*
X142020119Y-87086428D01*
X141943928Y-87038809D01*
X141562976Y-86800714D02*
X141562976Y-87467380D01*
X141562976Y-86895952D02*
X141524880Y-86848333D01*
X141448690Y-86800714D01*
X141334404Y-86800714D01*
X141258214Y-86848333D01*
X141220119Y-86943571D01*
X141220119Y-87467380D01*
X140496309Y-87467380D02*
X140496309Y-86467380D01*
X140496309Y-87419761D02*
X140572500Y-87467380D01*
X140724880Y-87467380D01*
X140801071Y-87419761D01*
X140839166Y-87372142D01*
X140877261Y-87276904D01*
X140877261Y-86991190D01*
X140839166Y-86895952D01*
X140801071Y-86848333D01*
X140724880Y-86800714D01*
X140572500Y-86800714D01*
X140496309Y-86848333D01*
X139353452Y-86467380D02*
X139201071Y-86467380D01*
X139124880Y-86515000D01*
X139048690Y-86610238D01*
X139010595Y-86800714D01*
X139010595Y-87134047D01*
X139048690Y-87324523D01*
X139124880Y-87419761D01*
X139201071Y-87467380D01*
X139353452Y-87467380D01*
X139429642Y-87419761D01*
X139505833Y-87324523D01*
X139543928Y-87134047D01*
X139543928Y-86800714D01*
X139505833Y-86610238D01*
X139429642Y-86515000D01*
X139353452Y-86467380D01*
X138667738Y-86467380D02*
X138667738Y-87276904D01*
X138629642Y-87372142D01*
X138591547Y-87419761D01*
X138515357Y-87467380D01*
X138362976Y-87467380D01*
X138286785Y-87419761D01*
X138248690Y-87372142D01*
X138210595Y-87276904D01*
X138210595Y-86467380D01*
X137943928Y-86467380D02*
X137486785Y-86467380D01*
X137715357Y-87467380D02*
X137715357Y-86467380D01*
X136267738Y-87419761D02*
X136343928Y-87467380D01*
X136496309Y-87467380D01*
X136572500Y-87419761D01*
X136610595Y-87372142D01*
X136648690Y-87276904D01*
X136648690Y-86991190D01*
X136610595Y-86895952D01*
X136572500Y-86848333D01*
X136496309Y-86800714D01*
X136343928Y-86800714D01*
X136267738Y-86848333D01*
X135810595Y-87467380D02*
X135886785Y-87419761D01*
X135924880Y-87372142D01*
X135962976Y-87276904D01*
X135962976Y-86991190D01*
X135924880Y-86895952D01*
X135886785Y-86848333D01*
X135810595Y-86800714D01*
X135696309Y-86800714D01*
X135620119Y-86848333D01*
X135582023Y-86895952D01*
X135543928Y-86991190D01*
X135543928Y-87276904D01*
X135582023Y-87372142D01*
X135620119Y-87419761D01*
X135696309Y-87467380D01*
X135810595Y-87467380D01*
X135201071Y-87467380D02*
X135201071Y-86800714D01*
X135201071Y-86895952D02*
X135162976Y-86848333D01*
X135086785Y-86800714D01*
X134972500Y-86800714D01*
X134896309Y-86848333D01*
X134858214Y-86943571D01*
X134858214Y-87467380D01*
X134858214Y-86943571D02*
X134820119Y-86848333D01*
X134743928Y-86800714D01*
X134629642Y-86800714D01*
X134553452Y-86848333D01*
X134515357Y-86943571D01*
X134515357Y-87467380D01*
X134134404Y-87467380D02*
X134134404Y-86800714D01*
X134134404Y-86895952D02*
X134096309Y-86848333D01*
X134020119Y-86800714D01*
X133905833Y-86800714D01*
X133829642Y-86848333D01*
X133791547Y-86943571D01*
X133791547Y-87467380D01*
X133791547Y-86943571D02*
X133753452Y-86848333D01*
X133677261Y-86800714D01*
X133562976Y-86800714D01*
X133486785Y-86848333D01*
X133448690Y-86943571D01*
X133448690Y-87467380D01*
X132724880Y-87467380D02*
X132724880Y-86943571D01*
X132762976Y-86848333D01*
X132839166Y-86800714D01*
X132991547Y-86800714D01*
X133067738Y-86848333D01*
X132724880Y-87419761D02*
X132801071Y-87467380D01*
X132991547Y-87467380D01*
X133067738Y-87419761D01*
X133105833Y-87324523D01*
X133105833Y-87229285D01*
X133067738Y-87134047D01*
X132991547Y-87086428D01*
X132801071Y-87086428D01*
X132724880Y-87038809D01*
X132343928Y-86800714D02*
X132343928Y-87467380D01*
X132343928Y-86895952D02*
X132305833Y-86848333D01*
X132229642Y-86800714D01*
X132115357Y-86800714D01*
X132039166Y-86848333D01*
X132001071Y-86943571D01*
X132001071Y-87467380D01*
X131277261Y-87467380D02*
X131277261Y-86467380D01*
X131277261Y-87419761D02*
X131353452Y-87467380D01*
X131505833Y-87467380D01*
X131582023Y-87419761D01*
X131620119Y-87372142D01*
X131658214Y-87276904D01*
X131658214Y-86991190D01*
X131620119Y-86895952D01*
X131582023Y-86848333D01*
X131505833Y-86800714D01*
X131353452Y-86800714D01*
X131277261Y-86848333D01*
X130934404Y-87419761D02*
X130858214Y-87467380D01*
X130705833Y-87467380D01*
X130629642Y-87419761D01*
X130591547Y-87324523D01*
X130591547Y-87276904D01*
X130629642Y-87181666D01*
X130705833Y-87134047D01*
X130820119Y-87134047D01*
X130896309Y-87086428D01*
X130934404Y-86991190D01*
X130934404Y-86943571D01*
X130896309Y-86848333D01*
X130820119Y-86800714D01*
X130705833Y-86800714D01*
X130629642Y-86848333D01*
X129296309Y-87419761D02*
X129372500Y-87467380D01*
X129524880Y-87467380D01*
X129601071Y-87419761D01*
X129639166Y-87372142D01*
X129677261Y-87276904D01*
X129677261Y-86991190D01*
X129639166Y-86895952D01*
X129601071Y-86848333D01*
X129524880Y-86800714D01*
X129372500Y-86800714D01*
X129296309Y-86848333D01*
X128610595Y-87467380D02*
X128610595Y-86943571D01*
X128648690Y-86848333D01*
X128724880Y-86800714D01*
X128877261Y-86800714D01*
X128953452Y-86848333D01*
X128610595Y-87419761D02*
X128686785Y-87467380D01*
X128877261Y-87467380D01*
X128953452Y-87419761D01*
X128991547Y-87324523D01*
X128991547Y-87229285D01*
X128953452Y-87134047D01*
X128877261Y-87086428D01*
X128686785Y-87086428D01*
X128610595Y-87038809D01*
X128229642Y-86800714D02*
X128229642Y-87467380D01*
X128229642Y-86895952D02*
X128191547Y-86848333D01*
X128115357Y-86800714D01*
X128001071Y-86800714D01*
X127924880Y-86848333D01*
X127886785Y-86943571D01*
X127886785Y-87467380D01*
X126896309Y-87467380D02*
X126896309Y-86467380D01*
X126896309Y-86848333D02*
X126820119Y-86800714D01*
X126667738Y-86800714D01*
X126591547Y-86848333D01*
X126553452Y-86895952D01*
X126515357Y-86991190D01*
X126515357Y-87276904D01*
X126553452Y-87372142D01*
X126591547Y-87419761D01*
X126667738Y-87467380D01*
X126820119Y-87467380D01*
X126896309Y-87419761D01*
X125867738Y-87419761D02*
X125943928Y-87467380D01*
X126096309Y-87467380D01*
X126172500Y-87419761D01*
X126210595Y-87324523D01*
X126210595Y-86943571D01*
X126172500Y-86848333D01*
X126096309Y-86800714D01*
X125943928Y-86800714D01*
X125867738Y-86848333D01*
X125829642Y-86943571D01*
X125829642Y-87038809D01*
X126210595Y-87134047D01*
X124534404Y-86800714D02*
X124534404Y-87467380D01*
X124877261Y-86800714D02*
X124877261Y-87324523D01*
X124839166Y-87419761D01*
X124762976Y-87467380D01*
X124648690Y-87467380D01*
X124572500Y-87419761D01*
X124534404Y-87372142D01*
X124191547Y-87419761D02*
X124115357Y-87467380D01*
X123962976Y-87467380D01*
X123886785Y-87419761D01*
X123848690Y-87324523D01*
X123848690Y-87276904D01*
X123886785Y-87181666D01*
X123962976Y-87134047D01*
X124077261Y-87134047D01*
X124153452Y-87086428D01*
X124191547Y-86991190D01*
X124191547Y-86943571D01*
X124153452Y-86848333D01*
X124077261Y-86800714D01*
X123962976Y-86800714D01*
X123886785Y-86848333D01*
X123201071Y-87419761D02*
X123277261Y-87467380D01*
X123429642Y-87467380D01*
X123505833Y-87419761D01*
X123543928Y-87324523D01*
X123543928Y-86943571D01*
X123505833Y-86848333D01*
X123429642Y-86800714D01*
X123277261Y-86800714D01*
X123201071Y-86848333D01*
X123162976Y-86943571D01*
X123162976Y-87038809D01*
X123543928Y-87134047D01*
X122477261Y-87467380D02*
X122477261Y-86467380D01*
X122477261Y-87419761D02*
X122553452Y-87467380D01*
X122705833Y-87467380D01*
X122782023Y-87419761D01*
X122820119Y-87372142D01*
X122858214Y-87276904D01*
X122858214Y-86991190D01*
X122820119Y-86895952D01*
X122782023Y-86848333D01*
X122705833Y-86800714D01*
X122553452Y-86800714D01*
X122477261Y-86848333D01*
X122096309Y-87372142D02*
X122058214Y-87419761D01*
X122096309Y-87467380D01*
X122134404Y-87419761D01*
X122096309Y-87372142D01*
X122096309Y-87467380D01*
X182515357Y-88553571D02*
X182782023Y-88553571D01*
X182782023Y-89077380D02*
X182782023Y-88077380D01*
X182401071Y-88077380D01*
X181982023Y-89077380D02*
X182058214Y-89029761D01*
X182096309Y-88982142D01*
X182134404Y-88886904D01*
X182134404Y-88601190D01*
X182096309Y-88505952D01*
X182058214Y-88458333D01*
X181982023Y-88410714D01*
X181867738Y-88410714D01*
X181791547Y-88458333D01*
X181753452Y-88505952D01*
X181715357Y-88601190D01*
X181715357Y-88886904D01*
X181753452Y-88982142D01*
X181791547Y-89029761D01*
X181867738Y-89077380D01*
X181982023Y-89077380D01*
X181372500Y-89077380D02*
X181372500Y-88410714D01*
X181372500Y-88601190D02*
X181334404Y-88505952D01*
X181296309Y-88458333D01*
X181220119Y-88410714D01*
X181143928Y-88410714D01*
X179962976Y-89029761D02*
X180039166Y-89077380D01*
X180191547Y-89077380D01*
X180267738Y-89029761D01*
X180305833Y-88934523D01*
X180305833Y-88553571D01*
X180267738Y-88458333D01*
X180191547Y-88410714D01*
X180039166Y-88410714D01*
X179962976Y-88458333D01*
X179924880Y-88553571D01*
X179924880Y-88648809D01*
X180305833Y-88744047D01*
X179658214Y-89077380D02*
X179239166Y-88410714D01*
X179658214Y-88410714D02*
X179239166Y-89077380D01*
X178591547Y-89077380D02*
X178591547Y-88553571D01*
X178629642Y-88458333D01*
X178705833Y-88410714D01*
X178858214Y-88410714D01*
X178934404Y-88458333D01*
X178591547Y-89029761D02*
X178667738Y-89077380D01*
X178858214Y-89077380D01*
X178934404Y-89029761D01*
X178972500Y-88934523D01*
X178972500Y-88839285D01*
X178934404Y-88744047D01*
X178858214Y-88696428D01*
X178667738Y-88696428D01*
X178591547Y-88648809D01*
X178210595Y-89077380D02*
X178210595Y-88410714D01*
X178210595Y-88505952D02*
X178172500Y-88458333D01*
X178096309Y-88410714D01*
X177982023Y-88410714D01*
X177905833Y-88458333D01*
X177867738Y-88553571D01*
X177867738Y-89077380D01*
X177867738Y-88553571D02*
X177829642Y-88458333D01*
X177753452Y-88410714D01*
X177639166Y-88410714D01*
X177562976Y-88458333D01*
X177524880Y-88553571D01*
X177524880Y-89077380D01*
X177143928Y-88410714D02*
X177143928Y-89410714D01*
X177143928Y-88458333D02*
X177067738Y-88410714D01*
X176915357Y-88410714D01*
X176839166Y-88458333D01*
X176801071Y-88505952D01*
X176762976Y-88601190D01*
X176762976Y-88886904D01*
X176801071Y-88982142D01*
X176839166Y-89029761D01*
X176915357Y-89077380D01*
X177067738Y-89077380D01*
X177143928Y-89029761D01*
X176305833Y-89077380D02*
X176382023Y-89029761D01*
X176420119Y-88934523D01*
X176420119Y-88077380D01*
X175696309Y-89029761D02*
X175772500Y-89077380D01*
X175924880Y-89077380D01*
X176001071Y-89029761D01*
X176039166Y-88934523D01*
X176039166Y-88553571D01*
X176001071Y-88458333D01*
X175924880Y-88410714D01*
X175772500Y-88410714D01*
X175696309Y-88458333D01*
X175658214Y-88553571D01*
X175658214Y-88648809D01*
X176039166Y-88744047D01*
X174553452Y-88077380D02*
X174401071Y-88077380D01*
X174324880Y-88125000D01*
X174248690Y-88220238D01*
X174210595Y-88410714D01*
X174210595Y-88744047D01*
X174248690Y-88934523D01*
X174324880Y-89029761D01*
X174401071Y-89077380D01*
X174553452Y-89077380D01*
X174629642Y-89029761D01*
X174705833Y-88934523D01*
X174743928Y-88744047D01*
X174743928Y-88410714D01*
X174705833Y-88220238D01*
X174629642Y-88125000D01*
X174553452Y-88077380D01*
X173867738Y-88077380D02*
X173867738Y-88886904D01*
X173829642Y-88982142D01*
X173791547Y-89029761D01*
X173715357Y-89077380D01*
X173562976Y-89077380D01*
X173486785Y-89029761D01*
X173448690Y-88982142D01*
X173410595Y-88886904D01*
X173410595Y-88077380D01*
X173143928Y-88077380D02*
X172686785Y-88077380D01*
X172915357Y-89077380D02*
X172915357Y-88077380D01*
X171467738Y-88077380D02*
X171620119Y-88077380D01*
X171696309Y-88125000D01*
X171734404Y-88172619D01*
X171810595Y-88315476D01*
X171848690Y-88505952D01*
X171848690Y-88886904D01*
X171810595Y-88982142D01*
X171772500Y-89029761D01*
X171696309Y-89077380D01*
X171543928Y-89077380D01*
X171467738Y-89029761D01*
X171429642Y-88982142D01*
X171391547Y-88886904D01*
X171391547Y-88648809D01*
X171429642Y-88553571D01*
X171467738Y-88505952D01*
X171543928Y-88458333D01*
X171696309Y-88458333D01*
X171772500Y-88505952D01*
X171810595Y-88553571D01*
X171848690Y-88648809D01*
X171124880Y-88077380D02*
X170629642Y-88077380D01*
X170896309Y-88458333D01*
X170782023Y-88458333D01*
X170705833Y-88505952D01*
X170667738Y-88553571D01*
X170629642Y-88648809D01*
X170629642Y-88886904D01*
X170667738Y-88982142D01*
X170705833Y-89029761D01*
X170782023Y-89077380D01*
X171010595Y-89077380D01*
X171086785Y-89029761D01*
X171124880Y-88982142D01*
X170248690Y-89029761D02*
X170248690Y-89077380D01*
X170286785Y-89172619D01*
X170324880Y-89220238D01*
X169791547Y-88505952D02*
X169867738Y-88458333D01*
X169905833Y-88410714D01*
X169943928Y-88315476D01*
X169943928Y-88267857D01*
X169905833Y-88172619D01*
X169867738Y-88125000D01*
X169791547Y-88077380D01*
X169639166Y-88077380D01*
X169562976Y-88125000D01*
X169524880Y-88172619D01*
X169486785Y-88267857D01*
X169486785Y-88315476D01*
X169524880Y-88410714D01*
X169562976Y-88458333D01*
X169639166Y-88505952D01*
X169791547Y-88505952D01*
X169867738Y-88553571D01*
X169905833Y-88601190D01*
X169943928Y-88696428D01*
X169943928Y-88886904D01*
X169905833Y-88982142D01*
X169867738Y-89029761D01*
X169791547Y-89077380D01*
X169639166Y-89077380D01*
X169562976Y-89029761D01*
X169524880Y-88982142D01*
X169486785Y-88886904D01*
X169486785Y-88696428D01*
X169524880Y-88601190D01*
X169562976Y-88553571D01*
X169639166Y-88505952D01*
X168762976Y-88077380D02*
X169143928Y-88077380D01*
X169182023Y-88553571D01*
X169143928Y-88505952D01*
X169067738Y-88458333D01*
X168877261Y-88458333D01*
X168801071Y-88505952D01*
X168762976Y-88553571D01*
X168724880Y-88648809D01*
X168724880Y-88886904D01*
X168762976Y-88982142D01*
X168801071Y-89029761D01*
X168877261Y-89077380D01*
X169067738Y-89077380D01*
X169143928Y-89029761D01*
X169182023Y-88982142D01*
X167848690Y-88410714D02*
X167696309Y-89077380D01*
X167543928Y-88601190D01*
X167391547Y-89077380D01*
X167239166Y-88410714D01*
X166934404Y-89077380D02*
X166934404Y-88410714D01*
X166934404Y-88077380D02*
X166972500Y-88125000D01*
X166934404Y-88172619D01*
X166896309Y-88125000D01*
X166934404Y-88077380D01*
X166934404Y-88172619D01*
X166439166Y-89077380D02*
X166515357Y-89029761D01*
X166553452Y-88934523D01*
X166553452Y-88077380D01*
X166020119Y-89077380D02*
X166096309Y-89029761D01*
X166134404Y-88934523D01*
X166134404Y-88077380D01*
X165105833Y-88410714D02*
X165105833Y-89410714D01*
X165105833Y-88458333D02*
X165029642Y-88410714D01*
X164877261Y-88410714D01*
X164801071Y-88458333D01*
X164762976Y-88505952D01*
X164724880Y-88601190D01*
X164724880Y-88886904D01*
X164762976Y-88982142D01*
X164801071Y-89029761D01*
X164877261Y-89077380D01*
X165029642Y-89077380D01*
X165105833Y-89029761D01*
X164039166Y-88410714D02*
X164039166Y-89077380D01*
X164382023Y-88410714D02*
X164382023Y-88934523D01*
X164343928Y-89029761D01*
X164267738Y-89077380D01*
X164153452Y-89077380D01*
X164077261Y-89029761D01*
X164039166Y-88982142D01*
X163772500Y-88410714D02*
X163467738Y-88410714D01*
X163658214Y-88077380D02*
X163658214Y-88934523D01*
X163620119Y-89029761D01*
X163543928Y-89077380D01*
X163467738Y-89077380D01*
X162248690Y-89077380D02*
X162248690Y-88553571D01*
X162286785Y-88458333D01*
X162362976Y-88410714D01*
X162515357Y-88410714D01*
X162591547Y-88458333D01*
X162248690Y-89029761D02*
X162324880Y-89077380D01*
X162515357Y-89077380D01*
X162591547Y-89029761D01*
X162629642Y-88934523D01*
X162629642Y-88839285D01*
X162591547Y-88744047D01*
X162515357Y-88696428D01*
X162324880Y-88696428D01*
X162248690Y-88648809D01*
X161867738Y-88410714D02*
X161867738Y-89077380D01*
X161867738Y-88505952D02*
X161829642Y-88458333D01*
X161753452Y-88410714D01*
X161639166Y-88410714D01*
X161562976Y-88458333D01*
X161524880Y-88553571D01*
X161524880Y-89077380D01*
X160191547Y-89077380D02*
X160191547Y-88553571D01*
X160229642Y-88458333D01*
X160305833Y-88410714D01*
X160458214Y-88410714D01*
X160534404Y-88458333D01*
X160191547Y-89029761D02*
X160267738Y-89077380D01*
X160458214Y-89077380D01*
X160534404Y-89029761D01*
X160572500Y-88934523D01*
X160572500Y-88839285D01*
X160534404Y-88744047D01*
X160458214Y-88696428D01*
X160267738Y-88696428D01*
X160191547Y-88648809D01*
X159696309Y-89077380D02*
X159772500Y-89029761D01*
X159810595Y-88934523D01*
X159810595Y-88077380D01*
X159505833Y-88410714D02*
X159201071Y-88410714D01*
X159391547Y-88077380D02*
X159391547Y-88934523D01*
X159353452Y-89029761D01*
X159277261Y-89077380D01*
X159201071Y-89077380D01*
X158629642Y-89029761D02*
X158705833Y-89077380D01*
X158858214Y-89077380D01*
X158934404Y-89029761D01*
X158972500Y-88934523D01*
X158972500Y-88553571D01*
X158934404Y-88458333D01*
X158858214Y-88410714D01*
X158705833Y-88410714D01*
X158629642Y-88458333D01*
X158591547Y-88553571D01*
X158591547Y-88648809D01*
X158972500Y-88744047D01*
X158248690Y-89077380D02*
X158248690Y-88410714D01*
X158248690Y-88601190D02*
X158210595Y-88505952D01*
X158172500Y-88458333D01*
X158096309Y-88410714D01*
X158020119Y-88410714D01*
X157753452Y-88410714D02*
X157753452Y-89077380D01*
X157753452Y-88505952D02*
X157715357Y-88458333D01*
X157639166Y-88410714D01*
X157524880Y-88410714D01*
X157448690Y-88458333D01*
X157410595Y-88553571D01*
X157410595Y-89077380D01*
X156686785Y-89077380D02*
X156686785Y-88553571D01*
X156724880Y-88458333D01*
X156801071Y-88410714D01*
X156953452Y-88410714D01*
X157029642Y-88458333D01*
X156686785Y-89029761D02*
X156762976Y-89077380D01*
X156953452Y-89077380D01*
X157029642Y-89029761D01*
X157067738Y-88934523D01*
X157067738Y-88839285D01*
X157029642Y-88744047D01*
X156953452Y-88696428D01*
X156762976Y-88696428D01*
X156686785Y-88648809D01*
X156420119Y-88410714D02*
X156115357Y-88410714D01*
X156305833Y-88077380D02*
X156305833Y-88934523D01*
X156267738Y-89029761D01*
X156191547Y-89077380D01*
X156115357Y-89077380D01*
X155543928Y-89029761D02*
X155620119Y-89077380D01*
X155772500Y-89077380D01*
X155848690Y-89029761D01*
X155886785Y-88934523D01*
X155886785Y-88553571D01*
X155848690Y-88458333D01*
X155772500Y-88410714D01*
X155620119Y-88410714D01*
X155543928Y-88458333D01*
X155505833Y-88553571D01*
X155505833Y-88648809D01*
X155886785Y-88744047D01*
X154553452Y-88410714D02*
X154553452Y-89410714D01*
X154553452Y-88458333D02*
X154477261Y-88410714D01*
X154324880Y-88410714D01*
X154248690Y-88458333D01*
X154210595Y-88505952D01*
X154172500Y-88601190D01*
X154172500Y-88886904D01*
X154210595Y-88982142D01*
X154248690Y-89029761D01*
X154324880Y-89077380D01*
X154477261Y-89077380D01*
X154553452Y-89029761D01*
X153486785Y-89077380D02*
X153486785Y-88553571D01*
X153524880Y-88458333D01*
X153601071Y-88410714D01*
X153753452Y-88410714D01*
X153829642Y-88458333D01*
X153486785Y-89029761D02*
X153562976Y-89077380D01*
X153753452Y-89077380D01*
X153829642Y-89029761D01*
X153867738Y-88934523D01*
X153867738Y-88839285D01*
X153829642Y-88744047D01*
X153753452Y-88696428D01*
X153562976Y-88696428D01*
X153486785Y-88648809D01*
X153220119Y-88410714D02*
X152915357Y-88410714D01*
X153105833Y-88077380D02*
X153105833Y-88934523D01*
X153067738Y-89029761D01*
X152991547Y-89077380D01*
X152915357Y-89077380D01*
X152762976Y-88410714D02*
X152458214Y-88410714D01*
X152648690Y-88077380D02*
X152648690Y-88934523D01*
X152610595Y-89029761D01*
X152534404Y-89077380D01*
X152458214Y-89077380D01*
X151886785Y-89029761D02*
X151962976Y-89077380D01*
X152115357Y-89077380D01*
X152191547Y-89029761D01*
X152229642Y-88934523D01*
X152229642Y-88553571D01*
X152191547Y-88458333D01*
X152115357Y-88410714D01*
X151962976Y-88410714D01*
X151886785Y-88458333D01*
X151848690Y-88553571D01*
X151848690Y-88648809D01*
X152229642Y-88744047D01*
X151505833Y-89077380D02*
X151505833Y-88410714D01*
X151505833Y-88601190D02*
X151467738Y-88505952D01*
X151429642Y-88458333D01*
X151353452Y-88410714D01*
X151277261Y-88410714D01*
X151010595Y-88410714D02*
X151010595Y-89077380D01*
X151010595Y-88505952D02*
X150972500Y-88458333D01*
X150896309Y-88410714D01*
X150782023Y-88410714D01*
X150705833Y-88458333D01*
X150667738Y-88553571D01*
X150667738Y-89077380D01*
X149562976Y-89077380D02*
X149639166Y-89029761D01*
X149677261Y-88982142D01*
X149715357Y-88886904D01*
X149715357Y-88601190D01*
X149677261Y-88505952D01*
X149639166Y-88458333D01*
X149562976Y-88410714D01*
X149448690Y-88410714D01*
X149372500Y-88458333D01*
X149334404Y-88505952D01*
X149296309Y-88601190D01*
X149296309Y-88886904D01*
X149334404Y-88982142D01*
X149372500Y-89029761D01*
X149448690Y-89077380D01*
X149562976Y-89077380D01*
X149067738Y-88410714D02*
X148762976Y-88410714D01*
X148953452Y-89077380D02*
X148953452Y-88220238D01*
X148915357Y-88125000D01*
X148839166Y-88077380D01*
X148762976Y-88077380D01*
X147772500Y-89077380D02*
X147848690Y-89029761D01*
X147886785Y-88982142D01*
X147924880Y-88886904D01*
X147924880Y-88601190D01*
X147886785Y-88505952D01*
X147848690Y-88458333D01*
X147772500Y-88410714D01*
X147658214Y-88410714D01*
X147582023Y-88458333D01*
X147543928Y-88505952D01*
X147505833Y-88601190D01*
X147505833Y-88886904D01*
X147543928Y-88982142D01*
X147582023Y-89029761D01*
X147658214Y-89077380D01*
X147772500Y-89077380D01*
X147162976Y-88410714D02*
X147162976Y-89077380D01*
X147162976Y-88505952D02*
X147124880Y-88458333D01*
X147048690Y-88410714D01*
X146934404Y-88410714D01*
X146858214Y-88458333D01*
X146820119Y-88553571D01*
X146820119Y-89077380D01*
X146134404Y-89029761D02*
X146210595Y-89077380D01*
X146362976Y-89077380D01*
X146439166Y-89029761D01*
X146477261Y-88934523D01*
X146477261Y-88553571D01*
X146439166Y-88458333D01*
X146362976Y-88410714D01*
X146210595Y-88410714D01*
X146134404Y-88458333D01*
X146096309Y-88553571D01*
X146096309Y-88648809D01*
X146477261Y-88744047D01*
X145791547Y-89029761D02*
X145715357Y-89077380D01*
X145562976Y-89077380D01*
X145486785Y-89029761D01*
X145448690Y-88934523D01*
X145448690Y-88886904D01*
X145486785Y-88791666D01*
X145562976Y-88744047D01*
X145677261Y-88744047D01*
X145753452Y-88696428D01*
X145791547Y-88601190D01*
X145791547Y-88553571D01*
X145753452Y-88458333D01*
X145677261Y-88410714D01*
X145562976Y-88410714D01*
X145486785Y-88458333D01*
X144153452Y-89077380D02*
X144153452Y-88553571D01*
X144191547Y-88458333D01*
X144267738Y-88410714D01*
X144420119Y-88410714D01*
X144496309Y-88458333D01*
X144153452Y-89029761D02*
X144229642Y-89077380D01*
X144420119Y-89077380D01*
X144496309Y-89029761D01*
X144534404Y-88934523D01*
X144534404Y-88839285D01*
X144496309Y-88744047D01*
X144420119Y-88696428D01*
X144229642Y-88696428D01*
X144153452Y-88648809D01*
X143772500Y-88410714D02*
X143772500Y-89077380D01*
X143772500Y-88505952D02*
X143734404Y-88458333D01*
X143658214Y-88410714D01*
X143543928Y-88410714D01*
X143467738Y-88458333D01*
X143429642Y-88553571D01*
X143429642Y-89077380D01*
X142705833Y-89077380D02*
X142705833Y-88077380D01*
X142705833Y-89029761D02*
X142782023Y-89077380D01*
X142934404Y-89077380D01*
X143010595Y-89029761D01*
X143048690Y-88982142D01*
X143086785Y-88886904D01*
X143086785Y-88601190D01*
X143048690Y-88505952D01*
X143010595Y-88458333D01*
X142934404Y-88410714D01*
X142782023Y-88410714D01*
X142705833Y-88458333D01*
X141791547Y-88410714D02*
X141372500Y-88410714D01*
X141791547Y-89077380D01*
X141372500Y-89077380D01*
X140762976Y-89029761D02*
X140839166Y-89077380D01*
X140991547Y-89077380D01*
X141067738Y-89029761D01*
X141105833Y-88934523D01*
X141105833Y-88553571D01*
X141067738Y-88458333D01*
X140991547Y-88410714D01*
X140839166Y-88410714D01*
X140762976Y-88458333D01*
X140724880Y-88553571D01*
X140724880Y-88648809D01*
X141105833Y-88744047D01*
X140382023Y-89077380D02*
X140382023Y-88410714D01*
X140382023Y-88601190D02*
X140343928Y-88505952D01*
X140305833Y-88458333D01*
X140229642Y-88410714D01*
X140153452Y-88410714D01*
X139772500Y-89077380D02*
X139848690Y-89029761D01*
X139886785Y-88982142D01*
X139924880Y-88886904D01*
X139924880Y-88601190D01*
X139886785Y-88505952D01*
X139848690Y-88458333D01*
X139772500Y-88410714D01*
X139658214Y-88410714D01*
X139582023Y-88458333D01*
X139543928Y-88505952D01*
X139505833Y-88601190D01*
X139505833Y-88886904D01*
X139543928Y-88982142D01*
X139582023Y-89029761D01*
X139658214Y-89077380D01*
X139772500Y-89077380D01*
X138858214Y-89029761D02*
X138934404Y-89077380D01*
X139086785Y-89077380D01*
X139162976Y-89029761D01*
X139201071Y-88934523D01*
X139201071Y-88553571D01*
X139162976Y-88458333D01*
X139086785Y-88410714D01*
X138934404Y-88410714D01*
X138858214Y-88458333D01*
X138820119Y-88553571D01*
X138820119Y-88648809D01*
X139201071Y-88744047D01*
X138515357Y-89029761D02*
X138439166Y-89077380D01*
X138286785Y-89077380D01*
X138210595Y-89029761D01*
X138172500Y-88934523D01*
X138172500Y-88886904D01*
X138210595Y-88791666D01*
X138286785Y-88744047D01*
X138401071Y-88744047D01*
X138477261Y-88696428D01*
X138515357Y-88601190D01*
X138515357Y-88553571D01*
X138477261Y-88458333D01*
X138401071Y-88410714D01*
X138286785Y-88410714D01*
X138210595Y-88458333D01*
X136877261Y-89077380D02*
X136877261Y-88553571D01*
X136915357Y-88458333D01*
X136991547Y-88410714D01*
X137143928Y-88410714D01*
X137220119Y-88458333D01*
X136877261Y-89029761D02*
X136953452Y-89077380D01*
X137143928Y-89077380D01*
X137220119Y-89029761D01*
X137258214Y-88934523D01*
X137258214Y-88839285D01*
X137220119Y-88744047D01*
X137143928Y-88696428D01*
X136953452Y-88696428D01*
X136877261Y-88648809D01*
X136610595Y-88410714D02*
X136305833Y-88410714D01*
X136496309Y-88077380D02*
X136496309Y-88934523D01*
X136458214Y-89029761D01*
X136382023Y-89077380D01*
X136305833Y-89077380D01*
X135543928Y-88410714D02*
X135239166Y-88410714D01*
X135429642Y-88077380D02*
X135429642Y-88934523D01*
X135391547Y-89029761D01*
X135315357Y-89077380D01*
X135239166Y-89077380D01*
X134972500Y-89077380D02*
X134972500Y-88077380D01*
X134629642Y-89077380D02*
X134629642Y-88553571D01*
X134667738Y-88458333D01*
X134743928Y-88410714D01*
X134858214Y-88410714D01*
X134934404Y-88458333D01*
X134972500Y-88505952D01*
X133943928Y-89029761D02*
X134020119Y-89077380D01*
X134172500Y-89077380D01*
X134248690Y-89029761D01*
X134286785Y-88934523D01*
X134286785Y-88553571D01*
X134248690Y-88458333D01*
X134172500Y-88410714D01*
X134020119Y-88410714D01*
X133943928Y-88458333D01*
X133905833Y-88553571D01*
X133905833Y-88648809D01*
X134286785Y-88744047D01*
X132839166Y-89077380D02*
X132915357Y-89029761D01*
X132953452Y-88982142D01*
X132991547Y-88886904D01*
X132991547Y-88601190D01*
X132953452Y-88505952D01*
X132915357Y-88458333D01*
X132839166Y-88410714D01*
X132724880Y-88410714D01*
X132648690Y-88458333D01*
X132610595Y-88505952D01*
X132572500Y-88601190D01*
X132572500Y-88886904D01*
X132610595Y-88982142D01*
X132648690Y-89029761D01*
X132724880Y-89077380D01*
X132839166Y-89077380D01*
X131886785Y-88410714D02*
X131886785Y-89077380D01*
X132229642Y-88410714D02*
X132229642Y-88934523D01*
X132191547Y-89029761D01*
X132115357Y-89077380D01*
X132001071Y-89077380D01*
X131924880Y-89029761D01*
X131886785Y-88982142D01*
X131620119Y-88410714D02*
X131315357Y-88410714D01*
X131505833Y-88077380D02*
X131505833Y-88934523D01*
X131467738Y-89029761D01*
X131391547Y-89077380D01*
X131315357Y-89077380D01*
X131048690Y-88410714D02*
X131048690Y-89410714D01*
X131048690Y-88458333D02*
X130972500Y-88410714D01*
X130820119Y-88410714D01*
X130743928Y-88458333D01*
X130705833Y-88505952D01*
X130667738Y-88601190D01*
X130667738Y-88886904D01*
X130705833Y-88982142D01*
X130743928Y-89029761D01*
X130820119Y-89077380D01*
X130972500Y-89077380D01*
X131048690Y-89029761D01*
X129982023Y-88410714D02*
X129982023Y-89077380D01*
X130324880Y-88410714D02*
X130324880Y-88934523D01*
X130286785Y-89029761D01*
X130210595Y-89077380D01*
X130096309Y-89077380D01*
X130020119Y-89029761D01*
X129982023Y-88982142D01*
X129715357Y-88410714D02*
X129410595Y-88410714D01*
X129601071Y-88077380D02*
X129601071Y-88934523D01*
X129562976Y-89029761D01*
X129486785Y-89077380D01*
X129410595Y-89077380D01*
X128534404Y-88410714D02*
X128534404Y-89410714D01*
X128534404Y-88458333D02*
X128458214Y-88410714D01*
X128305833Y-88410714D01*
X128229642Y-88458333D01*
X128191547Y-88505952D01*
X128153452Y-88601190D01*
X128153452Y-88886904D01*
X128191547Y-88982142D01*
X128229642Y-89029761D01*
X128305833Y-89077380D01*
X128458214Y-89077380D01*
X128534404Y-89029761D01*
X127696309Y-89077380D02*
X127772500Y-89029761D01*
X127810595Y-88982142D01*
X127848690Y-88886904D01*
X127848690Y-88601190D01*
X127810595Y-88505952D01*
X127772500Y-88458333D01*
X127696309Y-88410714D01*
X127582023Y-88410714D01*
X127505833Y-88458333D01*
X127467738Y-88505952D01*
X127429642Y-88601190D01*
X127429642Y-88886904D01*
X127467738Y-88982142D01*
X127505833Y-89029761D01*
X127582023Y-89077380D01*
X127696309Y-89077380D01*
X127086785Y-89077380D02*
X127086785Y-88410714D01*
X127086785Y-88601190D02*
X127048690Y-88505952D01*
X127010595Y-88458333D01*
X126934404Y-88410714D01*
X126858214Y-88410714D01*
X126705833Y-88410714D02*
X126401071Y-88410714D01*
X126591547Y-88077380D02*
X126591547Y-88934523D01*
X126553452Y-89029761D01*
X126477261Y-89077380D01*
X126401071Y-89077380D01*
X126134404Y-88982142D02*
X126096309Y-89029761D01*
X126134404Y-89077380D01*
X126172500Y-89029761D01*
X126134404Y-88982142D01*
X126134404Y-89077380D01*
X182896309Y-89687380D02*
X182439166Y-89687380D01*
X182667738Y-90687380D02*
X182667738Y-89687380D01*
X182172500Y-90687380D02*
X182172500Y-89687380D01*
X181829642Y-90687380D02*
X181829642Y-90163571D01*
X181867738Y-90068333D01*
X181943928Y-90020714D01*
X182058214Y-90020714D01*
X182134404Y-90068333D01*
X182172500Y-90115952D01*
X181143928Y-90639761D02*
X181220119Y-90687380D01*
X181372500Y-90687380D01*
X181448690Y-90639761D01*
X181486785Y-90544523D01*
X181486785Y-90163571D01*
X181448690Y-90068333D01*
X181372500Y-90020714D01*
X181220119Y-90020714D01*
X181143928Y-90068333D01*
X181105833Y-90163571D01*
X181105833Y-90258809D01*
X181486785Y-90354047D01*
X180153452Y-90687380D02*
X180153452Y-90020714D01*
X180153452Y-89687380D02*
X180191547Y-89735000D01*
X180153452Y-89782619D01*
X180115357Y-89735000D01*
X180153452Y-89687380D01*
X180153452Y-89782619D01*
X179772500Y-90020714D02*
X179772500Y-90687380D01*
X179772500Y-90115952D02*
X179734404Y-90068333D01*
X179658214Y-90020714D01*
X179543928Y-90020714D01*
X179467738Y-90068333D01*
X179429642Y-90163571D01*
X179429642Y-90687380D01*
X179048690Y-90020714D02*
X179048690Y-91020714D01*
X179048690Y-90068333D02*
X178972500Y-90020714D01*
X178820119Y-90020714D01*
X178743928Y-90068333D01*
X178705833Y-90115952D01*
X178667738Y-90211190D01*
X178667738Y-90496904D01*
X178705833Y-90592142D01*
X178743928Y-90639761D01*
X178820119Y-90687380D01*
X178972500Y-90687380D01*
X179048690Y-90639761D01*
X177982023Y-90020714D02*
X177982023Y-90687380D01*
X178324880Y-90020714D02*
X178324880Y-90544523D01*
X178286785Y-90639761D01*
X178210595Y-90687380D01*
X178096309Y-90687380D01*
X178020119Y-90639761D01*
X177982023Y-90592142D01*
X177715357Y-90020714D02*
X177410595Y-90020714D01*
X177601071Y-89687380D02*
X177601071Y-90544523D01*
X177562976Y-90639761D01*
X177486785Y-90687380D01*
X177410595Y-90687380D01*
X176534404Y-90020714D02*
X176534404Y-91020714D01*
X176534404Y-90068333D02*
X176458214Y-90020714D01*
X176305833Y-90020714D01*
X176229642Y-90068333D01*
X176191547Y-90115952D01*
X176153452Y-90211190D01*
X176153452Y-90496904D01*
X176191547Y-90592142D01*
X176229642Y-90639761D01*
X176305833Y-90687380D01*
X176458214Y-90687380D01*
X176534404Y-90639761D01*
X175696309Y-90687380D02*
X175772500Y-90639761D01*
X175810595Y-90592142D01*
X175848690Y-90496904D01*
X175848690Y-90211190D01*
X175810595Y-90115952D01*
X175772500Y-90068333D01*
X175696309Y-90020714D01*
X175582023Y-90020714D01*
X175505833Y-90068333D01*
X175467738Y-90115952D01*
X175429642Y-90211190D01*
X175429642Y-90496904D01*
X175467738Y-90592142D01*
X175505833Y-90639761D01*
X175582023Y-90687380D01*
X175696309Y-90687380D01*
X175086785Y-90687380D02*
X175086785Y-90020714D01*
X175086785Y-90211190D02*
X175048690Y-90115952D01*
X175010595Y-90068333D01*
X174934404Y-90020714D01*
X174858214Y-90020714D01*
X174705833Y-90020714D02*
X174401071Y-90020714D01*
X174591547Y-89687380D02*
X174591547Y-90544523D01*
X174553452Y-90639761D01*
X174477261Y-90687380D01*
X174401071Y-90687380D01*
X173524880Y-90687380D02*
X173524880Y-89687380D01*
X173182023Y-90687380D02*
X173182023Y-90163571D01*
X173220119Y-90068333D01*
X173296309Y-90020714D01*
X173410595Y-90020714D01*
X173486785Y-90068333D01*
X173524880Y-90115952D01*
X172458214Y-90687380D02*
X172458214Y-90163571D01*
X172496309Y-90068333D01*
X172572500Y-90020714D01*
X172724880Y-90020714D01*
X172801071Y-90068333D01*
X172458214Y-90639761D02*
X172534404Y-90687380D01*
X172724880Y-90687380D01*
X172801071Y-90639761D01*
X172839166Y-90544523D01*
X172839166Y-90449285D01*
X172801071Y-90354047D01*
X172724880Y-90306428D01*
X172534404Y-90306428D01*
X172458214Y-90258809D01*
X172115357Y-90639761D02*
X172039166Y-90687380D01*
X171886785Y-90687380D01*
X171810595Y-90639761D01*
X171772500Y-90544523D01*
X171772500Y-90496904D01*
X171810595Y-90401666D01*
X171886785Y-90354047D01*
X172001071Y-90354047D01*
X172077261Y-90306428D01*
X172115357Y-90211190D01*
X172115357Y-90163571D01*
X172077261Y-90068333D01*
X172001071Y-90020714D01*
X171886785Y-90020714D01*
X171810595Y-90068333D01*
X170820119Y-90020714D02*
X170820119Y-91020714D01*
X170820119Y-90068333D02*
X170743928Y-90020714D01*
X170591547Y-90020714D01*
X170515357Y-90068333D01*
X170477261Y-90115952D01*
X170439166Y-90211190D01*
X170439166Y-90496904D01*
X170477261Y-90592142D01*
X170515357Y-90639761D01*
X170591547Y-90687380D01*
X170743928Y-90687380D01*
X170820119Y-90639761D01*
X170096309Y-90687380D02*
X170096309Y-90020714D01*
X170096309Y-90211190D02*
X170058214Y-90115952D01*
X170020119Y-90068333D01*
X169943928Y-90020714D01*
X169867738Y-90020714D01*
X169486785Y-90687380D02*
X169562976Y-90639761D01*
X169601071Y-90592142D01*
X169639166Y-90496904D01*
X169639166Y-90211190D01*
X169601071Y-90115952D01*
X169562976Y-90068333D01*
X169486785Y-90020714D01*
X169372500Y-90020714D01*
X169296309Y-90068333D01*
X169258214Y-90115952D01*
X169220119Y-90211190D01*
X169220119Y-90496904D01*
X169258214Y-90592142D01*
X169296309Y-90639761D01*
X169372500Y-90687380D01*
X169486785Y-90687380D01*
X168953452Y-90020714D02*
X168762976Y-90687380D01*
X168572500Y-90020714D01*
X168267738Y-90687380D02*
X168267738Y-90020714D01*
X168267738Y-89687380D02*
X168305833Y-89735000D01*
X168267738Y-89782619D01*
X168229642Y-89735000D01*
X168267738Y-89687380D01*
X168267738Y-89782619D01*
X167924880Y-90639761D02*
X167848690Y-90687380D01*
X167696309Y-90687380D01*
X167620119Y-90639761D01*
X167582023Y-90544523D01*
X167582023Y-90496904D01*
X167620119Y-90401666D01*
X167696309Y-90354047D01*
X167810595Y-90354047D01*
X167886785Y-90306428D01*
X167924880Y-90211190D01*
X167924880Y-90163571D01*
X167886785Y-90068333D01*
X167810595Y-90020714D01*
X167696309Y-90020714D01*
X167620119Y-90068333D01*
X167239166Y-90687380D02*
X167239166Y-90020714D01*
X167239166Y-89687380D02*
X167277261Y-89735000D01*
X167239166Y-89782619D01*
X167201071Y-89735000D01*
X167239166Y-89687380D01*
X167239166Y-89782619D01*
X166743928Y-90687380D02*
X166820119Y-90639761D01*
X166858214Y-90592142D01*
X166896309Y-90496904D01*
X166896309Y-90211190D01*
X166858214Y-90115952D01*
X166820119Y-90068333D01*
X166743928Y-90020714D01*
X166629642Y-90020714D01*
X166553452Y-90068333D01*
X166515357Y-90115952D01*
X166477261Y-90211190D01*
X166477261Y-90496904D01*
X166515357Y-90592142D01*
X166553452Y-90639761D01*
X166629642Y-90687380D01*
X166743928Y-90687380D01*
X166134404Y-90020714D02*
X166134404Y-90687380D01*
X166134404Y-90115952D02*
X166096309Y-90068333D01*
X166020119Y-90020714D01*
X165905833Y-90020714D01*
X165829642Y-90068333D01*
X165791547Y-90163571D01*
X165791547Y-90687380D01*
X164915357Y-90020714D02*
X164610595Y-90020714D01*
X164801071Y-90687380D02*
X164801071Y-89830238D01*
X164762976Y-89735000D01*
X164686785Y-89687380D01*
X164610595Y-89687380D01*
X164229642Y-90687380D02*
X164305833Y-90639761D01*
X164343928Y-90592142D01*
X164382023Y-90496904D01*
X164382023Y-90211190D01*
X164343928Y-90115952D01*
X164305833Y-90068333D01*
X164229642Y-90020714D01*
X164115357Y-90020714D01*
X164039166Y-90068333D01*
X164001071Y-90115952D01*
X163962976Y-90211190D01*
X163962976Y-90496904D01*
X164001071Y-90592142D01*
X164039166Y-90639761D01*
X164115357Y-90687380D01*
X164229642Y-90687380D01*
X163620119Y-90687380D02*
X163620119Y-90020714D01*
X163620119Y-90211190D02*
X163582023Y-90115952D01*
X163543928Y-90068333D01*
X163467738Y-90020714D01*
X163391547Y-90020714D01*
X162553452Y-90639761D02*
X162477261Y-90687380D01*
X162324880Y-90687380D01*
X162248690Y-90639761D01*
X162210595Y-90544523D01*
X162210595Y-90496904D01*
X162248690Y-90401666D01*
X162324880Y-90354047D01*
X162439166Y-90354047D01*
X162515357Y-90306428D01*
X162553452Y-90211190D01*
X162553452Y-90163571D01*
X162515357Y-90068333D01*
X162439166Y-90020714D01*
X162324880Y-90020714D01*
X162248690Y-90068333D01*
X161982023Y-90020714D02*
X161677261Y-90020714D01*
X161867738Y-89687380D02*
X161867738Y-90544523D01*
X161829642Y-90639761D01*
X161753452Y-90687380D01*
X161677261Y-90687380D01*
X161410595Y-90687380D02*
X161410595Y-90020714D01*
X161410595Y-90211190D02*
X161372500Y-90115952D01*
X161334404Y-90068333D01*
X161258214Y-90020714D01*
X161182023Y-90020714D01*
X160801071Y-90687380D02*
X160877261Y-90639761D01*
X160915357Y-90592142D01*
X160953452Y-90496904D01*
X160953452Y-90211190D01*
X160915357Y-90115952D01*
X160877261Y-90068333D01*
X160801071Y-90020714D01*
X160686785Y-90020714D01*
X160610595Y-90068333D01*
X160572500Y-90115952D01*
X160534404Y-90211190D01*
X160534404Y-90496904D01*
X160572500Y-90592142D01*
X160610595Y-90639761D01*
X160686785Y-90687380D01*
X160801071Y-90687380D01*
X160191547Y-90687380D02*
X160191547Y-89687380D01*
X160191547Y-90068333D02*
X160115357Y-90020714D01*
X159962976Y-90020714D01*
X159886785Y-90068333D01*
X159848690Y-90115952D01*
X159810595Y-90211190D01*
X159810595Y-90496904D01*
X159848690Y-90592142D01*
X159886785Y-90639761D01*
X159962976Y-90687380D01*
X160115357Y-90687380D01*
X160191547Y-90639761D01*
X159467738Y-90687380D02*
X159467738Y-90020714D01*
X159467738Y-89687380D02*
X159505833Y-89735000D01*
X159467738Y-89782619D01*
X159429642Y-89735000D01*
X159467738Y-89687380D01*
X159467738Y-89782619D01*
X159086785Y-90020714D02*
X159086785Y-90687380D01*
X159086785Y-90115952D02*
X159048690Y-90068333D01*
X158972500Y-90020714D01*
X158858214Y-90020714D01*
X158782023Y-90068333D01*
X158743928Y-90163571D01*
X158743928Y-90687380D01*
X158020119Y-90020714D02*
X158020119Y-90830238D01*
X158058214Y-90925476D01*
X158096309Y-90973095D01*
X158172500Y-91020714D01*
X158286785Y-91020714D01*
X158362976Y-90973095D01*
X158020119Y-90639761D02*
X158096309Y-90687380D01*
X158248690Y-90687380D01*
X158324880Y-90639761D01*
X158362976Y-90592142D01*
X158401071Y-90496904D01*
X158401071Y-90211190D01*
X158362976Y-90115952D01*
X158324880Y-90068333D01*
X158248690Y-90020714D01*
X158096309Y-90020714D01*
X158020119Y-90068333D01*
X157029642Y-90687380D02*
X157029642Y-90020714D01*
X157029642Y-89687380D02*
X157067738Y-89735000D01*
X157029642Y-89782619D01*
X156991547Y-89735000D01*
X157029642Y-89687380D01*
X157029642Y-89782619D01*
X156648690Y-90020714D02*
X156648690Y-90687380D01*
X156648690Y-90115952D02*
X156610595Y-90068333D01*
X156534404Y-90020714D01*
X156420119Y-90020714D01*
X156343928Y-90068333D01*
X156305833Y-90163571D01*
X156305833Y-90687380D01*
X155010595Y-90639761D02*
X155086785Y-90687380D01*
X155239166Y-90687380D01*
X155315357Y-90639761D01*
X155353452Y-90544523D01*
X155353452Y-90163571D01*
X155315357Y-90068333D01*
X155239166Y-90020714D01*
X155086785Y-90020714D01*
X155010595Y-90068333D01*
X154972500Y-90163571D01*
X154972500Y-90258809D01*
X155353452Y-90354047D01*
X154705833Y-90687380D02*
X154286785Y-90020714D01*
X154705833Y-90020714D02*
X154286785Y-90687380D01*
X154096309Y-90020714D02*
X153791547Y-90020714D01*
X153982023Y-89687380D02*
X153982023Y-90544523D01*
X153943928Y-90639761D01*
X153867738Y-90687380D01*
X153791547Y-90687380D01*
X153220119Y-90639761D02*
X153296309Y-90687380D01*
X153448690Y-90687380D01*
X153524880Y-90639761D01*
X153562976Y-90544523D01*
X153562976Y-90163571D01*
X153524880Y-90068333D01*
X153448690Y-90020714D01*
X153296309Y-90020714D01*
X153220119Y-90068333D01*
X153182023Y-90163571D01*
X153182023Y-90258809D01*
X153562976Y-90354047D01*
X152839166Y-90687380D02*
X152839166Y-90020714D01*
X152839166Y-90211190D02*
X152801071Y-90115952D01*
X152762976Y-90068333D01*
X152686785Y-90020714D01*
X152610595Y-90020714D01*
X152343928Y-90020714D02*
X152343928Y-90687380D01*
X152343928Y-90115952D02*
X152305833Y-90068333D01*
X152229642Y-90020714D01*
X152115357Y-90020714D01*
X152039166Y-90068333D01*
X152001071Y-90163571D01*
X152001071Y-90687380D01*
X151277261Y-90687380D02*
X151277261Y-90163571D01*
X151315357Y-90068333D01*
X151391547Y-90020714D01*
X151543928Y-90020714D01*
X151620119Y-90068333D01*
X151277261Y-90639761D02*
X151353452Y-90687380D01*
X151543928Y-90687380D01*
X151620119Y-90639761D01*
X151658214Y-90544523D01*
X151658214Y-90449285D01*
X151620119Y-90354047D01*
X151543928Y-90306428D01*
X151353452Y-90306428D01*
X151277261Y-90258809D01*
X150782023Y-90687380D02*
X150858214Y-90639761D01*
X150896309Y-90544523D01*
X150896309Y-89687380D01*
X149524880Y-90687380D02*
X149524880Y-89687380D01*
X149524880Y-90639761D02*
X149601071Y-90687380D01*
X149753452Y-90687380D01*
X149829642Y-90639761D01*
X149867738Y-90592142D01*
X149905833Y-90496904D01*
X149905833Y-90211190D01*
X149867738Y-90115952D01*
X149829642Y-90068333D01*
X149753452Y-90020714D01*
X149601071Y-90020714D01*
X149524880Y-90068333D01*
X148801071Y-90687380D02*
X148801071Y-90163571D01*
X148839166Y-90068333D01*
X148915357Y-90020714D01*
X149067738Y-90020714D01*
X149143928Y-90068333D01*
X148801071Y-90639761D02*
X148877261Y-90687380D01*
X149067738Y-90687380D01*
X149143928Y-90639761D01*
X149182023Y-90544523D01*
X149182023Y-90449285D01*
X149143928Y-90354047D01*
X149067738Y-90306428D01*
X148877261Y-90306428D01*
X148801071Y-90258809D01*
X148534404Y-90020714D02*
X148229642Y-90020714D01*
X148420119Y-89687380D02*
X148420119Y-90544523D01*
X148382023Y-90639761D01*
X148305833Y-90687380D01*
X148229642Y-90687380D01*
X147620119Y-90687380D02*
X147620119Y-90163571D01*
X147658214Y-90068333D01*
X147734404Y-90020714D01*
X147886785Y-90020714D01*
X147962976Y-90068333D01*
X147620119Y-90639761D02*
X147696309Y-90687380D01*
X147886785Y-90687380D01*
X147962976Y-90639761D01*
X148001071Y-90544523D01*
X148001071Y-90449285D01*
X147962976Y-90354047D01*
X147886785Y-90306428D01*
X147696309Y-90306428D01*
X147620119Y-90258809D01*
X147239166Y-90592142D02*
X147201071Y-90639761D01*
X147239166Y-90687380D01*
X147277261Y-90639761D01*
X147239166Y-90592142D01*
X147239166Y-90687380D01*
X145639166Y-90687380D02*
X145639166Y-89687380D01*
X145372500Y-90020714D02*
X145067738Y-90020714D01*
X145258214Y-90687380D02*
X145258214Y-89830238D01*
X145220119Y-89735000D01*
X145143928Y-89687380D01*
X145067738Y-89687380D01*
X143848690Y-90687380D02*
X143848690Y-89687380D01*
X143848690Y-90639761D02*
X143924880Y-90687380D01*
X144077261Y-90687380D01*
X144153452Y-90639761D01*
X144191547Y-90592142D01*
X144229642Y-90496904D01*
X144229642Y-90211190D01*
X144191547Y-90115952D01*
X144153452Y-90068333D01*
X144077261Y-90020714D01*
X143924880Y-90020714D01*
X143848690Y-90068333D01*
X143124880Y-90687380D02*
X143124880Y-90163571D01*
X143162976Y-90068333D01*
X143239166Y-90020714D01*
X143391547Y-90020714D01*
X143467738Y-90068333D01*
X143124880Y-90639761D02*
X143201071Y-90687380D01*
X143391547Y-90687380D01*
X143467738Y-90639761D01*
X143505833Y-90544523D01*
X143505833Y-90449285D01*
X143467738Y-90354047D01*
X143391547Y-90306428D01*
X143201071Y-90306428D01*
X143124880Y-90258809D01*
X142858214Y-90020714D02*
X142553452Y-90020714D01*
X142743928Y-89687380D02*
X142743928Y-90544523D01*
X142705833Y-90639761D01*
X142629642Y-90687380D01*
X142553452Y-90687380D01*
X141943928Y-90687380D02*
X141943928Y-90163571D01*
X141982023Y-90068333D01*
X142058214Y-90020714D01*
X142210595Y-90020714D01*
X142286785Y-90068333D01*
X141943928Y-90639761D02*
X142020119Y-90687380D01*
X142210595Y-90687380D01*
X142286785Y-90639761D01*
X142324880Y-90544523D01*
X142324880Y-90449285D01*
X142286785Y-90354047D01*
X142210595Y-90306428D01*
X142020119Y-90306428D01*
X141943928Y-90258809D01*
X140953452Y-90687380D02*
X140953452Y-90020714D01*
X140953452Y-89687380D02*
X140991547Y-89735000D01*
X140953452Y-89782619D01*
X140915357Y-89735000D01*
X140953452Y-89687380D01*
X140953452Y-89782619D01*
X140610595Y-90639761D02*
X140534404Y-90687380D01*
X140382023Y-90687380D01*
X140305833Y-90639761D01*
X140267738Y-90544523D01*
X140267738Y-90496904D01*
X140305833Y-90401666D01*
X140382023Y-90354047D01*
X140496309Y-90354047D01*
X140572500Y-90306428D01*
X140610595Y-90211190D01*
X140610595Y-90163571D01*
X140572500Y-90068333D01*
X140496309Y-90020714D01*
X140382023Y-90020714D01*
X140305833Y-90068333D01*
X139315357Y-90687380D02*
X139315357Y-90020714D01*
X139315357Y-90115952D02*
X139277261Y-90068333D01*
X139201071Y-90020714D01*
X139086785Y-90020714D01*
X139010595Y-90068333D01*
X138972500Y-90163571D01*
X138972500Y-90687380D01*
X138972500Y-90163571D02*
X138934404Y-90068333D01*
X138858214Y-90020714D01*
X138743928Y-90020714D01*
X138667738Y-90068333D01*
X138629642Y-90163571D01*
X138629642Y-90687380D01*
X137943928Y-90639761D02*
X138020119Y-90687380D01*
X138172500Y-90687380D01*
X138248690Y-90639761D01*
X138286785Y-90544523D01*
X138286785Y-90163571D01*
X138248690Y-90068333D01*
X138172500Y-90020714D01*
X138020119Y-90020714D01*
X137943928Y-90068333D01*
X137905833Y-90163571D01*
X137905833Y-90258809D01*
X138286785Y-90354047D01*
X137220119Y-90687380D02*
X137220119Y-90163571D01*
X137258214Y-90068333D01*
X137334404Y-90020714D01*
X137486785Y-90020714D01*
X137562976Y-90068333D01*
X137220119Y-90639761D02*
X137296309Y-90687380D01*
X137486785Y-90687380D01*
X137562976Y-90639761D01*
X137601071Y-90544523D01*
X137601071Y-90449285D01*
X137562976Y-90354047D01*
X137486785Y-90306428D01*
X137296309Y-90306428D01*
X137220119Y-90258809D01*
X136839166Y-90020714D02*
X136839166Y-90687380D01*
X136839166Y-90115952D02*
X136801071Y-90068333D01*
X136724880Y-90020714D01*
X136610595Y-90020714D01*
X136534404Y-90068333D01*
X136496309Y-90163571D01*
X136496309Y-90687380D01*
X136229642Y-90020714D02*
X135924880Y-90020714D01*
X136115357Y-89687380D02*
X136115357Y-90544523D01*
X136077261Y-90639761D01*
X136001071Y-90687380D01*
X135924880Y-90687380D01*
X135162976Y-90020714D02*
X134858214Y-90020714D01*
X135048690Y-89687380D02*
X135048690Y-90544523D01*
X135010595Y-90639761D01*
X134934404Y-90687380D01*
X134858214Y-90687380D01*
X134477261Y-90687380D02*
X134553452Y-90639761D01*
X134591547Y-90592142D01*
X134629642Y-90496904D01*
X134629642Y-90211190D01*
X134591547Y-90115952D01*
X134553452Y-90068333D01*
X134477261Y-90020714D01*
X134362976Y-90020714D01*
X134286785Y-90068333D01*
X134248690Y-90115952D01*
X134210595Y-90211190D01*
X134210595Y-90496904D01*
X134248690Y-90592142D01*
X134286785Y-90639761D01*
X134362976Y-90687380D01*
X134477261Y-90687380D01*
X133258214Y-90687380D02*
X133258214Y-89687380D01*
X133258214Y-90068333D02*
X133182023Y-90020714D01*
X133029642Y-90020714D01*
X132953452Y-90068333D01*
X132915357Y-90115952D01*
X132877261Y-90211190D01*
X132877261Y-90496904D01*
X132915357Y-90592142D01*
X132953452Y-90639761D01*
X133029642Y-90687380D01*
X133182023Y-90687380D01*
X133258214Y-90639761D01*
X132229642Y-90639761D02*
X132305833Y-90687380D01*
X132458214Y-90687380D01*
X132534404Y-90639761D01*
X132572500Y-90544523D01*
X132572500Y-90163571D01*
X132534404Y-90068333D01*
X132458214Y-90020714D01*
X132305833Y-90020714D01*
X132229642Y-90068333D01*
X132191547Y-90163571D01*
X132191547Y-90258809D01*
X132572500Y-90354047D01*
X130896309Y-90639761D02*
X130972500Y-90687380D01*
X131124880Y-90687380D01*
X131201071Y-90639761D01*
X131239166Y-90592142D01*
X131277261Y-90496904D01*
X131277261Y-90211190D01*
X131239166Y-90115952D01*
X131201071Y-90068333D01*
X131124880Y-90020714D01*
X130972500Y-90020714D01*
X130896309Y-90068333D01*
X130439166Y-90687380D02*
X130515357Y-90639761D01*
X130553452Y-90592142D01*
X130591547Y-90496904D01*
X130591547Y-90211190D01*
X130553452Y-90115952D01*
X130515357Y-90068333D01*
X130439166Y-90020714D01*
X130324880Y-90020714D01*
X130248690Y-90068333D01*
X130210595Y-90115952D01*
X130172500Y-90211190D01*
X130172500Y-90496904D01*
X130210595Y-90592142D01*
X130248690Y-90639761D01*
X130324880Y-90687380D01*
X130439166Y-90687380D01*
X129829642Y-90020714D02*
X129829642Y-90687380D01*
X129829642Y-90115952D02*
X129791547Y-90068333D01*
X129715357Y-90020714D01*
X129601071Y-90020714D01*
X129524880Y-90068333D01*
X129486785Y-90163571D01*
X129486785Y-90687380D01*
X129220119Y-90020714D02*
X128915357Y-90020714D01*
X129105833Y-89687380D02*
X129105833Y-90544523D01*
X129067738Y-90639761D01*
X128991547Y-90687380D01*
X128915357Y-90687380D01*
X128648690Y-90687380D02*
X128648690Y-90020714D01*
X128648690Y-89687380D02*
X128686785Y-89735000D01*
X128648690Y-89782619D01*
X128610595Y-89735000D01*
X128648690Y-89687380D01*
X128648690Y-89782619D01*
X128267738Y-90020714D02*
X128267738Y-90687380D01*
X128267738Y-90115952D02*
X128229642Y-90068333D01*
X128153452Y-90020714D01*
X128039166Y-90020714D01*
X127962976Y-90068333D01*
X127924880Y-90163571D01*
X127924880Y-90687380D01*
X127201071Y-90020714D02*
X127201071Y-90687380D01*
X127543928Y-90020714D02*
X127543928Y-90544523D01*
X127505833Y-90639761D01*
X127429642Y-90687380D01*
X127315357Y-90687380D01*
X127239166Y-90639761D01*
X127201071Y-90592142D01*
X126705833Y-90687380D02*
X126782023Y-90639761D01*
X126820119Y-90592142D01*
X126858214Y-90496904D01*
X126858214Y-90211190D01*
X126820119Y-90115952D01*
X126782023Y-90068333D01*
X126705833Y-90020714D01*
X126591547Y-90020714D01*
X126515357Y-90068333D01*
X126477261Y-90115952D01*
X126439166Y-90211190D01*
X126439166Y-90496904D01*
X126477261Y-90592142D01*
X126515357Y-90639761D01*
X126591547Y-90687380D01*
X126705833Y-90687380D01*
X125753452Y-90020714D02*
X125753452Y-90687380D01*
X126096309Y-90020714D02*
X126096309Y-90544523D01*
X126058214Y-90639761D01*
X125982023Y-90687380D01*
X125867738Y-90687380D01*
X125791547Y-90639761D01*
X125753452Y-90592142D01*
X125410595Y-90639761D02*
X125334404Y-90687380D01*
X125182023Y-90687380D01*
X125105833Y-90639761D01*
X125067738Y-90544523D01*
X125067738Y-90496904D01*
X125105833Y-90401666D01*
X125182023Y-90354047D01*
X125296309Y-90354047D01*
X125372500Y-90306428D01*
X125410595Y-90211190D01*
X125410595Y-90163571D01*
X125372500Y-90068333D01*
X125296309Y-90020714D01*
X125182023Y-90020714D01*
X125105833Y-90068333D01*
X124610595Y-90687380D02*
X124686785Y-90639761D01*
X124724880Y-90544523D01*
X124724880Y-89687380D01*
X124382023Y-90020714D02*
X124191547Y-90687380D01*
X124001071Y-90020714D02*
X124191547Y-90687380D01*
X124267738Y-90925476D01*
X124305833Y-90973095D01*
X124382023Y-91020714D01*
X123086785Y-90687380D02*
X123086785Y-90020714D01*
X123086785Y-90211190D02*
X123048690Y-90115952D01*
X123010595Y-90068333D01*
X122934404Y-90020714D01*
X122858214Y-90020714D01*
X122286785Y-90639761D02*
X122362976Y-90687380D01*
X122515357Y-90687380D01*
X122591547Y-90639761D01*
X122629642Y-90544523D01*
X122629642Y-90163571D01*
X122591547Y-90068333D01*
X122515357Y-90020714D01*
X122362976Y-90020714D01*
X122286785Y-90068333D01*
X122248690Y-90163571D01*
X122248690Y-90258809D01*
X122629642Y-90354047D01*
X121562976Y-90687380D02*
X121562976Y-90163571D01*
X121601071Y-90068333D01*
X121677261Y-90020714D01*
X121829642Y-90020714D01*
X121905833Y-90068333D01*
X121562976Y-90639761D02*
X121639166Y-90687380D01*
X121829642Y-90687380D01*
X121905833Y-90639761D01*
X121943928Y-90544523D01*
X121943928Y-90449285D01*
X121905833Y-90354047D01*
X121829642Y-90306428D01*
X121639166Y-90306428D01*
X121562976Y-90258809D01*
X120839166Y-90687380D02*
X120839166Y-89687380D01*
X120839166Y-90639761D02*
X120915357Y-90687380D01*
X121067738Y-90687380D01*
X121143928Y-90639761D01*
X121182023Y-90592142D01*
X121220119Y-90496904D01*
X121220119Y-90211190D01*
X121182023Y-90115952D01*
X121143928Y-90068333D01*
X121067738Y-90020714D01*
X120915357Y-90020714D01*
X120839166Y-90068333D01*
X120420119Y-90639761D02*
X120420119Y-90687380D01*
X120458214Y-90782619D01*
X120496309Y-90830238D01*
X119582023Y-90020714D02*
X119277261Y-90020714D01*
X119467738Y-90687380D02*
X119467738Y-89830238D01*
X119429642Y-89735000D01*
X119353452Y-89687380D01*
X119277261Y-89687380D01*
X119010595Y-90687380D02*
X119010595Y-90020714D01*
X119010595Y-89687380D02*
X119048690Y-89735000D01*
X119010595Y-89782619D01*
X118972500Y-89735000D01*
X119010595Y-89687380D01*
X119010595Y-89782619D01*
X118743928Y-90020714D02*
X118439166Y-90020714D01*
X118629642Y-89687380D02*
X118629642Y-90544523D01*
X118591547Y-90639761D01*
X118515357Y-90687380D01*
X118439166Y-90687380D01*
X117334404Y-89687380D02*
X117334404Y-90401666D01*
X117372500Y-90544523D01*
X117448690Y-90639761D01*
X117562976Y-90687380D01*
X117639166Y-90687380D01*
X116953452Y-90687380D02*
X116953452Y-89687380D01*
X116648690Y-89687380D01*
X116572500Y-89735000D01*
X116534404Y-89782619D01*
X116496309Y-89877857D01*
X116496309Y-90020714D01*
X116534404Y-90115952D01*
X116572500Y-90163571D01*
X116648690Y-90211190D01*
X116953452Y-90211190D01*
X115734404Y-90687380D02*
X116191547Y-90687380D01*
X115962976Y-90687380D02*
X115962976Y-89687380D01*
X116039166Y-89830238D01*
X116115357Y-89925476D01*
X116191547Y-89973095D01*
X115391547Y-90592142D02*
X115353452Y-90639761D01*
X115391547Y-90687380D01*
X115429642Y-90639761D01*
X115391547Y-90592142D01*
X115391547Y-90687380D01*
%TO.C,C2*%
X181236666Y-107427142D02*
X181284285Y-107474761D01*
X181427142Y-107522380D01*
X181522380Y-107522380D01*
X181665238Y-107474761D01*
X181760476Y-107379523D01*
X181808095Y-107284285D01*
X181855714Y-107093809D01*
X181855714Y-106950952D01*
X181808095Y-106760476D01*
X181760476Y-106665238D01*
X181665238Y-106570000D01*
X181522380Y-106522380D01*
X181427142Y-106522380D01*
X181284285Y-106570000D01*
X181236666Y-106617619D01*
X180855714Y-106617619D02*
X180808095Y-106570000D01*
X180712857Y-106522380D01*
X180474761Y-106522380D01*
X180379523Y-106570000D01*
X180331904Y-106617619D01*
X180284285Y-106712857D01*
X180284285Y-106808095D01*
X180331904Y-106950952D01*
X180903333Y-107522380D01*
X180284285Y-107522380D01*
X178189047Y-107522380D02*
X178760476Y-107522380D01*
X178474761Y-107522380D02*
X178474761Y-106522380D01*
X178570000Y-106665238D01*
X178665238Y-106760476D01*
X178760476Y-106808095D01*
X177570000Y-106522380D02*
X177474761Y-106522380D01*
X177379523Y-106570000D01*
X177331904Y-106617619D01*
X177284285Y-106712857D01*
X177236666Y-106903333D01*
X177236666Y-107141428D01*
X177284285Y-107331904D01*
X177331904Y-107427142D01*
X177379523Y-107474761D01*
X177474761Y-107522380D01*
X177570000Y-107522380D01*
X177665238Y-107474761D01*
X177712857Y-107427142D01*
X177760476Y-107331904D01*
X177808095Y-107141428D01*
X177808095Y-106903333D01*
X177760476Y-106712857D01*
X177712857Y-106617619D01*
X177665238Y-106570000D01*
X177570000Y-106522380D01*
X176617619Y-106522380D02*
X176522380Y-106522380D01*
X176427142Y-106570000D01*
X176379523Y-106617619D01*
X176331904Y-106712857D01*
X176284285Y-106903333D01*
X176284285Y-107141428D01*
X176331904Y-107331904D01*
X176379523Y-107427142D01*
X176427142Y-107474761D01*
X176522380Y-107522380D01*
X176617619Y-107522380D01*
X176712857Y-107474761D01*
X176760476Y-107427142D01*
X176808095Y-107331904D01*
X176855714Y-107141428D01*
X176855714Y-106903333D01*
X176808095Y-106712857D01*
X176760476Y-106617619D01*
X176712857Y-106570000D01*
X176617619Y-106522380D01*
X175855714Y-106855714D02*
X175855714Y-107522380D01*
X175855714Y-106950952D02*
X175808095Y-106903333D01*
X175712857Y-106855714D01*
X175570000Y-106855714D01*
X175474761Y-106903333D01*
X175427142Y-106998571D01*
X175427142Y-107522380D01*
%TO.C,C4*%
X180486666Y-124677142D02*
X180534285Y-124724761D01*
X180677142Y-124772380D01*
X180772380Y-124772380D01*
X180915238Y-124724761D01*
X181010476Y-124629523D01*
X181058095Y-124534285D01*
X181105714Y-124343809D01*
X181105714Y-124200952D01*
X181058095Y-124010476D01*
X181010476Y-123915238D01*
X180915238Y-123820000D01*
X180772380Y-123772380D01*
X180677142Y-123772380D01*
X180534285Y-123820000D01*
X180486666Y-123867619D01*
X179629523Y-124105714D02*
X179629523Y-124772380D01*
X179867619Y-123724761D02*
X180105714Y-124439047D01*
X179486666Y-124439047D01*
X177939047Y-124772380D02*
X178510476Y-124772380D01*
X178224761Y-124772380D02*
X178224761Y-123772380D01*
X178320000Y-123915238D01*
X178415238Y-124010476D01*
X178510476Y-124058095D01*
X177320000Y-123772380D02*
X177224761Y-123772380D01*
X177129523Y-123820000D01*
X177081904Y-123867619D01*
X177034285Y-123962857D01*
X176986666Y-124153333D01*
X176986666Y-124391428D01*
X177034285Y-124581904D01*
X177081904Y-124677142D01*
X177129523Y-124724761D01*
X177224761Y-124772380D01*
X177320000Y-124772380D01*
X177415238Y-124724761D01*
X177462857Y-124677142D01*
X177510476Y-124581904D01*
X177558095Y-124391428D01*
X177558095Y-124153333D01*
X177510476Y-123962857D01*
X177462857Y-123867619D01*
X177415238Y-123820000D01*
X177320000Y-123772380D01*
X176367619Y-123772380D02*
X176272380Y-123772380D01*
X176177142Y-123820000D01*
X176129523Y-123867619D01*
X176081904Y-123962857D01*
X176034285Y-124153333D01*
X176034285Y-124391428D01*
X176081904Y-124581904D01*
X176129523Y-124677142D01*
X176177142Y-124724761D01*
X176272380Y-124772380D01*
X176367619Y-124772380D01*
X176462857Y-124724761D01*
X176510476Y-124677142D01*
X176558095Y-124581904D01*
X176605714Y-124391428D01*
X176605714Y-124153333D01*
X176558095Y-123962857D01*
X176510476Y-123867619D01*
X176462857Y-123820000D01*
X176367619Y-123772380D01*
X175605714Y-124105714D02*
X175605714Y-124772380D01*
X175605714Y-124200952D02*
X175558095Y-124153333D01*
X175462857Y-124105714D01*
X175320000Y-124105714D01*
X175224761Y-124153333D01*
X175177142Y-124248571D01*
X175177142Y-124772380D01*
%TO.C,JP1*%
X145903333Y-79522380D02*
X145903333Y-80236666D01*
X145950952Y-80379523D01*
X146046190Y-80474761D01*
X146189047Y-80522380D01*
X146284285Y-80522380D01*
X145427142Y-80522380D02*
X145427142Y-79522380D01*
X145046190Y-79522380D01*
X144950952Y-79570000D01*
X144903333Y-79617619D01*
X144855714Y-79712857D01*
X144855714Y-79855714D01*
X144903333Y-79950952D01*
X144950952Y-79998571D01*
X145046190Y-80046190D01*
X145427142Y-80046190D01*
X143903333Y-80522380D02*
X144474761Y-80522380D01*
X144189047Y-80522380D02*
X144189047Y-79522380D01*
X144284285Y-79665238D01*
X144379523Y-79760476D01*
X144474761Y-79808095D01*
X151784285Y-81986666D02*
X151308095Y-81986666D01*
X151879523Y-82272380D02*
X151546190Y-81272380D01*
X151212857Y-82272380D01*
X150450952Y-81605714D02*
X150450952Y-82272380D01*
X150879523Y-81605714D02*
X150879523Y-82129523D01*
X150831904Y-82224761D01*
X150736666Y-82272380D01*
X150593809Y-82272380D01*
X150498571Y-82224761D01*
X150450952Y-82177142D01*
X150117619Y-81605714D02*
X149736666Y-81605714D01*
X149974761Y-81272380D02*
X149974761Y-82129523D01*
X149927142Y-82224761D01*
X149831904Y-82272380D01*
X149736666Y-82272380D01*
X149260476Y-82272380D02*
X149355714Y-82224761D01*
X149403333Y-82177142D01*
X149450952Y-82081904D01*
X149450952Y-81796190D01*
X149403333Y-81700952D01*
X149355714Y-81653333D01*
X149260476Y-81605714D01*
X149117619Y-81605714D01*
X149022380Y-81653333D01*
X148974761Y-81700952D01*
X148927142Y-81796190D01*
X148927142Y-82081904D01*
X148974761Y-82177142D01*
X149022380Y-82224761D01*
X149117619Y-82272380D01*
X149260476Y-82272380D01*
X147784285Y-82224761D02*
X147641428Y-82272380D01*
X147403333Y-82272380D01*
X147308095Y-82224761D01*
X147260476Y-82177142D01*
X147212857Y-82081904D01*
X147212857Y-81986666D01*
X147260476Y-81891428D01*
X147308095Y-81843809D01*
X147403333Y-81796190D01*
X147593809Y-81748571D01*
X147689047Y-81700952D01*
X147736666Y-81653333D01*
X147784285Y-81558095D01*
X147784285Y-81462857D01*
X147736666Y-81367619D01*
X147689047Y-81320000D01*
X147593809Y-81272380D01*
X147355714Y-81272380D01*
X147212857Y-81320000D01*
X146927142Y-81605714D02*
X146546190Y-81605714D01*
X146784285Y-81272380D02*
X146784285Y-82129523D01*
X146736666Y-82224761D01*
X146641428Y-82272380D01*
X146546190Y-82272380D01*
X146212857Y-82272380D02*
X146212857Y-81605714D01*
X146212857Y-81796190D02*
X146165238Y-81700952D01*
X146117619Y-81653333D01*
X146022380Y-81605714D01*
X145927142Y-81605714D01*
X145450952Y-82272380D02*
X145546190Y-82224761D01*
X145593809Y-82177142D01*
X145641428Y-82081904D01*
X145641428Y-81796190D01*
X145593809Y-81700952D01*
X145546190Y-81653333D01*
X145450952Y-81605714D01*
X145308095Y-81605714D01*
X145212857Y-81653333D01*
X145165238Y-81700952D01*
X145117619Y-81796190D01*
X145117619Y-82081904D01*
X145165238Y-82177142D01*
X145212857Y-82224761D01*
X145308095Y-82272380D01*
X145450952Y-82272380D01*
X144689047Y-82272380D02*
X144689047Y-81272380D01*
X144689047Y-81653333D02*
X144593809Y-81605714D01*
X144403333Y-81605714D01*
X144308095Y-81653333D01*
X144260476Y-81700952D01*
X144212857Y-81796190D01*
X144212857Y-82081904D01*
X144260476Y-82177142D01*
X144308095Y-82224761D01*
X144403333Y-82272380D01*
X144593809Y-82272380D01*
X144689047Y-82224761D01*
X143403333Y-82224761D02*
X143498571Y-82272380D01*
X143689047Y-82272380D01*
X143784285Y-82224761D01*
X143831904Y-82129523D01*
X143831904Y-81748571D01*
X143784285Y-81653333D01*
X143689047Y-81605714D01*
X143498571Y-81605714D01*
X143403333Y-81653333D01*
X143355714Y-81748571D01*
X143355714Y-81843809D01*
X143831904Y-81939047D01*
%TO.C,C5*%
X124236666Y-114427142D02*
X124284285Y-114474761D01*
X124427142Y-114522380D01*
X124522380Y-114522380D01*
X124665238Y-114474761D01*
X124760476Y-114379523D01*
X124808095Y-114284285D01*
X124855714Y-114093809D01*
X124855714Y-113950952D01*
X124808095Y-113760476D01*
X124760476Y-113665238D01*
X124665238Y-113570000D01*
X124522380Y-113522380D01*
X124427142Y-113522380D01*
X124284285Y-113570000D01*
X124236666Y-113617619D01*
X123331904Y-113522380D02*
X123808095Y-113522380D01*
X123855714Y-113998571D01*
X123808095Y-113950952D01*
X123712857Y-113903333D01*
X123474761Y-113903333D01*
X123379523Y-113950952D01*
X123331904Y-113998571D01*
X123284285Y-114093809D01*
X123284285Y-114331904D01*
X123331904Y-114427142D01*
X123379523Y-114474761D01*
X123474761Y-114522380D01*
X123712857Y-114522380D01*
X123808095Y-114474761D01*
X123855714Y-114427142D01*
X122462857Y-113617619D02*
X122415238Y-113570000D01*
X122320000Y-113522380D01*
X122081904Y-113522380D01*
X121986666Y-113570000D01*
X121939047Y-113617619D01*
X121891428Y-113712857D01*
X121891428Y-113808095D01*
X121939047Y-113950952D01*
X122510476Y-114522380D01*
X121891428Y-114522380D01*
X121510476Y-113617619D02*
X121462857Y-113570000D01*
X121367619Y-113522380D01*
X121129523Y-113522380D01*
X121034285Y-113570000D01*
X120986666Y-113617619D01*
X120939047Y-113712857D01*
X120939047Y-113808095D01*
X120986666Y-113950952D01*
X121558095Y-114522380D01*
X120939047Y-114522380D01*
X120081904Y-113855714D02*
X120081904Y-114522380D01*
X120510476Y-113855714D02*
X120510476Y-114379523D01*
X120462857Y-114474761D01*
X120367619Y-114522380D01*
X120224761Y-114522380D01*
X120129523Y-114474761D01*
X120081904Y-114427142D01*
X119272380Y-113998571D02*
X119605714Y-113998571D01*
X119605714Y-114522380D02*
X119605714Y-113522380D01*
X119129523Y-113522380D01*
%TO.C,C1*%
X141736666Y-107927631D02*
X141784285Y-107975250D01*
X141927142Y-108022869D01*
X142022380Y-108022869D01*
X142165238Y-107975250D01*
X142260476Y-107880012D01*
X142308095Y-107784774D01*
X142355714Y-107594298D01*
X142355714Y-107451441D01*
X142308095Y-107260965D01*
X142260476Y-107165727D01*
X142165238Y-107070489D01*
X142022380Y-107022869D01*
X141927142Y-107022869D01*
X141784285Y-107070489D01*
X141736666Y-107118108D01*
X140784285Y-108022869D02*
X141355714Y-108022869D01*
X141070000Y-108022869D02*
X141070000Y-107022869D01*
X141165238Y-107165727D01*
X141260476Y-107260965D01*
X141355714Y-107308584D01*
X139189047Y-108022380D02*
X139760476Y-108022380D01*
X139474761Y-108022380D02*
X139474761Y-107022380D01*
X139570000Y-107165238D01*
X139665238Y-107260476D01*
X139760476Y-107308095D01*
X138570000Y-107022380D02*
X138474761Y-107022380D01*
X138379523Y-107070000D01*
X138331904Y-107117619D01*
X138284285Y-107212857D01*
X138236666Y-107403333D01*
X138236666Y-107641428D01*
X138284285Y-107831904D01*
X138331904Y-107927142D01*
X138379523Y-107974761D01*
X138474761Y-108022380D01*
X138570000Y-108022380D01*
X138665238Y-107974761D01*
X138712857Y-107927142D01*
X138760476Y-107831904D01*
X138808095Y-107641428D01*
X138808095Y-107403333D01*
X138760476Y-107212857D01*
X138712857Y-107117619D01*
X138665238Y-107070000D01*
X138570000Y-107022380D01*
X137617619Y-107022380D02*
X137522380Y-107022380D01*
X137427142Y-107070000D01*
X137379523Y-107117619D01*
X137331904Y-107212857D01*
X137284285Y-107403333D01*
X137284285Y-107641428D01*
X137331904Y-107831904D01*
X137379523Y-107927142D01*
X137427142Y-107974761D01*
X137522380Y-108022380D01*
X137617619Y-108022380D01*
X137712857Y-107974761D01*
X137760476Y-107927142D01*
X137808095Y-107831904D01*
X137855714Y-107641428D01*
X137855714Y-107403333D01*
X137808095Y-107212857D01*
X137760476Y-107117619D01*
X137712857Y-107070000D01*
X137617619Y-107022380D01*
X136855714Y-107355714D02*
X136855714Y-108022380D01*
X136855714Y-107450952D02*
X136808095Y-107403333D01*
X136712857Y-107355714D01*
X136570000Y-107355714D01*
X136474761Y-107403333D01*
X136427142Y-107498571D01*
X136427142Y-108022380D01*
%TO.C,C3*%
X156736666Y-124677142D02*
X156784285Y-124724761D01*
X156927142Y-124772380D01*
X157022380Y-124772380D01*
X157165238Y-124724761D01*
X157260476Y-124629523D01*
X157308095Y-124534285D01*
X157355714Y-124343809D01*
X157355714Y-124200952D01*
X157308095Y-124010476D01*
X157260476Y-123915238D01*
X157165238Y-123820000D01*
X157022380Y-123772380D01*
X156927142Y-123772380D01*
X156784285Y-123820000D01*
X156736666Y-123867619D01*
X156403333Y-123772380D02*
X155784285Y-123772380D01*
X156117619Y-124153333D01*
X155974761Y-124153333D01*
X155879523Y-124200952D01*
X155831904Y-124248571D01*
X155784285Y-124343809D01*
X155784285Y-124581904D01*
X155831904Y-124677142D01*
X155879523Y-124724761D01*
X155974761Y-124772380D01*
X156260476Y-124772380D01*
X156355714Y-124724761D01*
X156403333Y-124677142D01*
X153939047Y-124772380D02*
X154510476Y-124772380D01*
X154224761Y-124772380D02*
X154224761Y-123772380D01*
X154320000Y-123915238D01*
X154415238Y-124010476D01*
X154510476Y-124058095D01*
X153320000Y-123772380D02*
X153224761Y-123772380D01*
X153129523Y-123820000D01*
X153081904Y-123867619D01*
X153034285Y-123962857D01*
X152986666Y-124153333D01*
X152986666Y-124391428D01*
X153034285Y-124581904D01*
X153081904Y-124677142D01*
X153129523Y-124724761D01*
X153224761Y-124772380D01*
X153320000Y-124772380D01*
X153415238Y-124724761D01*
X153462857Y-124677142D01*
X153510476Y-124581904D01*
X153558095Y-124391428D01*
X153558095Y-124153333D01*
X153510476Y-123962857D01*
X153462857Y-123867619D01*
X153415238Y-123820000D01*
X153320000Y-123772380D01*
X152367619Y-123772380D02*
X152272380Y-123772380D01*
X152177142Y-123820000D01*
X152129523Y-123867619D01*
X152081904Y-123962857D01*
X152034285Y-124153333D01*
X152034285Y-124391428D01*
X152081904Y-124581904D01*
X152129523Y-124677142D01*
X152177142Y-124724761D01*
X152272380Y-124772380D01*
X152367619Y-124772380D01*
X152462857Y-124724761D01*
X152510476Y-124677142D01*
X152558095Y-124581904D01*
X152605714Y-124391428D01*
X152605714Y-124153333D01*
X152558095Y-123962857D01*
X152510476Y-123867619D01*
X152462857Y-123820000D01*
X152367619Y-123772380D01*
X151605714Y-124105714D02*
X151605714Y-124772380D01*
X151605714Y-124200952D02*
X151558095Y-124153333D01*
X151462857Y-124105714D01*
X151320000Y-124105714D01*
X151224761Y-124153333D01*
X151177142Y-124248571D01*
X151177142Y-124772380D01*
D11*
%TO.C,C2*%
X182540000Y-105940489D02*
X182540000Y-103200489D01*
X175100000Y-103200489D02*
X182540000Y-103200489D01*
X175100000Y-105940489D02*
X175100000Y-103200489D01*
X175100000Y-105940489D02*
X182540000Y-105940489D01*
%TO.C,C4*%
X174600000Y-120450000D02*
X182040000Y-120450000D01*
X182040000Y-123190000D02*
X182040000Y-120450000D01*
X174600000Y-123190000D02*
X174600000Y-120450000D01*
X174600000Y-123190000D02*
X182040000Y-123190000D01*
%TO.C,JP1*%
X146990000Y-77825000D02*
X146990000Y-75225000D01*
X146990000Y-80425000D02*
X148320000Y-80425000D01*
X146990000Y-79095000D02*
X146990000Y-80425000D01*
X149650000Y-77825000D02*
X149650000Y-75225000D01*
X146990000Y-77825000D02*
X149650000Y-77825000D01*
X146990000Y-75225000D02*
X149650000Y-75225000D01*
%TO.C,C5*%
X123304888Y-109280000D02*
X123304888Y-107777000D01*
X124665888Y-109280000D02*
X124665888Y-108456000D01*
X123625888Y-112788000D02*
X123625888Y-111360000D01*
X125225888Y-111418000D02*
X125225888Y-109222000D01*
X123905888Y-112685000D02*
X123905888Y-111360000D01*
X124865888Y-109280000D02*
X124865888Y-108667000D01*
X122904888Y-109280000D02*
X122904888Y-107740000D01*
X124745888Y-109280000D02*
X124745888Y-108535000D01*
X123625888Y-109280000D02*
X123625888Y-107852000D01*
X124785888Y-109280000D02*
X124785888Y-108577000D01*
X124465888Y-109280000D02*
X124465888Y-108285000D01*
X123985888Y-112649000D02*
X123985888Y-111360000D01*
X123585888Y-112800000D02*
X123585888Y-111360000D01*
X123064888Y-109280000D02*
X123064888Y-107747000D01*
X123865888Y-112702000D02*
X123865888Y-111360000D01*
X124105888Y-109280000D02*
X124105888Y-108052000D01*
X125345888Y-111125000D02*
X125345888Y-109515000D01*
X123464888Y-112831000D02*
X123464888Y-111360000D01*
X122944888Y-109280000D02*
X122944888Y-107741000D01*
X120310113Y-112045000D02*
X120310113Y-111545000D01*
X124385888Y-112415000D02*
X124385888Y-111360000D01*
X124305888Y-112469000D02*
X124305888Y-111360000D01*
X125065888Y-111703000D02*
X125065888Y-108937000D01*
X124265888Y-109280000D02*
X124265888Y-108145000D01*
X124785888Y-112063000D02*
X124785888Y-111360000D01*
X123665888Y-109280000D02*
X123665888Y-107865000D01*
X124025888Y-109280000D02*
X124025888Y-108010000D01*
X123905888Y-109280000D02*
X123905888Y-107955000D01*
X125465888Y-110604000D02*
X125465888Y-110036000D01*
X123344888Y-112856000D02*
X123344888Y-111360000D01*
X124905888Y-111925000D02*
X124905888Y-108715000D01*
X123144888Y-112885000D02*
X123144888Y-111360000D01*
X123304888Y-112863000D02*
X123304888Y-111360000D01*
X124625888Y-109280000D02*
X124625888Y-108419000D01*
X123384888Y-109280000D02*
X123384888Y-107792000D01*
X124025888Y-112630000D02*
X124025888Y-111360000D01*
X123264888Y-112870000D02*
X123264888Y-111360000D01*
X124385888Y-109280000D02*
X124385888Y-108225000D01*
X124505888Y-109280000D02*
X124505888Y-108316000D01*
X122864888Y-112900000D02*
X122864888Y-111360000D01*
X123825888Y-112718000D02*
X123825888Y-111360000D01*
X125265888Y-111331000D02*
X125265888Y-109309000D01*
X124505888Y-112324000D02*
X124505888Y-111360000D01*
X123705888Y-112762000D02*
X123705888Y-111360000D01*
X123745888Y-112748000D02*
X123745888Y-111360000D01*
X124145888Y-109280000D02*
X124145888Y-108073000D01*
X124545888Y-109280000D02*
X124545888Y-108349000D01*
X122904888Y-112900000D02*
X122904888Y-111360000D01*
X124665888Y-112184000D02*
X124665888Y-111360000D01*
X125185888Y-111498000D02*
X125185888Y-109142000D01*
X123544888Y-112811000D02*
X123544888Y-111360000D01*
X123224888Y-109280000D02*
X123224888Y-107764000D01*
X124425888Y-112385000D02*
X124425888Y-111360000D01*
X125425888Y-110838000D02*
X125425888Y-109802000D01*
X124345888Y-109280000D02*
X124345888Y-108198000D01*
X123064888Y-112893000D02*
X123064888Y-111360000D01*
X124425888Y-109280000D02*
X124425888Y-108255000D01*
X124705888Y-112146000D02*
X124705888Y-111360000D01*
X123945888Y-109280000D02*
X123945888Y-107972000D01*
X124825888Y-112019000D02*
X124825888Y-111360000D01*
X123945888Y-112668000D02*
X123945888Y-111360000D01*
X123785888Y-112734000D02*
X123785888Y-111360000D01*
X124625888Y-112221000D02*
X124625888Y-111360000D01*
X123464888Y-109280000D02*
X123464888Y-107809000D01*
X123504888Y-112821000D02*
X123504888Y-111360000D01*
X123184888Y-109280000D02*
X123184888Y-107759000D01*
X124825888Y-109280000D02*
X124825888Y-108621000D01*
X124065888Y-112610000D02*
X124065888Y-111360000D01*
X124585888Y-109280000D02*
X124585888Y-108383000D01*
X122984888Y-109280000D02*
X122984888Y-107742000D01*
X123665888Y-112775000D02*
X123665888Y-111360000D01*
X125385888Y-110997000D02*
X125385888Y-109643000D01*
X124105888Y-112588000D02*
X124105888Y-111360000D01*
X125105888Y-111639000D02*
X125105888Y-109001000D01*
X124545888Y-112291000D02*
X124545888Y-111360000D01*
X124745888Y-112105000D02*
X124745888Y-111360000D01*
X123825888Y-109280000D02*
X123825888Y-107922000D01*
X125145888Y-111571000D02*
X125145888Y-109069000D01*
X123504888Y-109280000D02*
X123504888Y-107819000D01*
X123785888Y-109280000D02*
X123785888Y-107906000D01*
X124185888Y-112544000D02*
X124185888Y-111360000D01*
X123344888Y-109280000D02*
X123344888Y-107784000D01*
X124465888Y-112355000D02*
X124465888Y-111360000D01*
X125305888Y-111235000D02*
X125305888Y-109405000D01*
X123224888Y-112876000D02*
X123224888Y-111360000D01*
X123745888Y-109280000D02*
X123745888Y-107892000D01*
X124225888Y-112520000D02*
X124225888Y-111360000D01*
X123104888Y-109280000D02*
X123104888Y-107751000D01*
X124865888Y-111973000D02*
X124865888Y-111360000D01*
X124345888Y-112442000D02*
X124345888Y-111360000D01*
X124065888Y-109280000D02*
X124065888Y-108030000D01*
X123985888Y-109280000D02*
X123985888Y-107991000D01*
X124225888Y-109280000D02*
X124225888Y-108120000D01*
X123585888Y-109280000D02*
X123585888Y-107840000D01*
X123544888Y-109280000D02*
X123544888Y-107829000D01*
X124185888Y-109280000D02*
X124185888Y-108096000D01*
X124585888Y-112257000D02*
X124585888Y-111360000D01*
X123104888Y-112889000D02*
X123104888Y-111360000D01*
X123424888Y-112840000D02*
X123424888Y-111360000D01*
X123424888Y-109280000D02*
X123424888Y-107800000D01*
X124985888Y-111820000D02*
X124985888Y-108820000D01*
X123384888Y-112848000D02*
X123384888Y-111360000D01*
X124145888Y-112567000D02*
X124145888Y-111360000D01*
X123024888Y-109280000D02*
X123024888Y-107744000D01*
X124305888Y-109280000D02*
X124305888Y-108171000D01*
X124705888Y-109280000D02*
X124705888Y-108494000D01*
X123144888Y-109280000D02*
X123144888Y-107755000D01*
X123024888Y-112896000D02*
X123024888Y-111360000D01*
X120060113Y-111795000D02*
X120560113Y-111795000D01*
X122864888Y-109280000D02*
X122864888Y-107740000D01*
X122984888Y-112898000D02*
X122984888Y-111360000D01*
X123184888Y-112881000D02*
X123184888Y-111360000D01*
X125025888Y-111763000D02*
X125025888Y-108877000D01*
X124265888Y-112495000D02*
X124265888Y-111360000D01*
X123705888Y-109280000D02*
X123705888Y-107878000D01*
X123264888Y-109280000D02*
X123264888Y-107770000D01*
X124945888Y-111874000D02*
X124945888Y-108766000D01*
X123865888Y-109280000D02*
X123865888Y-107938000D01*
X122944888Y-112899000D02*
X122944888Y-111360000D01*
X125484888Y-110320000D02*
G75*
G03*
X125484888Y-110320000I-2620000J0D01*
G01*
%TO.C,C1*%
X143540000Y-106440489D02*
X143540000Y-103700489D01*
X136100000Y-106440489D02*
X143540000Y-106440489D01*
X136100000Y-106440489D02*
X136100000Y-103700489D01*
X136100000Y-103700489D02*
X143540000Y-103700489D01*
%TO.C,C3*%
X150600000Y-120450000D02*
X158040000Y-120450000D01*
X158040000Y-123190000D02*
X158040000Y-120450000D01*
X150600000Y-123190000D02*
X150600000Y-120450000D01*
X150600000Y-123190000D02*
X158040000Y-123190000D01*
%TD*%
M02*
