%TF.GenerationSoftware,KiCad,Pcbnew,(6.0.5-0)*%
%TF.CreationDate,2023-11-24T08:12:00-08:00*%
%TF.ProjectId,pio-sp-clone,70696f2d-7370-42d6-936c-6f6e652e6b69,ISS01*%
%TF.SameCoordinates,Original*%
%TF.FileFunction,Soldermask,Top*%
%TF.FilePolarity,Negative*%
%FSLAX46Y46*%
G04 Gerber Fmt 4.6, Leading zero omitted, Abs format (unit mm)*
G04 Created by KiCad (PCBNEW (6.0.5-0)) date 2023-11-24 08:12:00*
%MOMM*%
%LPD*%
G01*
G04 APERTURE LIST*
G04 Aperture macros list*
%AMRoundRect*
0 Rectangle with rounded corners*
0 $1 Rounding radius*
0 $2 $3 $4 $5 $6 $7 $8 $9 X,Y pos of 4 corners*
0 Add a 4 corners polygon primitive as box body*
4,1,4,$2,$3,$4,$5,$6,$7,$8,$9,$2,$3,0*
0 Add four circle primitives for the rounded corners*
1,1,$1+$1,$2,$3*
1,1,$1+$1,$4,$5*
1,1,$1+$1,$6,$7*
1,1,$1+$1,$8,$9*
0 Add four rect primitives between the rounded corners*
20,1,$1+$1,$2,$3,$4,$5,0*
20,1,$1+$1,$4,$5,$6,$7,0*
20,1,$1+$1,$6,$7,$8,$9,0*
20,1,$1+$1,$8,$9,$2,$3,0*%
G04 Aperture macros list end*
%ADD10R,1.600000X2.400000*%
%ADD11O,1.600000X2.400000*%
%ADD12C,1.524000*%
%ADD13RoundRect,0.250000X0.600000X-0.600000X0.600000X0.600000X-0.600000X0.600000X-0.600000X-0.600000X0*%
%ADD14C,1.700000*%
%ADD15C,1.600000*%
%ADD16O,1.600000X1.600000*%
%ADD17R,1.700000X1.700000*%
%ADD18O,1.700000X1.700000*%
%ADD19R,1.600000X1.600000*%
G04 APERTURE END LIST*
D10*
%TO.C,U4*%
X165695000Y-118120000D03*
D11*
X168235000Y-118120000D03*
X170775000Y-118120000D03*
X173315000Y-118120000D03*
X175855000Y-118120000D03*
X178395000Y-118120000D03*
X180935000Y-118120000D03*
X180935000Y-110500000D03*
X178395000Y-110500000D03*
X175855000Y-110500000D03*
X173315000Y-110500000D03*
X170775000Y-110500000D03*
X168235000Y-110500000D03*
X165695000Y-110500000D03*
%TD*%
D10*
%TO.C,J2*%
X160920000Y-82620000D03*
D11*
X163460000Y-82620000D03*
X166000000Y-82620000D03*
X168540000Y-82620000D03*
X171080000Y-82620000D03*
X173620000Y-82620000D03*
X176160000Y-82620000D03*
X178700000Y-82620000D03*
X178700000Y-75000000D03*
X176160000Y-75000000D03*
X173620000Y-75000000D03*
X171080000Y-75000000D03*
X168540000Y-75000000D03*
X166000000Y-75000000D03*
X163460000Y-75000000D03*
X160920000Y-75000000D03*
%TD*%
D10*
%TO.C,J1*%
X122820000Y-82820000D03*
D11*
X125360000Y-82820000D03*
X127900000Y-82820000D03*
X130440000Y-82820000D03*
X132980000Y-82820000D03*
X135520000Y-82820000D03*
X138060000Y-82820000D03*
X140600000Y-82820000D03*
X140600000Y-75200000D03*
X138060000Y-75200000D03*
X135520000Y-75200000D03*
X132980000Y-75200000D03*
X130440000Y-75200000D03*
X127900000Y-75200000D03*
X125360000Y-75200000D03*
X122820000Y-75200000D03*
%TD*%
D10*
%TO.C,U3*%
X138920000Y-118120000D03*
D11*
X141460000Y-118120000D03*
X144000000Y-118120000D03*
X146540000Y-118120000D03*
X149080000Y-118120000D03*
X151620000Y-118120000D03*
X154160000Y-118120000D03*
X156700000Y-118120000D03*
X156700000Y-110500000D03*
X154160000Y-110500000D03*
X151620000Y-110500000D03*
X149080000Y-110500000D03*
X146540000Y-110500000D03*
X144000000Y-110500000D03*
X141460000Y-110500000D03*
X138920000Y-110500000D03*
%TD*%
D10*
%TO.C,U1*%
X119395000Y-101370489D03*
D11*
X121935000Y-101370489D03*
X124475000Y-101370489D03*
X127015000Y-101370489D03*
X129555000Y-101370489D03*
X132095000Y-101370489D03*
X134635000Y-101370489D03*
X137175000Y-101370489D03*
X139715000Y-101370489D03*
X142255000Y-101370489D03*
X142255000Y-93750489D03*
X139715000Y-93750489D03*
X137175000Y-93750489D03*
X134635000Y-93750489D03*
X132095000Y-93750489D03*
X129555000Y-93750489D03*
X127015000Y-93750489D03*
X124475000Y-93750489D03*
X121935000Y-93750489D03*
X119395000Y-93750489D03*
%TD*%
D12*
%TO.C,Z1*%
X124190000Y-128590000D03*
X124190000Y-126050000D03*
X114030000Y-126050000D03*
X116570000Y-126050000D03*
X119110000Y-126050000D03*
X121650000Y-126050000D03*
X126730000Y-126050000D03*
X129270000Y-126050000D03*
X131810000Y-126050000D03*
X134350000Y-126050000D03*
X136890000Y-126050000D03*
X139430000Y-126050000D03*
X141970000Y-126050000D03*
X144510000Y-126050000D03*
X147050000Y-126050000D03*
X149590000Y-126050000D03*
X152130000Y-126050000D03*
X154670000Y-126050000D03*
X157210000Y-126050000D03*
X159750000Y-126050000D03*
X162290000Y-126050000D03*
X164830000Y-126050000D03*
X167370000Y-126050000D03*
X169910000Y-126050000D03*
X172450000Y-126050000D03*
X174990000Y-126050000D03*
X177530000Y-126050000D03*
X180070000Y-126050000D03*
X182610000Y-126050000D03*
X114030000Y-128590000D03*
X116570000Y-128590000D03*
X119110000Y-128590000D03*
X121650000Y-128590000D03*
X126730000Y-128590000D03*
X129270000Y-128590000D03*
X131810000Y-128590000D03*
X134350000Y-128590000D03*
X136890000Y-128590000D03*
X139430000Y-128590000D03*
X141970000Y-128590000D03*
X144510000Y-128590000D03*
X147050000Y-128590000D03*
X149590000Y-128590000D03*
X152130000Y-128590000D03*
X154670000Y-128590000D03*
X157210000Y-128590000D03*
X159750000Y-128590000D03*
X162290000Y-128590000D03*
X164830000Y-128590000D03*
X167370000Y-128590000D03*
X169910000Y-128590000D03*
X172450000Y-128590000D03*
X174990000Y-128590000D03*
X177530000Y-128590000D03*
X180070000Y-128590000D03*
X182610000Y-128590000D03*
%TD*%
D13*
%TO.C,J3*%
X138190000Y-67884775D03*
D14*
X138190000Y-65344775D03*
X140730000Y-67884775D03*
X140730000Y-65344775D03*
X143270000Y-67884775D03*
X143270000Y-65344775D03*
X145810000Y-67884775D03*
X145810000Y-65344775D03*
X148350000Y-67884775D03*
X148350000Y-65344775D03*
X150890000Y-67884775D03*
X150890000Y-65344775D03*
X153430000Y-67884775D03*
X153430000Y-65344775D03*
X155970000Y-67884775D03*
X155970000Y-65344775D03*
X158510000Y-67884775D03*
X158510000Y-65344775D03*
X161050000Y-67884775D03*
X161050000Y-65344775D03*
%TD*%
D15*
%TO.C,R1*%
X154320000Y-83400000D03*
D16*
X154320000Y-73240000D03*
%TD*%
D10*
%TO.C,U2*%
X158395000Y-100870489D03*
D11*
X160935000Y-100870489D03*
X163475000Y-100870489D03*
X166015000Y-100870489D03*
X168555000Y-100870489D03*
X171095000Y-100870489D03*
X173635000Y-100870489D03*
X176175000Y-100870489D03*
X178715000Y-100870489D03*
X181255000Y-100870489D03*
X181255000Y-93250489D03*
X178715000Y-93250489D03*
X176175000Y-93250489D03*
X173635000Y-93250489D03*
X171095000Y-93250489D03*
X168555000Y-93250489D03*
X166015000Y-93250489D03*
X163475000Y-93250489D03*
X160935000Y-93250489D03*
X158395000Y-93250489D03*
%TD*%
D15*
%TO.C,C2*%
X176320000Y-104570489D03*
X181320000Y-104570489D03*
%TD*%
%TO.C,C4*%
X175820000Y-121820000D03*
X180820000Y-121820000D03*
%TD*%
D17*
%TO.C,JP1*%
X148320000Y-79095000D03*
D18*
X148320000Y-76555000D03*
%TD*%
D19*
%TO.C,C5*%
X121864888Y-110320000D03*
D15*
X123864888Y-110320000D03*
%TD*%
%TO.C,C1*%
X137320000Y-105070489D03*
X142320000Y-105070489D03*
%TD*%
%TO.C,C3*%
X151820000Y-121820000D03*
X156820000Y-121820000D03*
%TD*%
M02*
