M48
INCH,TZ
T1C0.0157
T2C0.0300
T3C0.0315
T4C0.0394
%
G90
G05
T1
X44811Y-47764
X44811Y-48157
X45205Y-47764
X45205Y-48157
X57803Y-39890
X58197Y-39890
X58591Y-39890
X59378Y-39890
X59772Y-39890
X60165Y-39890
X68827Y-40480
X71189Y-26504
X71189Y-26898
X71583Y-26504
X71583Y-26898
T2
X44894Y-49626
X44894Y-50626
X45894Y-49626
X45894Y-50626
X46894Y-49626
X46894Y-50626
X47894Y-49626
X47894Y-50626
X48894Y-49626
X48894Y-50626
X49894Y-49626
X49894Y-50626
X50894Y-49626
X50894Y-50626
X51894Y-49626
X51894Y-50626
X52894Y-49626
X52894Y-50626
X53894Y-49626
X53894Y-50626
X54894Y-49626
X54894Y-50626
X55894Y-49626
X55894Y-50626
X56894Y-49626
X56894Y-50626
X57894Y-49626
X57894Y-50626
X58894Y-49626
X58894Y-50626
X59894Y-49626
X59894Y-50626
X60894Y-49626
X60894Y-50626
X61894Y-49626
X61894Y-50626
X62894Y-49626
X62894Y-50626
X63894Y-49626
X63894Y-50626
X64894Y-49626
X64894Y-50626
X65894Y-49626
X65894Y-50626
X66894Y-49626
X66894Y-50626
X67894Y-49626
X67894Y-50626
X68894Y-49626
X68894Y-50626
X69894Y-49626
X69894Y-50626
X70894Y-49626
X70894Y-50626
X71894Y-49626
X71894Y-50626
T3
X47006Y-36910
X47006Y-39910
X47978Y-43433
X48006Y-36910
X48006Y-39910
X48354Y-29606
X48354Y-32606
X48766Y-43433
X49006Y-36910
X49006Y-39910
X49354Y-29606
X49354Y-32606
X50006Y-36910
X50006Y-39910
X50354Y-29606
X50354Y-32606
X51006Y-36910
X51006Y-39910
X51354Y-29606
X51354Y-32606
X52006Y-36910
X52006Y-39910
X52354Y-29606
X52354Y-32606
X53006Y-36910
X53006Y-39910
X53354Y-29606
X53354Y-32606
X54006Y-36910
X54006Y-39910
X54063Y-41366
X54354Y-29606
X54354Y-32606
X54693Y-43504
X54693Y-46504
X55006Y-36910
X55006Y-39910
X55354Y-29606
X55354Y-32606
X55693Y-43504
X55693Y-46504
X56006Y-36910
X56006Y-39910
X56031Y-41366
X56693Y-43504
X56693Y-46504
X57693Y-43504
X57693Y-46504
X58693Y-43504
X58693Y-46504
X59693Y-43504
X59693Y-46504
X59772Y-47961
X60693Y-43504
X60693Y-46504
X60756Y-28835
X60756Y-32835
X61693Y-43504
X61693Y-46504
X61740Y-47961
X62360Y-36713
X62360Y-39713
X63354Y-29528
X63354Y-32528
X63360Y-36713
X63360Y-39713
X64354Y-29528
X64354Y-32528
X64360Y-36713
X64360Y-39713
X65234Y-43504
X65234Y-46504
X65354Y-29528
X65354Y-32528
X65360Y-36713
X65360Y-39713
X66234Y-43504
X66234Y-46504
X66354Y-29528
X66354Y-32528
X66360Y-36713
X66360Y-39713
X67234Y-43504
X67234Y-46504
X67354Y-29528
X67354Y-32528
X67360Y-36713
X67360Y-39713
X68234Y-43504
X68234Y-46504
X68354Y-29528
X68354Y-32528
X68360Y-36713
X68360Y-39713
X69220Y-47961
X69234Y-43504
X69234Y-46504
X69354Y-29528
X69354Y-32528
X69360Y-36713
X69360Y-39713
X69417Y-41169
X70234Y-43504
X70234Y-46504
X70354Y-29528
X70354Y-32528
X70360Y-36713
X70360Y-39713
X71189Y-47961
X71234Y-43504
X71234Y-46504
X71360Y-36713
X71360Y-39713
X71386Y-41169
T4
X54406Y-25726
X54406Y-26726
X55406Y-25726
X55406Y-26726
X56406Y-25726
X56406Y-26726
X57406Y-25726
X57406Y-26726
X58394Y-30140
X58394Y-31140
X58406Y-25726
X58406Y-26726
X59406Y-25726
X59406Y-26726
X60406Y-25726
X60406Y-26726
X61406Y-25726
X61406Y-26726
X62406Y-25726
X62406Y-26726
X63406Y-25726
X63406Y-26726
T0
M30
